<svg width="18" height="18" viewBox="0 0 18 18" fill="none" xmlns="http://www.w3.org/2000/svg">
<circle cx="9.24191" cy="9.05814" r="8.71115" fill="#57126E"/>
<path d="M8.79415 12.1952C8.71349 12.1952 8.64749 12.1695 8.59615 12.1182C8.54482 12.0668 8.51915 12.0008 8.51915 11.9202V9.90717H6.56115C6.48049 9.90717 6.41082 9.8815 6.35215 9.83017C6.30082 9.77883 6.27515 9.71283 6.27515 9.63217V8.82917C6.27515 8.7485 6.30082 8.6825 6.35215 8.63117C6.41082 8.57983 6.48049 8.55417 6.56115 8.55417H8.51915V6.59617C8.51915 6.5155 8.54482 6.4495 8.59615 6.39817C8.64749 6.34683 8.71349 6.32117 8.79415 6.32117H9.69615C9.76949 6.32117 9.83182 6.34683 9.88315 6.39817C9.94182 6.4495 9.97115 6.5155 9.97115 6.59617V8.55417H11.9182C11.9988 8.55417 12.0648 8.57983 12.1162 8.63117C12.1675 8.6825 12.1932 8.7485 12.1932 8.82917V9.63217C12.1932 9.71283 12.1675 9.77883 12.1162 9.83017C12.0648 9.8815 11.9988 9.90717 11.9182 9.90717H9.97115V11.9202C9.97115 12.0008 9.94182 12.0668 9.88315 12.1182C9.83182 12.1695 9.76949 12.1952 9.69615 12.1952H8.79415Z" fill="white"/>
</svg>
