<svg width="26" height="26" viewBox="0 0 26 26" fill="none" xmlns="http://www.w3.org/2000/svg">
<circle cx="13" cy="13" r="12.25" fill="url(#paint0_linear_223_258)"/>
<circle cx="13" cy="13" r="12.25" fill="black" fill-opacity="0.2"/>
<circle cx="13" cy="13" r="12.25" stroke="white" stroke-width="1.5"/>
<path d="M17.4108 10.1855H14.8415L14.3227 9.31394C14.2719 9.22872 14.1801 9.17651 14.0809 9.17651H12.4492C12.35 9.17651 12.2581 9.22872 12.2074 9.31394L11.6886 10.1855H10.8455V9.99344C10.8455 9.83807 10.7195 9.71211 10.5642 9.71211H9.5232C9.3678 9.71211 9.24187 9.83807 9.24187 9.99344V10.1855H9.11931C8.72857 10.1855 8.41187 10.5023 8.41187 10.893V16.015C8.41187 16.4057 8.72857 16.7225 9.11928 16.7225H17.4108C17.8015 16.7225 18.1183 16.4057 18.1183 16.015V10.893C18.1183 10.5023 17.8015 10.1855 17.4108 10.1855ZM13.2651 15.4677C12.1529 15.4677 11.2514 14.5661 11.2514 13.454C11.2514 12.3419 12.1529 11.4403 13.2651 11.4403C14.3772 11.4403 15.2787 12.3419 15.2787 13.454C15.2787 14.5661 14.3772 15.4677 13.2651 15.4677ZM16.9694 11.644H16.0879C15.9325 11.644 15.8066 11.5181 15.8066 11.3627C15.8066 11.2073 15.9325 11.0813 16.0879 11.0813H16.9694C17.1249 11.0813 17.2508 11.2073 17.2508 11.3627C17.2508 11.5181 17.1248 11.644 16.9694 11.644Z" fill="white"/>
<path d="M13.265 14.8607C14.042 14.8607 14.6718 14.2309 14.6718 13.454C14.6718 12.6771 14.042 12.0472 13.265 12.0472C12.4881 12.0472 11.8583 12.6771 11.8583 13.454C11.8583 14.2309 12.4881 14.8607 13.265 14.8607Z" fill="white"/>
<defs>
<linearGradient id="paint0_linear_223_258" x1="26" y1="0" x2="19.5935" y2="30.5583" gradientUnits="userSpaceOnUse">
<stop stop-color="#73188D"/>
<stop offset="1" stop-color="#34055B"/>
</linearGradient>
</defs>
</svg>
