<svg width="12" height="12" viewBox="0 0 12 12" fill="none" xmlns="http://www.w3.org/2000/svg">
<path d="M5.94973 0.573975C2.864 0.573975 0.344727 3.09327 0.344727 6.17897C0.344727 9.26471 2.86392 11.784 5.94973 11.784C9.03554 11.784 11.5547 9.26479 11.5547 6.17897C11.5547 3.09316 9.03554 0.573975 5.94973 0.573975ZM8.15592 7.55041C8.39446 7.78895 8.39446 8.16162 8.15592 8.40016C8.05163 8.50445 7.88765 8.56414 7.73853 8.56414C7.58942 8.56414 7.44042 8.50456 7.32114 8.38529L5.9497 7.02873L4.57826 8.40017C4.459 8.50446 4.30989 8.56415 4.16087 8.56415C4.01176 8.56415 3.86276 8.50457 3.74348 8.3853C3.50494 8.14676 3.50494 7.77409 3.74348 7.53555L5.11491 6.16412L3.74348 4.79268C3.50494 4.55415 3.50494 4.18147 3.74348 3.94293C3.98201 3.7044 4.35469 3.7044 4.59322 3.94293L5.96466 5.31437L7.3361 3.94293C7.57463 3.7044 7.94731 3.7044 8.18584 3.94293C8.42438 4.18147 8.42438 4.55414 8.18584 4.79268L6.79945 6.17897L8.15592 7.55041Z" fill="#FF3D3D"/>
</svg>
