<svg width="12" height="12" viewBox="0 0 12 12" fill="none" xmlns="http://www.w3.org/2000/svg">
<path d="M5.95183 0.198338C4.4659 0.198338 3.04086 0.7886 1.9901 1.83931C0.939382 2.89003 0.349121 4.31518 0.349121 5.80104C0.349121 7.2869 0.939382 8.71201 1.9901 9.76277C3.04081 10.8135 4.46597 11.4037 5.95183 11.4037C7.43768 11.4037 8.86279 10.8135 9.91356 9.76277C10.9643 8.71206 11.5545 7.2869 11.5545 5.80104C11.5545 4.81759 11.2957 3.85139 10.804 2.99957C10.3122 2.14789 9.60486 1.44057 8.7532 0.948807C7.90143 0.457115 6.93523 0.198242 5.95173 0.198242L5.95183 0.198338ZM8.65797 4.42852L6.41689 7.79019V7.7901C6.33463 7.91457 6.20622 8.00105 6.0601 8.03051C5.91396 8.05986 5.76211 8.02985 5.63811 7.94703L3.95727 6.82644C3.80317 6.7106 3.7195 6.52367 3.73573 6.33157C3.75195 6.13948 3.86582 5.96914 4.0372 5.8808C4.20847 5.79244 4.41322 5.79835 4.57915 5.89637L5.79494 6.70874L7.7279 3.81218V3.81227C7.84383 3.65817 8.03077 3.5745 8.22286 3.59073C8.41496 3.60695 8.5852 3.72082 8.67364 3.8921C8.76199 4.06347 8.75608 4.26822 8.65797 4.43414L8.65797 4.42852Z" fill="#0C9609"/>
</svg>
