<svg width="200" height="168" viewBox="0 0 200 168" fill="none" xmlns="http://www.w3.org/2000/svg">
<path opacity="0.4" d="M128 157C167.764 157 200 124.764 200 85C200 45.2355 167.764 13 128 13C88.2355 13 56 45.2355 56 85C56 124.764 88.2355 157 128 157Z" fill="#743F87"/>
<g clip-path="url(#clip0_1101_6742)">
<mask id="mask0_1101_6742" style="mask-type:alpha" maskUnits="userSpaceOnUse" x="40" y="141" width="126" height="14">
<path d="M40.0718 141.913L165.245 142.1L165.228 154.968L40.0505 154.781L40.0718 141.913Z" fill="url(#paint0_radial_1101_6742)"/>
</mask>
<g mask="url(#mask0_1101_6742)">
<path opacity="0.25" d="M38.5239 166.097L163.697 166.288L163.731 146.417L38.5537 146.225L38.5239 166.097Z" fill="url(#paint1_linear_1101_6742)"/>
</g>
</g>
<path opacity="0.1" d="M157.237 157.568L157.488 156.533C157.517 156.135 157.461 155.747 157.303 155.389L142.283 129.978C140.981 127.776 138.611 126.425 136.05 126.425H135.47C138.072 126.425 140.182 124.318 140.182 121.718L115.113 105.757C115.113 104.38 114.521 103.141 113.576 102.281C113.566 102.272 113.556 102.263 113.545 102.254C113.472 102.188 113.396 102.125 113.319 102.064C112.516 101.43 111.502 101.05 110.399 101.05H5.20849C4.26795 101.05 3.39283 101.327 2.65744 101.8C1.35636 102.639 0.494873 104.097 0.494873 105.758L25.5644 121.719C25.5644 123.831 26.9575 125.618 28.8761 126.214C28.9497 126.237 29.0247 126.258 29.0996 126.277C29.4758 126.374 29.8712 126.425 30.2774 126.425H29.8098C27.1879 126.425 24.7711 127.841 23.4925 130.126L9.35028 155.389C9.20375 155.747 9.15945 156.135 9.20102 156.533L9.48523 157.568C9.48728 157.573 9.49 157.578 9.49205 157.584L10.9574 160.926C12.2189 163.804 15.1278 166.138 17.4546 166.138H149.537C151.864 166.138 154.699 163.805 155.87 160.926L157.231 157.584C157.233 157.578 157.235 157.573 157.237 157.568Z" fill="#B3B3B3"/>
<path d="M162.084 153.131C162.059 153.467 161.974 153.811 161.838 154.15C161.834 154.16 161.83 154.17 161.826 154.18L160.464 157.524C159.293 160.402 156.458 162.735 154.131 162.735H22.0493C19.7224 162.735 16.8136 160.402 15.5513 157.524L14.0621 154.126C13.9217 153.794 13.8297 153.459 13.7957 153.131H162.084Z" fill="#E6E6E6"/>
<path d="M162.084 153.131C162.059 153.467 161.974 153.811 161.838 154.15C161.834 154.16 161.83 154.17 161.826 154.18C161.101 155.953 158.997 157.621 156.93 157.621H19.0891C17.0021 157.621 14.8232 155.919 14.0626 154.126C13.9222 153.794 13.8302 153.458 13.7961 153.13C13.7545 152.732 13.7988 152.346 13.9454 151.987L28.0876 126.724C29.3662 124.438 31.7837 123.023 34.4056 123.023H140.645C143.207 123.023 145.576 124.374 146.878 126.577L161.899 151.987C162.056 152.346 162.112 152.733 162.084 153.131Z" fill="white"/>
<path d="M138.917 126.218H36.1191L27.6733 142.038H147.858L138.917 126.218Z" fill="#E6E6E6"/>
<path d="M105.457 144.68H70.1572L69.1396 155.01H106.799L105.457 144.68Z" fill="#E6E6E6"/>
<path d="M34.8725 120.846C33.476 120.846 32.3398 119.711 32.3398 118.317V57.4247C32.3398 56.0303 33.476 54.8959 34.8725 54.8959H140.064C141.46 54.8959 142.597 56.0303 142.597 57.4247V118.317C142.597 119.711 141.46 120.846 140.064 120.846H34.8725Z" fill="#2891B2"/>
<path d="M140.064 57.0742C140.257 57.0742 140.415 57.2314 140.415 57.4254V118.318C140.415 118.511 140.258 118.669 140.064 118.669H34.8723C34.6787 118.669 34.5206 118.512 34.5206 118.318V57.4254C34.5206 57.2321 34.6781 57.0742 34.8723 57.0742H140.064ZM140.064 52.7189H34.8723C32.2695 52.7189 30.1587 54.8258 30.1587 57.4254V118.318C30.1587 120.917 32.2688 123.024 34.8723 123.024H140.064C142.667 123.024 144.777 120.917 144.777 118.318V57.4254C144.777 54.8258 142.667 52.7189 140.064 52.7189Z" fill="#333333"/>
<path d="M34.8723 120.434C33.7035 120.434 32.7527 119.485 32.7527 118.318V57.4254C32.7527 56.2583 33.7035 55.309 34.8723 55.309H140.064C141.233 55.309 142.183 56.2583 142.183 57.4254V118.318C142.183 119.485 141.233 120.434 140.064 120.434H34.8723Z" fill="#9347AD"/>
<path d="M139.59 57.8983V117.845H35.346V57.8983H139.59ZM140.064 52.7189H34.8723C32.2695 52.7189 30.1587 54.8258 30.1587 57.4254V118.318C30.1587 120.917 32.2688 123.024 34.8723 123.024H140.064C142.667 123.024 144.777 120.917 144.777 118.318V57.4254C144.777 54.8258 142.667 52.7189 140.064 52.7189Z" fill="#333333"/>
<path d="M48.8094 72.5804H42.959C41.9237 72.5804 41.0847 71.7427 41.0847 70.709V64.8675C41.0847 63.8338 41.9237 62.9961 42.959 62.9961H48.8094C49.8447 62.9961 50.6837 63.8338 50.6837 64.8675V70.709C50.6837 71.742 49.8447 72.5804 48.8094 72.5804Z" fill="#70228A"/>
<path d="M48.8094 85.9689H42.959C41.9237 85.9689 41.0847 85.1312 41.0847 84.0975V78.2559C41.0847 77.2222 41.9237 76.3845 42.959 76.3845H48.8094C49.8447 76.3845 50.6837 77.2222 50.6837 78.2559V84.0975C50.6837 85.1312 49.8447 85.9689 48.8094 85.9689Z" fill="#70228A"/>
<path d="M48.8094 99.358H42.959C41.9237 99.358 41.0847 98.5202 41.0847 97.4865V91.645C41.0847 90.6113 41.9237 89.7736 42.959 89.7736H48.8094C49.8447 89.7736 50.6837 90.6113 50.6837 91.645V97.4865C50.6837 98.5196 49.8447 99.358 48.8094 99.358Z" fill="#70228A"/>
<path d="M48.8094 112.746H42.959C41.9237 112.746 41.0847 111.909 41.0847 110.875V105.033C41.0847 104 41.9237 103.162 42.959 103.162H48.8094C49.8447 103.162 50.6837 104 50.6837 105.033V110.875C50.6837 111.909 49.8447 112.746 48.8094 112.746Z" fill="#70228A"/>
<path d="M63.5433 72.5804H57.6929C56.6576 72.5804 55.8186 71.7427 55.8186 70.709V64.8675C55.8186 63.8338 56.6576 62.9961 57.6929 62.9961H63.5433C64.5786 62.9961 65.4176 63.8338 65.4176 64.8675V70.709C65.4176 71.742 64.5779 72.5804 63.5433 72.5804Z" fill="#70228A"/>
<path d="M63.5433 85.9689H57.6929C56.6576 85.9689 55.8186 85.1312 55.8186 84.0975V78.2559C55.8186 77.2222 56.6576 76.3845 57.6929 76.3845H63.5433C64.5786 76.3845 65.4176 77.2222 65.4176 78.2559V84.0975C65.4176 85.1312 64.5779 85.9689 63.5433 85.9689Z" fill="#70228A"/>
<path d="M63.5433 99.358H57.6929C56.6576 99.358 55.8186 98.5202 55.8186 97.4865V91.645C55.8186 90.6113 56.6576 89.7736 57.6929 89.7736H63.5433C64.5786 89.7736 65.4176 90.6113 65.4176 91.645V97.4865C65.4176 98.5196 64.5779 99.358 63.5433 99.358Z" fill="#70228A"/>
<path opacity="0.1" d="M127.438 62.9961H48.3727C42.1829 62.9961 38.4527 68.2755 41.8162 72.2762L66.6349 101.802C67.9047 103.312 70.8551 104.548 73.1915 104.548H86.4913V117.189L111.164 104.548H152.257C158.447 104.548 162.177 99.2682 158.814 95.2674L133.995 65.7419C132.556 64.0298 130.087 62.9961 127.438 62.9961Z" fill="#B3B3B3"/>
<path d="M63.5433 112.746H57.6929C56.6576 112.746 55.8186 111.909 55.8186 110.875V105.033C55.8186 104 56.6576 103.162 57.6929 103.162H63.5433C64.5786 103.162 65.4176 104 65.4176 105.033V110.875C65.4176 111.909 64.5779 112.746 63.5433 112.746Z" fill="#70228A"/>
<path d="M159.532 23.3561H85.864C79.2352 23.3561 73.8618 28.7213 73.8618 35.34V83.8661C73.8618 90.4848 79.2352 95.85 85.864 95.85H159.532C166.16 95.85 171.534 90.4848 171.534 83.8661V35.34C171.534 28.7213 166.16 23.3561 159.532 23.3561Z" fill="white"/>
<path d="M146.69 75.2576L156.111 82.6786C156.073 82.7133 156.035 82.7473 155.995 82.7813C155.992 82.7847 155.989 82.7875 155.985 82.7902C154.921 83.7082 153.533 84.2635 152.016 84.2642L93.3743 84.2873C91.8626 84.288 90.4791 83.7375 89.4145 82.8262C89.4111 82.8228 89.4077 82.8201 89.4042 82.8174C89.3654 82.7841 89.3265 82.75 89.2891 82.716L98.7006 75.2909L114.89 62.5183L116.386 61.3376L120.501 58.0909L122.696 56.3597L124.892 58.0895L129.01 61.3336L130.507 62.5129L146.69 75.2576Z" fill="#F4BF21"/>
<path d="M122.673 59.603L118.042 62.8375L116.376 64.0005L116.132 64.1706L99.0679 76.0858L89.4157 82.8256C89.4123 82.8222 89.4089 82.8195 89.4055 82.8167C89.3667 82.7834 89.3278 82.7494 89.2903 82.7153C88.1917 81.7204 87.459 80.3308 87.3172 78.7704L87.3022 40.4635C87.4331 39.0072 88.0785 37.6993 89.0559 36.7221C89.0845 36.6935 89.1138 36.6649 89.1424 36.637C89.2249 36.5574 89.3101 36.4805 89.3967 36.4056L99.0543 43.138L120.501 58.0896L122.673 59.603Z" fill="#FFCE39"/>
<path d="M158.08 40.9875L158.094 78.1906C158.095 79.9681 157.33 81.568 156.111 82.6786C156.073 82.7133 156.035 82.7473 155.995 82.7813C155.992 82.7847 155.989 82.7875 155.985 82.7902L146.321 76.0538L129.268 64.1652L129.024 63.9951L127.357 62.8334L122.723 59.603L124.893 58.0882L140.451 47.2251L146.309 43.1339L155.967 36.3893C156.055 36.4648 156.14 36.5424 156.223 36.6227C156.252 36.6513 156.282 36.6799 156.31 36.7085C157.403 37.8055 158.079 39.3176 158.08 40.9875Z" fill="#FFCE39"/>
<path opacity="0.1" d="M156.222 36.622C156.252 36.6506 156.281 36.6792 156.309 36.7078L147.717 45.3006L130.507 62.5108L129.023 63.995L127.66 65.3574C124.922 68.0958 120.479 68.0972 117.738 65.3615L116.375 63.9998L114.889 62.517L97.6537 45.3074L89.0559 36.7221C89.0845 36.6935 89.1138 36.6649 89.1425 36.637C89.2249 36.5574 89.3101 36.4805 89.3967 36.4056C90.4606 35.4937 91.8435 34.9418 93.3551 34.9412L151.997 34.918C153.514 34.9173 154.901 35.472 155.967 36.3893C156.055 36.4642 156.14 36.5417 156.222 36.622Z" fill="#999999"/>
<path d="M156.222 36.622L147.244 44.7746L142.041 49.4994L129.011 61.3322L127.357 62.8341L126.168 63.9141C124.202 65.699 121.199 65.7004 119.232 63.9168L118.042 62.8375L116.388 61.337L98.1262 44.7814L89.1433 36.6377C89.2258 36.5581 89.311 36.4812 89.3975 36.4063C90.4614 35.4944 91.8443 34.9425 93.356 34.9418L151.997 34.9187C153.515 34.918 154.902 35.4726 155.967 36.39C156.055 36.4642 156.14 36.5417 156.222 36.622Z" fill="#FDE350"/>
<path d="M116.376 63.9998C114.17 65.6283 111.945 67.2275 109.712 68.8172L108.875 69.4133L108.036 70.0067L106.358 71.1929L102.992 73.5529L99.6159 75.8973L97.9229 77.063L97.0764 77.6455L96.2279 78.2253C93.9651 79.7721 91.6955 81.3087 89.4055 82.816C91.611 81.1876 93.8363 79.5877 96.0691 77.9987L96.906 77.4019L97.745 76.8085L99.4237 75.6223L102.79 73.263L106.167 70.9193L107.86 69.7536L108.706 69.171L109.555 68.5912C111.816 67.0444 114.086 65.5078 116.376 63.9998Z" fill="white"/>
<path d="M129.023 63.9951C131.313 65.5004 133.583 67.0342 135.846 68.5783L136.694 69.1568L137.541 69.7379L139.234 70.9016L142.611 73.2419L145.977 75.5978L147.656 76.7819L148.495 77.3746L149.332 77.9701C151.564 79.5571 153.79 81.1542 155.995 82.78C153.705 81.2754 151.436 79.7415 149.173 78.1967L148.324 77.6183L147.478 77.0364L145.785 75.8728L142.408 73.5325L139.042 71.1765L137.363 69.9924L136.524 69.3997L135.687 68.8043C133.455 67.218 131.229 65.6208 129.023 63.9951Z" fill="white"/>
<path d="M149.519 54.7203C155.736 54.7203 160.777 49.6877 160.777 43.4796C160.777 37.2715 155.736 32.2389 149.519 32.2389C143.301 32.2389 138.261 37.2715 138.261 43.4796C138.261 49.6877 143.301 54.7203 149.519 54.7203Z" fill="#F15A24"/>
<path d="M148.903 37.2617C149.171 37.0875 149.454 36.9902 149.749 36.9698C150.045 36.9493 150.307 37.0439 150.535 37.2515C150.763 37.4597 150.878 37.7381 150.878 38.0865C150.878 39.1202 150.871 40.8507 150.858 43.2788C150.844 45.7076 150.837 47.5729 150.837 48.874C150.837 49.1693 150.757 49.4143 150.595 49.6083C150.434 49.8029 150.239 49.92 150.01 49.9608C149.781 50.0009 149.553 50.0009 149.325 49.9608C149.096 49.9206 148.901 49.8029 148.74 49.6083C148.578 49.4136 148.498 49.1687 148.498 48.874C148.511 46.5793 148.525 43.7892 148.538 40.5016C148.471 40.5554 148.367 40.6391 148.226 40.7534C148.085 40.8677 147.981 40.9515 147.914 41.0052C147.645 41.2203 147.366 41.3339 147.078 41.3475C146.789 41.3611 146.517 41.2468 146.261 41.0052C146.046 40.8038 145.932 40.5323 145.918 40.19C145.905 39.8477 146.019 39.5761 146.261 39.3747C147.902 38.0606 148.782 37.3563 148.903 37.2617Z" fill="white"/>
<path d="M91.4099 112.242L116.083 95.8492H91.4099V112.242Z" fill="white"/>
<path d="M159.74 18.9804C158.844 18.9804 158.119 18.2556 158.119 17.3621V2.03761C158.119 1.14341 158.845 0.419342 159.74 0.419342C160.635 0.419342 161.36 1.14409 161.36 2.03761V17.3614C161.36 18.2556 160.635 18.9804 159.74 18.9804Z" fill="white"/>
<path d="M192.884 36.7507H177.537C176.641 36.7507 175.916 36.0259 175.916 35.1324C175.916 34.2382 176.642 33.5141 177.537 33.5141H192.884C193.78 33.5141 194.505 34.2389 194.505 35.1324C194.506 36.0266 193.78 36.7507 192.884 36.7507Z" fill="white"/>
<path d="M176.558 27.0567C175.998 27.0567 175.453 26.7662 175.153 26.2469C174.705 25.4725 174.971 24.483 175.746 24.0359L189.037 16.374C189.813 15.9269 190.804 16.1923 191.252 16.9668C191.7 17.7412 191.434 18.7306 190.658 19.1777L177.367 26.8397C177.112 26.9866 176.833 27.0567 176.558 27.0567Z" fill="white"/>
<path d="M169.447 19.9596C169.172 19.9596 168.894 19.8896 168.638 19.7426C167.862 19.2955 167.597 18.306 168.044 17.5316L175.718 4.26086C176.166 3.48643 177.157 3.22171 177.932 3.66813C178.708 4.11523 178.973 5.10469 178.526 5.87912L170.852 19.1498C170.552 19.6691 170.007 19.9596 169.447 19.9596Z" fill="white"/>
<defs>
<radialGradient id="paint0_radial_1101_6742" cx="0" cy="0" r="1" gradientUnits="userSpaceOnUse" gradientTransform="translate(103.084 147.44) rotate(-179.909) scale(61.7254 40.8831)">
<stop stop-color="white"/>
<stop offset="0.1614" stop-color="#FCFCFC"/>
<stop offset="0.2917" stop-color="#F2F2F2"/>
<stop offset="0.4112" stop-color="#E1E1E1"/>
<stop offset="0.5243" stop-color="#C9C9C9"/>
<stop offset="0.6328" stop-color="#AAAAAA"/>
<stop offset="0.738" stop-color="#848484"/>
<stop offset="0.8405" stop-color="#575757"/>
<stop offset="0.9382" stop-color="#242424"/>
<stop offset="1"/>
</radialGradient>
<linearGradient id="paint1_linear_1101_6742" x1="101.128" y1="144.455" x2="101.128" y2="166.876" gradientUnits="userSpaceOnUse">
<stop stop-color="#71756F"/>
<stop offset="0.0317" stop-color="#828680"/>
<stop offset="0.1035" stop-color="#A3A6A2"/>
<stop offset="0.1833" stop-color="#C0C2BF"/>
<stop offset="0.2716" stop-color="#D7D8D7"/>
<stop offset="0.3722" stop-color="#E9EAE9"/>
<stop offset="0.4921" stop-color="#F6F6F6"/>
<stop offset="0.6505" stop-color="#FDFDFD"/>
<stop offset="1" stop-color="white"/>
</linearGradient>
<clipPath id="clip0_1101_6742">
<rect width="125.207" height="20.0628" fill="white" transform="translate(34.6968 147.441)"/>
</clipPath>
</defs>
</svg>
