<svg width="313" height="279" viewBox="0 0 313 279" fill="none" xmlns="http://www.w3.org/2000/svg">
<path d="M303.167 201.686C298.061 190.072 288.255 180.38 276.475 175.611C264.207 170.643 250.119 172.45 237.195 170.787C225.971 169.342 217.874 164.332 211.171 155.423C204.75 146.888 198.991 137.435 188.494 133.486C180.198 130.365 170.766 131.232 162.521 134.482C147.328 140.473 135.852 153.21 126.187 165.9C117.364 177.486 110.167 190.172 93.8456 190.585C77.5136 190.998 61.9656 181.683 45.5235 184.151C23.7914 187.414 5.69046 205.506 1.89825 227.043C-1.65669 247.229 7.26242 266.808 22.5859 278.31H285.969C305.277 257.828 315.41 229.53 303.167 201.686Z" fill="#F7F0E3"/>
<path d="M65.0738 278.31H65.7984C70.8299 272.779 74.7726 266.069 77.2767 258.62C81.3316 246.564 81.1621 233.909 76.7958 222.99C74.5904 217.472 71.4041 212.33 68.3216 207.355C65.1967 202.311 61.9659 197.095 59.7732 191.507C58.8665 189.195 58.197 186.714 57.7945 184.183C57.6123 184.159 57.4301 184.14 57.25 184.117C57.6546 186.74 58.3432 189.31 59.2817 191.699C61.4913 197.333 64.737 202.57 67.8745 207.633C70.9443 212.586 74.1179 217.711 76.3064 223.185C80.6261 233.988 80.7935 246.511 76.7767 258.451C74.2387 265.993 70.2134 272.766 65.0738 278.31Z" fill="white"/>
<path d="M284.696 255.341C290.123 256.498 295.352 257.533 300.409 258.186C300.496 258.019 300.581 257.851 300.665 257.684C295.566 257.036 290.286 255.991 284.806 254.822C276.459 253.044 267.425 251.118 258.464 251.118C252.915 251.118 247.396 251.856 242.087 253.824C240.077 254.57 238.136 255.515 236.291 256.642C231.497 254.599 226.677 252.368 221.904 249.919C225.368 247.309 228.87 244.754 232.408 242.284C258.673 223.944 282.914 213.546 306.332 210.595C306.286 210.423 306.237 210.252 306.188 210.08C282.706 213.054 258.415 223.48 232.107 241.85C228.493 244.373 224.919 246.985 221.383 249.65C216.014 246.877 210.709 243.829 205.574 240.464C196.261 234.363 185.185 225.653 175.512 214.08C213 209.875 251.165 204.576 282.333 183.744C283.518 182.954 284.829 182.02 286.187 180.963C286.037 180.857 285.884 180.751 285.734 180.645C284.433 181.653 283.177 182.543 282.041 183.304C250.881 204.129 212.644 209.387 175.109 213.593C168.273 205.324 162.165 195.612 157.921 184.369C151.309 166.855 151.659 149.669 158.879 137.214C159.193 136.674 159.523 136.14 159.864 135.615C159.563 135.753 159.265 135.897 158.966 136.041C158.779 136.342 158.597 136.645 158.421 136.95C151.121 149.542 150.759 166.893 157.426 184.556C161.648 195.737 167.701 205.411 174.48 213.662C172.306 213.906 170.133 214.146 167.968 214.385C160.152 215.247 152.068 216.139 144.221 217.15C141.356 217.518 138.443 217.948 135.543 218.489C129.329 205.373 122.503 192.579 113.68 181.605C113.553 181.73 113.425 181.852 113.298 181.977C122.046 192.867 128.829 205.568 135.007 218.59C122.364 221.001 110.087 225.535 103.532 236.085C97.4092 245.939 97.4155 259.559 103.549 276.567C103.761 277.156 103.979 277.734 104.201 278.31H104.769C104.525 277.681 104.284 277.043 104.049 276.386C97.9727 259.538 97.9515 246.072 103.983 236.363C110.462 225.937 122.671 221.465 135.244 219.084C137.439 223.723 139.558 228.403 141.664 233.054L141.892 233.56C149.208 249.708 156.773 265.289 166.677 278.312H167.338C157.343 265.266 149.735 249.591 142.373 233.342L142.145 232.835C140.056 228.225 137.954 223.586 135.78 218.984C138.624 218.459 141.481 218.037 144.291 217.677C152.134 216.667 160.214 215.775 168.029 214.912C170.311 214.66 172.599 214.408 174.887 214.152C184.653 225.906 195.871 234.736 205.29 240.907C210.368 244.235 215.614 247.254 220.921 250.004C211.911 256.82 203.148 263.989 194.591 270.988C191.628 273.412 188.632 275.861 185.611 278.31H186.45C189.299 275.999 192.128 273.687 194.926 271.399C203.542 264.351 212.368 257.129 221.442 250.275C226.19 252.718 230.982 254.945 235.751 256.985C229.228 261.133 223.91 267.558 220.696 275.359C220.294 276.336 219.942 277.323 219.618 278.312H220.175C220.482 277.391 220.811 276.471 221.186 275.56C224.408 267.739 229.77 261.319 236.344 257.237C249.674 262.9 262.773 267.103 274.031 270.433L274.455 270.558C279.198 271.961 284.049 273.399 288.342 275.706C288.462 275.569 288.583 275.433 288.702 275.295C284.34 272.929 279.418 271.471 274.605 270.05L274.181 269.925C263.04 266.628 250.089 262.476 236.903 256.898C238.621 255.875 240.42 255.012 242.28 254.322C256.015 249.229 271.253 252.476 284.696 255.341Z" fill="white"/>
<path d="M23.9144 221.033C26.2533 230.609 25.211 240.949 21.0501 249.405C18.3257 254.942 14.3915 259.957 9.54639 264.262C9.64172 264.412 9.74129 264.561 9.83875 264.709C14.7623 260.347 18.76 255.26 21.5247 249.638C25.7385 241.072 26.7956 230.6 24.4271 220.906C22.5776 213.332 18.8574 206.917 13.7157 202.275C13.6013 202.411 13.4869 202.546 13.3746 202.682C18.4295 207.252 22.0903 213.571 23.9144 221.033Z" fill="white"/>
<path d="M143.787 99.733C148.401 104.447 150.468 112.391 147.924 119.713C145.46 126.804 140.06 132.676 133.573 136.454C128.353 139.492 121.544 141.168 116.411 137.986C112.574 135.609 110.585 130.943 110.474 126.433C110.364 121.921 111.881 117.525 113.756 113.419C116.4 107.633 119.957 102.021 125.258 98.5021C132.562 93.6527 139.35 95.2014 143.787 99.733Z" fill="#F7F0E3"/>
<path d="M82.6257 17.0671H44.4197V0H82.6257V17.0671ZM45.2141 16.2726H81.8312V0.794457H45.2141V16.2726Z" fill="#E9DDCA"/>
<path d="M57.7707 33.3905H19.5647V16.3213H57.7707V33.3905ZM20.3592 32.596H56.9762V17.1157H20.3592V32.596Z" fill="#E9DDCA"/>
<path d="M300.008 51.5762C297.534 43.3499 293.182 35.7972 286.954 28.8929C280.712 21.9885 272.2 16.2875 261.417 11.7792C250.633 7.27092 236.932 5.01678 220.314 5.01678C207.057 5.01678 193.547 6.80484 179.782 10.381C166.005 13.9698 154.055 19.0734 143.919 25.7066L157.114 61.9296L150.042 67.6582L160.298 70.6729C170.42 65.3744 179.645 61.5271 187.966 59.131C196.275 56.7476 205.105 55.5549 214.467 55.5549C223.816 55.5549 230.897 57.809 235.704 62.3173C240.511 66.8383 242.909 72.266 242.909 78.6408C242.909 86.3353 240.434 93.1634 235.513 99.1356C230.566 105.108 225.111 111.144 219.134 117.245C214.986 121.482 210.953 125.859 207.057 130.367C203.163 134.888 199.712 139.721 196.731 144.903C193.737 150.072 191.339 155.642 189.526 161.614C187.699 167.586 186.799 174.283 186.799 181.706C186.799 184.102 186.85 186.952 186.99 190.269C187.013 190.882 187.045 191.477 187.081 192.066H177.386L187.966 199.22H239.409C239.142 197.627 239.015 195.773 239.015 193.651C239.015 191.526 239.015 189.933 239.015 188.871C239.015 184.363 239.928 179.92 241.742 175.541C243.555 171.162 245.839 166.991 248.568 163.002C251.294 159.025 254.341 155.241 257.726 151.667C261.101 148.078 264.349 144.697 267.469 141.511C271.617 137.274 275.905 132.768 280.32 127.986C284.735 123.207 288.642 118.179 292.017 112.868C295.392 107.557 298.182 101.792 300.389 95.5489C302.597 89.3183 303.713 82.4902 303.713 75.054C303.713 67.6285 302.47 59.8026 300.008 51.5762Z" fill="#E49B31"/>
<path d="M203.576 53.0274C194.324 53.0274 185.598 54.1799 177.386 56.487C169.162 58.8068 160.048 62.5291 150.042 67.6581L133.856 24.1409C143.873 17.7217 155.684 12.7812 169.3 9.30892C182.903 5.84933 196.254 4.11847 209.355 4.11847C225.778 4.11847 239.32 6.30058 249.976 10.6627C260.633 15.0248 269.046 20.5415 275.215 27.2234C281.371 33.9053 285.67 41.2143 288.115 49.1759C290.547 57.1374 291.776 64.7091 291.776 71.8931C291.776 79.0898 290.672 85.6976 288.492 91.727C286.31 97.7691 283.551 103.349 280.217 108.489C276.882 113.629 273.02 118.493 268.658 123.12C264.296 127.747 260.057 132.109 255.957 136.208C252.873 139.293 249.663 142.564 246.328 146.038C242.981 149.498 239.973 153.159 237.276 157.008C234.581 160.87 232.323 164.906 230.53 169.143C228.738 173.38 227.835 177.681 227.835 182.043C227.835 183.071 227.835 184.613 227.835 186.67C227.835 188.727 227.96 190.519 228.223 192.062H177.386C176.859 189.492 176.547 186.609 176.42 183.399C176.283 180.189 176.232 177.431 176.232 175.111C176.232 167.927 177.122 161.446 178.927 155.665C180.719 149.886 183.09 144.494 186.047 139.492C188.994 134.477 192.403 129.802 196.252 125.425C200.101 121.063 204.089 116.823 208.188 112.724C214.092 106.82 219.484 100.977 224.374 95.1972C229.238 89.4178 231.683 82.81 231.683 75.3633C231.683 69.1941 229.314 63.9422 224.562 59.5674C219.813 55.2095 212.815 53.0274 203.576 53.0274Z" fill="#FBC343"/>
<path d="M242.928 249.152C242.928 258.427 239.926 265.584 233.92 270.632C227.916 275.692 221.128 278.21 213.55 278.21C205.961 278.21 199.176 275.692 193.172 270.632C187.176 265.584 184.174 258.427 184.174 249.152C184.174 239.888 187.176 232.732 193.172 227.672C202.415 219.872 216.09 218.135 226.912 223.609C236.515 228.467 242.928 238.333 242.928 249.152Z" fill="#E49B31"/>
<path d="M232.865 249.153C232.865 258.428 229.863 265.584 223.857 270.632C217.853 275.692 211.065 278.211 203.487 278.211C195.898 278.211 189.113 275.692 183.109 270.632C177.113 265.584 174.111 258.428 174.111 249.153C174.111 239.888 177.113 232.732 183.109 227.672C189.113 222.624 195.9 220.094 203.487 220.094C211.065 220.094 217.851 222.624 223.857 227.672C229.863 232.732 232.865 239.888 232.865 249.153Z" fill="#FBC343"/>
<path d="M80.5731 117.666C81.1367 114.659 79.1557 111.764 76.1483 111.201C73.141 110.637 70.2462 112.618 69.6826 115.626C69.119 118.633 71.1 121.528 74.1074 122.091C77.1147 122.655 80.0096 120.674 80.5731 117.666Z" fill="#D3DFFF"/>
<path d="M83.2219 128.076C83.5389 126.385 82.4152 124.755 80.712 124.435C79.0088 124.116 77.3711 125.229 77.054 126.921C76.737 128.612 77.8607 130.242 79.5639 130.562C81.2671 130.881 82.9048 129.768 83.2219 128.076Z" fill="#D3DFFF"/>
<path d="M76.8807 104.18C85.399 95.6621 85.399 81.8513 76.8807 73.333C68.3625 64.8147 54.5516 64.8147 46.0333 73.333C37.515 81.8513 37.5151 95.6621 46.0333 104.18C54.5516 112.699 68.3625 112.699 76.8807 104.18Z" fill="#D3DFFF"/>
<path d="M53.0822 91.5045C54.5998 91.5045 55.83 90.2743 55.83 88.7567C55.83 87.2392 54.5998 86.009 53.0822 86.009C51.5647 86.009 50.3345 87.2392 50.3345 88.7567C50.3345 90.2743 51.5647 91.5045 53.0822 91.5045Z" fill="white"/>
<path d="M61.4567 91.5045C62.9743 91.5045 64.2045 90.2743 64.2045 88.7567C64.2045 87.2392 62.9743 86.009 61.4567 86.009C59.9392 86.009 58.709 87.2392 58.709 88.7567C58.709 90.2743 59.9392 91.5045 61.4567 91.5045Z" fill="white"/>
<path d="M69.8337 91.5045C71.3512 91.5045 72.5815 90.2743 72.5815 88.7567C72.5815 87.2392 71.3512 86.009 69.8337 86.009C68.3162 86.009 67.0859 87.2392 67.0859 88.7567C67.0859 90.2743 68.3162 91.5045 69.8337 91.5045Z" fill="white"/>
<path d="M45.8306 267.291L47.8686 275.149C48.4004 277.198 50.3813 278.583 52.574 278.433C59.2559 277.98 73.1409 276.342 81.1109 270.467L78.8461 259.144C67.889 258.525 57.6437 259.135 48.769 262.12C46.5467 262.87 45.2628 265.097 45.8306 267.291Z" fill="#102048"/>
<path d="M58.6009 273.545C58.4844 273.545 58.3785 273.469 58.3467 273.353L55.6096 263.554C55.5693 263.412 55.6519 263.268 55.7939 263.228C55.9358 263.19 56.082 263.271 56.1201 263.412L58.8573 273.211C58.8976 273.353 58.8149 273.497 58.673 273.537C58.6497 273.541 58.6243 273.545 58.6009 273.545Z" fill="white"/>
<path d="M64.5162 272.221C64.3997 272.221 64.2938 272.145 64.262 272.029L61.5248 262.23C61.4846 262.088 61.5672 261.944 61.7091 261.904C61.8511 261.864 61.9973 261.946 62.0354 262.088L64.7726 271.887C64.8128 272.029 64.7302 272.173 64.5883 272.213C64.5628 272.217 64.5395 272.221 64.5162 272.221Z" fill="white"/>
<path d="M71.3847 224.819L45.9197 232.376L64.832 258.29L91.9834 260.449L129.433 244.612L115.201 223.198L71.3847 224.819Z" fill="#FBC343"/>
<path d="M102.779 228.418C158.705 211.864 167.692 261.29 80.4351 270.287C77.3526 266.819 73.7511 260.802 72.321 255.771L118.4 234.477L102.779 228.418Z" fill="#FBC343"/>
<path d="M105.156 263.84C102.54 263.004 100.034 261.349 100.034 261.349L91.0469 264.169L93.1061 273.946L102.443 275.842C105.288 270.639 105.453 266.368 105.156 263.84Z" fill="#F9B384"/>
<path d="M72.5201 256.114L72.1218 255.428C81.7358 249.841 106.358 236.42 127.338 232.46L127.486 233.242C106.627 237.176 82.0981 250.546 72.5201 256.114Z" fill="#E49B31"/>
<path d="M71.3846 224.819C19.3297 214.921 5.84719 264.948 93.1062 273.946C96.1887 270.478 98.6038 266.381 100.034 261.349C86.6297 252.381 71.6431 243.856 55.2201 235.736L71.3846 224.819Z" fill="#FBC343"/>
<path d="M99.8199 261.684C97.3433 260.107 94.7629 258.442 92.0321 256.678C78.3187 247.824 62.777 237.789 49.572 232.066L49.8877 231.338C63.1519 237.085 78.7233 247.14 92.4621 256.01C95.1929 257.773 97.7712 259.438 100.246 261.014L99.8199 261.684Z" fill="#E49B31"/>
<path d="M33.1937 249.623L32.4988 249.239C34.4521 245.701 37.5833 243.316 41.8013 242.149L42.0132 242.913C37.9498 244.038 35.0665 246.233 33.1937 249.623Z" fill="#E49B31"/>
<path d="M141.839 246.61C139.967 243.22 137.081 241.026 133.02 239.901L133.232 239.136C137.45 240.303 140.581 242.691 142.534 246.227L141.839 246.61Z" fill="#E49B31"/>
<path d="M88.2314 273.505L87.6509 272.963C91.816 268.503 94.373 263.796 95.4705 258.569L96.248 258.733C95.1188 264.105 92.4981 268.938 88.2314 273.505Z" fill="#E49B31"/>
<path d="M131.117 260.929C124.448 256.809 111.518 263.929 108.273 264.29C107.326 264.395 106.232 264.188 105.156 263.843C105.453 266.37 105.288 270.641 102.442 275.844L104.029 276.166C104.029 276.166 114.993 280.185 126.624 277.846C137.358 275.685 136.36 264.167 131.117 260.929Z" fill="#102048"/>
<path d="M122.027 274.406C122.001 274.406 121.974 274.401 121.946 274.393C121.806 274.348 121.73 274.2 121.773 274.06C122.565 271.552 122.91 266.616 120.616 263.3C120.533 263.179 120.563 263.014 120.684 262.932C120.804 262.849 120.97 262.879 121.052 262.999C123.455 266.472 123.103 271.611 122.279 274.219C122.243 274.334 122.139 274.406 122.027 274.406Z" fill="white"/>
<path d="M116.796 275.399C116.77 275.399 116.743 275.395 116.715 275.387C116.575 275.342 116.499 275.194 116.542 275.054C117.334 272.546 117.679 267.609 115.385 264.294C115.302 264.173 115.332 264.008 115.453 263.925C115.573 263.843 115.739 263.872 115.821 263.993C118.224 267.465 117.872 272.605 117.048 275.213C117.012 275.327 116.908 275.399 116.796 275.399Z" fill="white"/>
<path d="M62.1753 160.317C62.1753 160.317 75.2849 149.169 74.7998 147.051C74.4524 145.536 70.7385 147.756 70.7385 147.756C70.7385 147.756 75.9459 141.577 75.6811 140.827C75.2087 139.486 71.605 141.985 71.605 141.985C71.605 141.985 74.0392 138.481 72.8761 137.909C71.7131 137.337 69.175 139.498 69.175 139.498C69.175 139.498 70.658 137.553 69.961 137.043C69.264 136.532 66.2599 138.632 66.2599 138.632C66.2599 138.632 67.3383 136.179 65.0481 137.109C62.7579 138.039 46.6951 152.78 46.6951 152.78L62.1753 160.317Z" fill="#F9B384"/>
<path d="M67.5393 147.093C67.4758 147.093 67.4122 147.07 67.3614 147.023C65.1115 144.966 64.1179 144.468 61.637 143.704C61.4972 143.661 61.4188 143.513 61.4612 143.373C61.5036 143.233 61.6519 143.155 61.7917 143.197C64.3636 143.987 65.3911 144.504 67.7194 146.631C67.8275 146.731 67.8359 146.898 67.7364 147.006C67.6834 147.066 67.6114 147.093 67.5393 147.093Z" fill="#E28B6D"/>
<path d="M63.5904 153.142C63.5777 153.142 63.565 153.142 63.5544 153.14C63.4104 153.118 63.3087 152.985 63.3277 152.841C63.5862 150.998 64.1667 149.845 65.101 149.32C65.9018 148.871 66.942 148.915 68.1962 149.458C68.3296 149.515 68.3932 149.672 68.3339 149.805C68.2767 149.938 68.1199 150.002 67.9864 149.943C66.8933 149.47 66.0098 149.415 65.3615 149.782C64.5904 150.216 64.0819 151.269 63.8531 152.915C63.8341 153.044 63.7197 153.142 63.5904 153.142Z" fill="#E28B6D"/>
<path d="M62.9717 141.996C62.9018 141.996 62.8319 141.968 62.7789 141.913C62.6793 141.807 62.6836 141.64 62.7895 141.538L66.0796 138.439C66.1855 138.337 66.3529 138.344 66.4546 138.45C66.5542 138.555 66.5499 138.723 66.444 138.825L63.1539 141.924C63.1009 141.973 63.0374 141.996 62.9717 141.996Z" fill="#E28B6D"/>
<path d="M66.0159 143.055C65.9502 143.055 65.8846 143.03 65.8316 142.981C65.7257 142.879 65.7236 142.712 65.8231 142.606L68.984 139.314C69.0857 139.208 69.2531 139.204 69.359 139.305C69.4649 139.407 69.467 139.574 69.3675 139.68L66.2066 142.973C66.1557 143.028 66.0858 143.055 66.0159 143.055Z" fill="#E28B6D"/>
<path d="M69.1284 144.909C69.0627 144.909 68.9992 144.886 68.9483 144.837C68.8424 144.737 68.836 144.57 68.9356 144.462L71.4143 141.803C71.5139 141.697 71.6813 141.691 71.7893 141.79C71.8952 141.89 71.9016 142.057 71.802 142.165L69.3233 144.824C69.2703 144.881 69.2004 144.909 69.1284 144.909Z" fill="#E28B6D"/>
<path d="M111.698 234.88L63.7661 236.734L58.4697 193.038C58.4697 193.038 74.5156 177.819 80.6891 172.213L91.1124 171.679C123.448 186.378 118.154 204.735 111.698 234.88Z" fill="#3A6BEA"/>
<path d="M91.1128 171.679C91.1128 171.679 128.107 174.842 139.77 200.188C151.182 224.99 104.284 233.82 104.284 233.82L91.1128 171.679Z" fill="#3A6BEA"/>
<path d="M48.8242 177.111L64.1116 158.508L49.8156 149.845C43.8519 153.991 32.3206 163.383 22.5477 174.018C20.3911 176.365 18.7047 179.107 17.8573 182.126C17.1327 184.702 17.0014 187.246 17.4081 189.738C18.4695 196.233 23.5774 201.244 30.397 202.042C36.2209 202.724 58.4678 200.983 76.4755 195.687L81.7719 175.245C79.0517 173.7 58.8237 173.433 48.8242 177.111Z" fill="#3A6BEA"/>
<g opacity="0.8">
<path d="M121.984 181.738C122.064 181.719 122.143 181.702 122.223 181.683C122.056 181.583 121.888 181.488 121.721 181.39C119.009 182.015 116.213 182.653 113.454 182.986C111.798 183.185 106.26 183.551 104.643 179.863C103.838 178.028 104.448 175.986 105.357 174.554C105.224 174.516 105.093 174.478 104.961 174.44C104.029 175.956 103.429 178.086 104.279 180.022C106.006 183.962 111.777 183.59 113.503 183.38C116.34 183.037 119.211 182.378 121.984 181.738Z" fill="white"/>
<path d="M139.25 210.324C137.483 209.641 135.657 208.934 133.738 209.116C130.371 209.434 127.49 212.764 127.314 216.537C127.196 219.111 128.179 221.808 130.051 224.179C130.164 224.109 130.276 224.037 130.388 223.965C128.556 221.66 127.594 219.044 127.71 216.554C127.876 212.97 130.596 209.809 133.774 209.51C135.598 209.341 137.303 209.995 139.106 210.692C139.75 210.94 140.405 211.192 141.07 211.404C141.104 211.277 141.138 211.148 141.168 211.018C140.519 210.813 139.879 210.567 139.25 210.324Z" fill="white"/>
<path d="M45.8748 197.691C43.5656 195.78 39.9767 195.269 36.0299 196.29C32.5131 197.199 29.4963 199.002 27.4243 201.385C27.5599 201.43 27.6934 201.479 27.8311 201.519C29.8479 199.256 32.7525 197.547 36.1295 196.674C39.9492 195.684 43.4109 196.167 45.6206 197.996C46.6714 198.864 47.415 199.993 47.9552 201.21C48.0908 201.195 48.2285 201.178 48.3662 201.163C47.8006 199.854 47.0125 198.631 45.8748 197.691Z" fill="white"/>
<path d="M24.9946 171.419C29.3228 170.342 33.5451 168.832 37.4411 166.588C38.9135 165.741 40.5745 164.66 41.7439 163.074C42.9875 161.385 43.4006 159.375 42.8498 157.697C42.6337 157.038 42.2502 156.459 41.7715 155.998C41.6698 156.08 41.5681 156.165 41.4664 156.248C41.9134 156.673 42.2714 157.209 42.4727 157.822C42.9833 159.379 42.5934 161.254 41.4261 162.838C40.3012 164.366 38.6805 165.419 37.2441 166.245C33.5705 168.361 29.5961 169.825 25.5137 170.883C25.34 171.06 25.1684 171.241 24.9946 171.419Z" fill="white"/>
</g>
<path d="M94.4981 161.966L94.4918 162.643L94.3837 173.179L94.371 174.321C94.3498 176.107 93.6189 177.725 92.4368 178.901C91.261 180.069 89.6424 180.802 87.8501 180.814C84.238 180.835 81.2826 177.933 81.2487 174.315L81.1216 161.294L94.4981 161.966Z" fill="#F9B384"/>
<path d="M94.4918 162.643L94.3838 173.179C88.5281 170.796 86.1172 164.457 86.1172 164.457L94.4918 162.643Z" fill="#102048"/>
<path d="M96.8074 144.259C98.9047 146.778 105.034 161.046 98.8221 165.915C91.833 171.393 81.1957 162.389 81.1957 162.389L79.7678 145.769L89.0005 143.335L96.8074 144.259Z" fill="#F9B384"/>
<path d="M75.0644 143.343C75.0644 143.343 54.5843 154.025 71.2828 184.814C73.4267 188.769 78.1786 190.494 82.242 188.566C86.602 186.496 88.2524 181.17 85.8838 176.965C83.153 172.113 80.5154 165.864 81.6425 161.216L75.0644 143.343Z" fill="#102048"/>
<path d="M80.9146 152.315C83.0781 150.152 83.0781 146.644 80.9146 144.481C78.7511 142.317 75.2434 142.317 73.0799 144.481C70.9165 146.644 70.9164 150.152 73.0799 152.315C75.2434 154.479 78.7511 154.479 80.9146 152.315Z" fill="#FBC343"/>
<path d="M83.8143 155.055C83.2147 151.599 82.8503 149.229 86.3438 147.447C86.3438 147.447 98.6547 149.686 101.004 145.04C103.354 140.396 99.7733 133.066 92.2758 138.157C73.0817 134.407 70.5076 152.371 76.3273 158.358L82.0707 157.476C83.2274 157.3 84.0134 156.207 83.8143 155.055Z" fill="#102048"/>
<path d="M93.3456 155.883C93.7972 155.883 94.1634 155.517 94.1634 155.065C94.1634 154.614 93.7972 154.248 93.3456 154.248C92.894 154.248 92.5278 154.614 92.5278 155.065C92.5278 155.517 92.894 155.883 93.3456 155.883Z" fill="#102048"/>
<path d="M98.8854 153.154C99.337 153.154 99.7032 152.788 99.7032 152.337C99.7032 151.885 99.337 151.519 98.8854 151.519C98.4338 151.519 98.0676 151.885 98.0676 152.337C98.0676 152.788 98.4338 153.154 98.8854 153.154Z" fill="#102048"/>
<path d="M98.318 157.584C98.2608 157.584 98.2036 157.563 98.1591 157.521C98.0659 157.432 98.0616 157.286 98.1506 157.192C98.479 156.847 98.8391 156.362 98.6866 156.008C98.5298 155.642 97.8667 155.485 97.5616 155.485C96.9091 155.485 96.5956 154.324 96.5384 154.091C96.5087 153.966 96.585 153.841 96.71 153.811C96.835 153.779 96.96 153.858 96.9896 153.983C97.1083 154.474 97.3794 155.023 97.5616 155.023C97.8752 155.023 98.8307 155.171 99.1124 155.828C99.3137 156.296 99.1039 156.864 98.4853 157.514C98.4408 157.559 98.3794 157.584 98.318 157.584Z" fill="#102048"/>
<path d="M98.3603 160.688C98.3158 160.688 98.2713 160.675 98.231 160.648C96.6909 159.608 95.1337 160.48 95.1189 160.489C95.0087 160.552 94.8668 160.514 94.8032 160.404C94.7397 160.294 94.7778 160.152 94.888 160.088C94.9621 160.046 96.712 159.065 98.4916 160.264C98.5976 160.336 98.6251 160.48 98.5531 160.586C98.5086 160.654 98.4344 160.688 98.3603 160.688Z" fill="#102048"/>
<path d="M92.9875 151.521C93.4536 152.398 92.6422 152.574 91.691 153.078C90.7398 153.582 89.7673 153.769 89.5449 153.349C89.3224 152.932 89.9135 152.184 90.8648 151.678C91.816 151.171 92.6274 150.841 92.9875 151.521Z" fill="#102048"/>
<path d="M96.4536 149.938C96.6591 150.72 97.2417 150.379 98.0892 150.157C98.9366 149.934 99.623 149.508 99.5255 149.136C99.4281 148.763 98.6612 148.64 97.8116 148.862C96.9642 149.083 96.2948 149.333 96.4536 149.938Z" fill="#102048"/>
<path opacity="0.4" d="M91.2092 160.657C92.1889 159.753 92.2506 158.227 91.347 157.247C90.4434 156.267 88.9168 156.206 87.9371 157.109C86.9575 158.013 86.8958 159.539 87.7994 160.519C88.7029 161.499 90.2296 161.56 91.2092 160.657Z" fill="#EB5D60"/>
<path d="M83.3438 161.153C84.4467 159.723 84.0244 157.549 82.4005 156.296C80.7767 155.043 78.5662 155.186 77.4633 156.615C76.3604 158.044 76.7827 160.219 78.4065 161.472C80.0304 162.725 82.2409 162.582 83.3438 161.153Z" fill="#F9B384"/>
<path d="M81.8397 160.103C81.7126 160.103 81.6088 159.999 81.6088 159.872C81.6088 159.188 81.2762 158.557 80.7169 158.18C80.2402 157.858 79.6703 157.783 79.1936 157.976C79.075 158.023 78.9394 157.968 78.8907 157.849C78.842 157.73 78.8992 157.595 79.0178 157.546C79.6364 157.294 80.3673 157.385 80.9732 157.794C81.6596 158.256 82.0706 159.031 82.0706 159.87C82.0728 159.999 81.9689 160.103 81.8397 160.103Z" fill="#102048"/>
<path d="M48.6271 176.926L40.2661 185.971L40.655 186.33L49.016 177.286L48.6271 176.926Z" fill="#102048"/>
<path d="M107.538 215.802L107.383 215.296C113.47 213.44 119.378 211.222 124.732 204.525L125.145 204.856C119.698 211.671 113.709 213.923 107.538 215.802Z" fill="#102048"/>
<path d="M111.239 195.292H59.4572C57.595 195.292 56.0845 196.926 56.0845 198.941V235.912C56.0845 237.926 57.595 239.56 59.4572 239.56H111.239C113.101 239.56 114.612 237.926 114.612 235.912V198.941C114.612 196.926 113.101 195.292 111.239 195.292Z" fill="#D3DFFF"/>
<path d="M88.0831 215.088C88.2802 215.088 88.4391 215.26 88.4391 215.474V219.376C88.4391 219.588 88.2802 219.762 88.0831 219.762H82.6151C82.4181 219.762 82.2592 219.59 82.2592 219.376V215.474C82.2592 215.262 82.4181 215.088 82.6151 215.088H88.0831ZM88.0831 214.029H82.6151C81.8355 214.029 81.2 214.677 81.2 215.474V219.376C81.2 220.173 81.8355 220.821 82.6151 220.821H88.0831C88.8628 220.821 89.4983 220.173 89.4983 219.376V215.474C89.4983 214.677 88.8628 214.029 88.0831 214.029Z" fill="#1F3C88"/>
<path d="M312.207 277.78H0V278.84H312.207V277.78Z" fill="#102048"/>
</svg>
