<svg width="220" height="193" viewBox="0 0 220 193" fill="none" xmlns="http://www.w3.org/2000/svg">
<g opacity="0.2">
<path d="M46.0508 53.2701L45.658 54.4423L68.7365 62.1773L69.1293 61.0052L46.0508 53.2701Z" fill="white"/>
<path d="M62.312 36.1626L45.3992 53.4308L46.2779 54.2914L63.1907 37.0233L62.312 36.1626Z" fill="white"/>
<path d="M63.3684 36.4312L62.1682 36.7271L68.3341 61.7333L69.5343 61.4373L63.3684 36.4312Z" fill="white"/>
<path d="M90.0896 41.2252L68.5064 61.1376L69.3447 62.0462L90.9279 42.1338L90.0896 41.2252Z" fill="white"/>
<path d="M68.6192 37.91C68.4452 41.4261 65.451 44.1346 61.9349 43.9606C58.4188 43.7867 55.7103 40.7924 55.8842 37.2764C56.0582 33.7603 59.0524 31.0518 62.5685 31.2257C66.0846 31.3996 68.7931 34.3939 68.6192 37.91Z" fill="#FFB800"/>
<path d="M51.399 53.0676C51.2686 55.7016 49.026 57.733 46.392 57.6025C43.7581 57.4721 41.7267 55.2295 41.8571 52.5955C41.9876 49.9616 44.2302 47.9302 46.8642 48.0606C49.4981 48.1849 51.5295 50.4275 51.399 53.0676Z" fill="#005DB1"/>
<path d="M74.2474 61.131C74.1045 63.9576 71.7004 66.138 68.8738 65.9951C66.0473 65.8523 63.8668 63.4482 64.0097 60.6216C64.1526 57.7951 66.5567 55.6146 69.3832 55.7575C72.2098 55.9004 74.384 58.3045 74.2474 61.131Z" fill="#FF2C6E"/>
<path d="M95.4744 41.4882C95.344 44.116 93.1076 46.1411 90.4798 46.0107C87.8521 45.8802 85.8269 43.6438 85.9574 41.0161C86.0878 38.3883 88.3242 36.3632 90.952 36.4936C93.5797 36.6241 95.6049 38.8605 95.4744 41.4882Z" fill="#00A7FF"/>
<path d="M11.8786 31.4262L4.85052 35.3781L14.7941 53.0619L21.8222 49.11L11.8786 31.4262Z" fill="#404F7F"/>
<path d="M10.908 33.549C11.5852 34.6734 12.2188 35.8165 12.8152 36.9844C14.4676 39.7363 16.294 42.42 17.847 45.1099C18.754 46.6816 19.6548 48.2594 20.5555 49.8311L21.829 49.1167L11.8833 31.4369L10.3179 32.319C10.5042 32.729 10.703 33.139 10.908 33.549Z" fill="#6E81AF"/>
<path d="M6.70859 34.3442L4.85736 35.3879L14.803 53.0739L16.7537 51.9744C13.6414 45.9548 10.4359 39.9911 6.70859 34.3442Z" fill="#3C373D"/>
<path d="M12.5853 55.0556L39.6393 102.802L51.722 96.0063L24.668 48.2595L12.5853 55.0556Z" fill="#004A8B"/>
<path d="M17.4619 52.3098L12.5853 55.0556L39.6393 102.802L44.9135 99.8329L17.4619 52.3098Z" fill="#003666"/>
<path d="M7.99451 53.4031L11.5106 59.137L28.9171 49.3466L25.401 43.619L7.99451 53.4031Z" fill="#FFD118"/>
<path d="M10.6409 52.9496C14.4987 50.8934 18.3751 48.8869 22.2701 46.9114C23.5747 46.2467 24.8295 45.4826 26.0968 44.7682L25.3948 43.6252L7.98834 53.4156L8.43562 54.1424C9.17487 53.7386 9.9079 53.341 10.6409 52.9496Z" fill="#FF9E18"/>
<path d="M21.5681 49.6821C17.9775 51.5209 14.3931 53.3721 10.8397 55.2854C10.4173 55.5153 9.99486 55.7451 9.56622 55.975L10.1005 56.8447C15.9958 53.7386 21.7856 50.4648 27.333 46.7748L27.1777 46.5201C25.2768 47.5389 23.4256 48.7316 21.5681 49.6821Z" fill="#FF9E18"/>
<path d="M11.2311 58.6835L11.5106 59.137L28.9171 49.3466L28.4636 48.6074C22.9162 52.3036 17.1264 55.5774 11.2311 58.6835Z" fill="#FF9E18"/>
<path d="M14.8279 32.7044L4.42657 38.5543L6.79879 42.7722L17.2001 36.9223L14.8279 32.7044Z" fill="#F9F6F4"/>
<path d="M7.26151 37.5994C9.83335 36.1644 12.4362 34.5989 15.1137 33.2322L14.8217 32.7104L4.42255 38.556L4.70209 39.053C5.55316 38.5685 6.40423 38.0777 7.26151 37.5994Z" fill="#DDE3E9"/>
<path d="M7.47895 39.9476C6.90122 40.2706 6.3297 40.6061 5.75818 40.9353L6.7894 42.7741L17.1886 36.9285L16.1511 35.0834C13.1755 36.5806 10.2931 38.3572 7.47895 39.9476Z" fill="#DDE3E9"/>
<path d="M53.1181 91.1769L46.5936 94.8456L54.336 108.615L60.8605 104.946L53.1181 91.1769Z" fill="#F9F6F4"/>
<path d="M53.0639 105.002C55.0269 103.84 56.9589 102.628 58.9779 101.591L53.126 91.1857L46.6032 94.8571L52.4986 105.337C52.6849 105.219 52.8775 105.113 53.0639 105.002Z" fill="#DDE3E9"/>
<path d="M41.7306 97.6799L35.2061 101.349L42.9485 115.118L49.473 111.449L41.7306 97.6799Z" fill="#F9F6F4"/>
<path d="M47.1126 107.25L41.7391 97.6898L35.2163 101.361L40.6333 110.99C42.7517 109.667 44.8887 108.381 47.1126 107.25Z" fill="#DDE3E9"/>
<path d="M52.1161 83.5601L28.7903 96.6761L36.5327 110.445L59.8585 97.3292L52.1161 83.5601Z" fill="white"/>
<path d="M53.3869 85.7996L52.132 83.5695L28.8053 96.6896L30.1347 99.0502C37.8626 94.6085 45.7273 90.3718 53.3869 85.7996Z" fill="#DDE3E9"/>
<path d="M55.1884 89.0051L54.4429 87.6757C46.7895 92.254 38.9249 96.4907 31.1846 100.92L32.0481 102.454C39.7884 98.0251 47.5226 93.5772 55.1884 89.0051Z" fill="#DDE3E9"/>
<path d="M35.7443 109.039L36.5456 110.462L59.8723 97.3418L58.8535 95.5341C50.9641 99.6962 43.3542 104.362 35.7443 109.039Z" fill="#004A8B"/>
<path d="M61.7547 165.527C50.4361 168.123 38.2043 165.452 28.4388 159.172C18.6733 152.897 11.3119 143.225 6.90122 132.484C1.88179 120.252 0.571019 106.474 3.51559 93.5835C5.96939 82.824 11.4113 72.7417 19.1143 64.8584C21.6613 62.2555 25.8049 62.1127 28.5009 64.554C28.5817 64.6224 28.6562 64.6969 28.737 64.7653C31.5138 67.2812 31.6754 71.5427 29.1781 74.332C18.5739 86.16 14.7037 103.939 20.0586 118.979C26.1776 136.168 43.8947 148.518 62.1398 148.313L61.7547 165.527Z" fill="#0089E6"/>
<path d="M20.0586 118.991C14.7037 103.952 18.5677 86.1723 29.1781 74.3444C30.3273 73.0647 30.9051 71.4681 30.9361 69.8778C16.0704 84.7746 10.523 108.667 19.5927 128.309C24.4382 138.541 35.2039 145.536 45.4353 150.922C50.6971 153.68 56.2818 155.519 61.9659 156.5L62.1461 148.331C43.8947 148.53 26.1776 136.18 20.0586 118.991Z" fill="#005DB1"/>
<path d="M5.65881 187.288C5.65881 183.443 8.72763 180.324 12.573 180.225C17.7663 180.094 22.9286 178.634 27.3766 175.938C34.3156 171.733 39.4095 164.589 41.1117 156.656C47.6469 155.73 52.1445 153.612 58.6797 152.686C56.8657 160.638 60.9161 169.155 67.327 174.193C71.1724 177.218 75.7259 179.138 80.5092 180.25C85.2802 181.355 88.6223 185.667 88.6223 190.568V195.817H5.65881V187.288Z" fill="#005DB1"/>
<path d="M0.272888 187.288C0.272888 183.443 3.3417 180.324 7.18703 180.225C12.3804 180.094 17.5427 178.634 21.9906 175.938C28.9296 171.733 34.0236 164.589 35.7257 156.656C42.2609 155.73 46.7586 153.612 53.2938 152.686C51.4798 160.638 55.5301 169.155 61.9411 174.193C65.7864 177.218 70.34 179.138 75.1233 180.25C79.8943 181.355 83.2364 185.667 83.2364 190.568V195.817H0.272888V187.288Z" fill="#004A8B"/>
<path d="M42.5219 185.785C49.4422 182.231 56.375 178.703 63.314 175.187C62.8481 174.87 62.3884 174.541 61.9411 174.193C55.5302 169.155 51.4798 160.632 53.2938 152.686C46.7586 153.612 42.261 155.73 35.7257 156.656C34.3653 162.98 30.8492 168.801 25.9664 173.031C28.4637 178.746 30.9921 184.449 33.5018 190.158C36.5023 188.686 39.509 187.232 42.5219 185.785Z" fill="#003A6A"/>
<path d="M79.6431 130.329L51.2765 144.52L53.461 148.887L81.8276 134.696L79.6431 130.329Z" fill="#004A8B"/>
<path d="M52.4489 146.847L53.4677 148.884L81.8387 134.689L80.6584 132.335C71.3836 137.417 61.9163 142.132 52.4489 146.847Z" fill="#003666"/>
<path d="M78.3744 136.291L25.9301 162.528L34.5876 179.834L87.032 153.597L78.3744 136.291Z" fill="#F9F6F4"/>
<path d="M28.4016 167.446L29.4887 169.627C29.8987 169.403 30.3087 169.173 30.7188 168.95C47.4854 159.855 64.7739 151.717 81.7269 142.977L79.4346 138.398C62.2145 147.698 45.2242 157.426 28.4016 167.446Z" fill="#DDE3E9"/>
<path d="M19.7604 67.8403C19.7604 69.648 21.2265 71.1141 23.0342 71.1141C24.842 71.1141 26.3081 69.648 26.3081 67.8403C26.3081 66.0325 24.842 64.5665 23.0342 64.5665C21.2265 64.5665 19.7604 66.0325 19.7604 67.8403Z" fill="#F9F6F4"/>
<path d="M49.2868 183.629C49.2868 185.685 47.622 187.35 45.5658 187.35C43.5095 187.35 41.8447 185.685 41.8447 183.629C41.8447 181.573 43.5095 179.908 45.5658 179.908C47.622 179.902 49.2868 181.566 49.2868 183.629Z" fill="#EDEAE8"/>
<path d="M37.6205 150.922C37.6205 152.108 36.6576 153.077 35.4648 153.077C34.2783 153.077 33.3092 152.115 33.3092 150.922C33.3092 149.735 34.2721 148.766 35.4648 148.766C36.6576 148.766 37.6205 149.735 37.6205 150.922Z" fill="#EDEAE8"/>
<path d="M126.989 170.08C131.735 165.527 136.4 158.718 140.115 150.909C143.836 143.101 146.184 135.193 146.731 128.639C147.315 121.607 145.718 116.817 142.24 115.158C138.755 113.5 134.033 115.276 128.939 120.165C124.193 124.719 119.528 131.527 115.813 139.336C112.092 147.145 109.744 155.053 109.197 161.607C108.613 168.639 110.203 173.429 113.688 175.087C116.652 176.497 120.516 175.423 124.746 172.049C125.485 171.465 126.231 170.807 126.989 170.08ZM140.979 117.805C143.252 118.886 144.283 122.75 143.811 128.396C143.296 134.609 141.041 142.156 137.475 149.655C133.903 157.153 129.461 163.657 124.964 167.968C120.87 171.894 117.223 173.528 114.95 172.441C110.452 170.298 110.787 156.693 118.453 140.591C122.025 133.093 126.467 126.589 130.964 122.277C131.673 121.594 132.375 120.985 133.052 120.439C136.288 117.867 139.102 116.91 140.979 117.805Z" fill="#006FF9"/>
<path d="M149.974 156.929C147.955 150.667 143.88 143.492 138.487 136.733C133.095 129.968 127.014 124.396 121.361 121.035C115.291 117.426 110.29 116.767 107.271 119.172C104.252 121.576 103.786 126.601 105.948 133.317C107.967 139.578 112.042 146.754 117.434 153.512C122.827 160.271 128.908 165.85 134.561 169.211C140.631 172.82 145.631 173.478 148.651 171.074C151.67 168.676 152.142 163.651 149.974 156.929ZM136.201 138.56C147.315 152.506 150.725 165.682 146.824 168.788C142.929 171.894 130.84 165.632 119.727 151.686C108.613 137.74 105.203 124.564 109.104 121.458C112.999 118.351 125.088 124.613 136.201 138.56Z" fill="white"/>
<path d="M160.361 137.895C159.522 134.13 155.211 131.509 148.222 130.509C141.712 129.577 133.474 130.105 125.038 131.987C116.596 133.869 108.924 136.901 103.426 140.51C97.5244 144.387 94.7414 148.592 95.58 152.357C96.4187 156.121 100.73 158.743 107.719 159.743C114.229 160.675 122.466 160.147 130.909 158.265C139.351 156.382 147.023 153.357 152.521 149.741C153.397 149.164 154.204 148.586 154.944 147.996C159.162 144.623 161.075 141.1 160.361 137.895ZM105.029 142.958C110.241 139.535 117.571 136.652 125.672 134.845C133.772 133.037 141.637 132.527 147.806 133.403C153.422 134.205 156.956 136.075 157.503 138.528C158.05 140.982 155.646 144.175 150.906 147.288C145.694 150.711 138.363 153.593 130.263 155.401C112.856 159.29 99.5185 156.575 98.4314 151.717C97.9779 149.686 99.5434 147.157 102.774 144.579C103.451 144.039 104.203 143.498 105.029 142.958Z" fill="#FF2C6E"/>
<path d="M133.661 140.587C136.164 143.731 135.649 148.309 132.505 150.813C129.362 153.316 124.784 152.801 122.28 149.657C119.777 146.514 120.292 141.936 123.435 139.432C126.579 136.928 131.157 137.444 133.661 140.587Z" fill="#00336B"/>
<path d="M108.874 124.141C110.346 125.986 110.042 128.676 108.197 130.148C106.352 131.621 103.662 131.316 102.19 129.471C100.717 127.626 101.022 124.936 102.867 123.464C104.712 121.992 107.402 122.296 108.874 124.141Z" fill="#00336B"/>
<path d="M158.963 132.049C160.435 133.894 160.131 136.584 158.286 138.056C156.441 139.529 153.751 139.224 152.278 137.379C150.806 135.534 151.111 132.844 152.956 131.372C154.801 129.9 157.491 130.204 158.963 132.049Z" fill="#00336B"/>
<path d="M114.018 161.712C115.49 163.557 115.186 166.247 113.341 167.719C111.496 169.192 108.806 168.887 107.333 167.042C105.861 165.197 106.166 162.508 108.011 161.035C109.856 159.563 112.545 159.867 114.018 161.712Z" fill="#00336B"/>
<path d="M85.8517 84.5199C71.5513 86.4519 73.9679 106.592 86.5413 106.567C103.513 106.53 100.804 82.973 85.8517 84.5199Z" fill="#F0A200"/>
<path d="M83.7271 80.7926C83.7333 82.9793 84.0874 85.1908 84.6527 87.303C84.9261 88.3093 86.4853 87.8807 86.212 86.8743C85.6778 84.8926 85.3485 82.8488 85.3423 80.7926C85.3423 79.7552 83.7209 79.749 83.7271 80.7926Z" fill="#F0A200"/>
<path d="M88.4298 104.747C88.9516 106.697 88.9889 108.735 89.5107 110.679C89.6225 111.102 90.0884 111.363 90.5047 111.245C90.9271 111.127 91.1818 110.673 91.07 110.251C90.5481 108.3 90.5109 106.262 89.989 104.318C89.8772 103.896 89.4113 103.635 88.9951 103.753C88.5727 103.871 88.318 104.324 88.4298 104.747Z" fill="#F0A200"/>
<path d="M72.3589 99.659C73.2783 99.0874 74.3157 98.9383 75.3718 98.8824C76.5272 98.8265 77.6765 98.8452 78.8195 98.6588C79.2544 98.5905 79.4904 98.05 79.3848 97.6649C79.2606 97.2051 78.8195 97.0312 78.3909 97.0995C77.3286 97.2673 76.1545 97.2051 75.0487 97.2859C73.8187 97.3729 72.6011 97.6027 71.5389 98.2612C70.6567 98.8079 71.4705 100.206 72.3589 99.659Z" fill="#F0A200"/>
<path d="M95.6856 94.9128C97.953 94.7203 100.183 94.2233 102.376 93.6269C103.382 93.3536 102.954 91.7943 101.947 92.0677C99.8975 92.6268 97.8102 93.1175 95.6918 93.2977C95.257 93.3349 94.8842 93.6455 94.8842 94.1052C94.878 94.509 95.2508 94.9501 95.6856 94.9128Z" fill="#F0A200"/>
<path d="M73.1727 86.222C75.086 87.7564 76.8379 89.5145 78.9127 90.8439C79.2793 91.0799 79.8073 90.9184 80.0185 90.5519C80.2483 90.1605 80.0993 89.6822 79.7265 89.4461C77.7759 88.1975 76.1297 86.5326 74.3157 85.079C73.9741 84.8057 73.5019 84.7435 73.1727 85.079C72.8931 85.3585 72.831 85.9487 73.1727 86.222Z" fill="#F0A200"/>
<path d="M93.8281 81.656C93.4492 84.0166 92.2005 86.1785 90.8525 88.1167C90.604 88.477 90.7842 89.0174 91.1445 89.2224C91.5483 89.4585 92.0018 89.2908 92.2502 88.9305C93.6728 86.8929 94.9898 84.5695 95.3874 82.0847C95.4557 81.656 95.2756 81.215 94.8221 81.0907C94.4369 80.9851 93.8965 81.2212 93.8281 81.656Z" fill="#F0A200"/>
<path d="M81.0559 102.877C80.5465 105.032 79.534 106.977 78.6208 108.977C78.4406 109.375 78.509 109.847 78.9127 110.083C79.2606 110.288 79.8384 110.195 80.0185 109.791C80.9876 107.666 82.081 105.592 82.6152 103.305C82.7146 102.883 82.4847 102.43 82.0499 102.311C81.6461 102.2 81.1616 102.454 81.0559 102.877Z" fill="#F0A200"/>
<path d="M94.9153 101.815C96.6671 103.038 98.3755 104.237 99.9658 105.647C100.295 105.939 100.786 105.97 101.109 105.647C101.401 105.349 101.438 104.796 101.109 104.504C99.4191 103.007 97.5741 101.715 95.7291 100.423C95.3812 100.181 94.8159 100.348 94.6233 100.715C94.4059 101.119 94.5488 101.554 94.9153 101.815Z" fill="#F0A200"/>
<path d="M84.6529 81.7617C86.0321 81.7617 87.1502 80.6436 87.1502 79.2644C87.1502 77.8852 86.0321 76.7671 84.6529 76.7671C83.2736 76.7671 82.1556 77.8852 82.1556 79.2644C82.1556 80.6436 83.2736 81.7617 84.6529 81.7617Z" fill="#F0A200"/>
<path d="M73.123 87.3464C74.5022 87.3464 75.6203 86.2283 75.6203 84.8491C75.6203 83.4699 74.5022 82.3518 73.123 82.3518C71.7438 82.3518 70.6257 83.4699 70.6257 84.8491C70.6257 86.2283 71.7438 87.3464 73.123 87.3464Z" fill="#F0A200"/>
<path d="M71.16 101.815C72.5392 101.815 73.6573 100.696 73.6573 99.3173C73.6573 97.938 72.5392 96.8199 71.16 96.8199C69.7808 96.8199 68.6627 97.938 68.6627 99.3173C68.6627 100.696 69.7808 101.815 71.16 101.815Z" fill="#F0A200"/>
<path d="M78.8879 112.897C80.2671 112.897 81.3852 111.779 81.3852 110.4C81.3852 109.021 80.2671 107.902 78.8879 107.902C77.5087 107.902 76.3906 109.021 76.3906 110.4C76.3906 111.779 77.5087 112.897 78.8879 112.897Z" fill="#F0A200"/>
<path d="M90.4177 113.879C91.7969 113.879 92.915 112.761 92.915 111.381C92.915 110.002 91.7969 108.884 90.4177 108.884C89.0385 108.884 87.9204 110.002 87.9204 111.381C87.9204 112.761 89.0385 113.879 90.4177 113.879Z" fill="#F0A200"/>
<path d="M101.407 108.735C102.786 108.735 103.904 107.617 103.904 106.238C103.904 104.858 102.786 103.74 101.407 103.74C100.028 103.74 98.9097 104.858 98.9097 106.238C98.9097 107.617 100.028 108.735 101.407 108.735Z" fill="#F0A200"/>
<path d="M103.898 94.8879C105.277 94.8879 106.395 93.7698 106.395 92.3906C106.395 91.0114 105.277 89.8933 103.898 89.8933C102.519 89.8933 101.401 91.0114 101.401 92.3906C101.401 93.7698 102.519 94.8879 103.898 94.8879Z" fill="#F0A200"/>
<path d="M95.1203 82.7557C96.4996 82.7557 97.6176 81.6376 97.6176 80.2584C97.6176 78.8792 96.4996 77.7611 95.1203 77.7611C93.7411 77.7611 92.623 78.8792 92.623 80.2584C92.623 81.6376 93.7411 82.7557 95.1203 82.7557Z" fill="#F0A200"/>
<path d="M90.0698 90.2414C90.0698 91.4279 89.1069 92.3908 87.9204 92.3908C86.7339 92.3908 85.771 91.4279 85.771 90.2414C85.771 89.0548 86.7339 88.0919 87.9204 88.0919C89.1069 88.0857 90.0698 89.0548 90.0698 90.2414Z" fill="#CE6100"/>
<path d="M82.64 99.4167C84.0707 99.4167 85.2305 98.2569 85.2305 96.8262C85.2305 95.3955 84.0707 94.2357 82.64 94.2357C81.2094 94.2357 80.0496 95.3955 80.0496 96.8262C80.0496 98.2569 81.2094 99.4167 82.64 99.4167Z" fill="#CE6100"/>
<path d="M90.8898 102.069C92.8969 102.069 94.5239 100.442 94.5239 98.4351C94.5239 96.4281 92.8969 94.801 90.8898 94.801C88.8827 94.801 87.2557 96.4281 87.2557 98.4351C87.2557 100.442 88.8827 102.069 90.8898 102.069Z" fill="#CE6100"/>
<path d="M21.8167 6.41429C11.4858 7.80581 13.2315 22.3609 22.3137 22.3423C34.5827 22.3174 32.6259 5.2961 21.8167 6.41429Z" fill="#FF2C6E"/>
<path d="M20.2822 3.72446C20.2884 5.30856 20.5431 6.9051 20.9531 8.42708C21.1519 9.1539 22.2763 8.84329 22.0775 8.11647C21.6924 6.68767 21.4563 5.20917 21.4501 3.72446C21.4501 2.97279 20.2822 2.97279 20.2822 3.72446Z" fill="#FF2C6E"/>
<path d="M23.6865 21.0316C24.0654 22.4418 24.0903 23.914 24.463 25.318C24.5438 25.6224 24.8792 25.8087 25.1836 25.728C25.488 25.641 25.6744 25.318 25.5936 25.0074C25.2147 23.5972 25.1898 22.1249 24.8171 20.721C24.7364 20.4166 24.4009 20.2302 24.0965 20.311C23.7859 20.3917 23.5995 20.721 23.6865 21.0316Z" fill="#FF2C6E"/>
<path d="M12.0698 17.3539C12.7345 16.9439 13.4861 16.8321 14.244 16.7948C15.0765 16.7513 15.9089 16.7637 16.7351 16.6333C17.0457 16.5836 17.2197 16.1922 17.1451 15.9127C17.0519 15.5834 16.7413 15.453 16.4245 15.5027C15.6542 15.6269 14.8093 15.5772 14.0142 15.6331C13.1258 15.6952 12.2499 15.863 11.4796 16.3413C10.8398 16.7389 11.4299 17.7515 12.0698 17.3539Z" fill="#FF2C6E"/>
<path d="M28.9234 13.9248C30.5634 13.7819 32.1724 13.4278 33.7565 12.993C34.4833 12.7942 34.1727 11.6698 33.4459 11.8685C31.9674 12.2723 30.4578 12.6264 28.9234 12.7569C28.6066 12.7817 28.3395 13.0054 28.3395 13.3408C28.3395 13.6328 28.6066 13.9496 28.9234 13.9248Z" fill="#FF2C6E"/>
<path d="M12.6599 7.64436C14.0452 8.75634 15.3063 10.0236 16.8034 10.9865C17.0705 11.1542 17.4495 11.0424 17.6048 10.7753C17.7725 10.4895 17.6607 10.1479 17.3936 9.97393C15.9834 9.06695 14.7969 7.868 13.4861 6.81814C13.2376 6.61935 12.9022 6.57587 12.6599 6.81814C12.4549 7.02314 12.4114 7.44557 12.6599 7.64436Z" fill="#FF2C6E"/>
<path d="M27.5815 4.35187C27.3082 6.06022 26.4074 7.61948 25.4321 9.01722C25.252 9.27813 25.3824 9.66949 25.6433 9.81858C25.9353 9.98631 26.2646 9.86828 26.4447 9.60737C27.4697 8.13509 28.4264 6.4578 28.7122 4.66248C28.7618 4.35187 28.6314 4.03506 28.3021 3.94188C28.0226 3.86733 27.6312 4.03505 27.5815 4.35187Z" fill="#FF2C6E"/>
<path d="M18.3565 19.6773C17.9899 21.2366 17.2569 22.6405 16.5984 24.0818C16.468 24.3675 16.5177 24.7092 16.8096 24.8831C17.0581 25.0322 17.4805 24.9639 17.611 24.6719C18.313 23.1375 19.1019 21.6404 19.4871 19.9879C19.5616 19.6835 19.3939 19.3543 19.0771 19.2673C18.7789 19.1866 18.431 19.3729 18.3565 19.6773Z" fill="#FF2C6E"/>
<path d="M28.3705 18.9132C29.6378 19.8015 30.874 20.665 32.017 21.6776C32.2531 21.8888 32.6134 21.9074 32.8433 21.6776C33.0545 21.4664 33.0793 21.0626 32.8433 20.8514C31.6257 19.7704 30.29 18.8324 28.9606 17.9006C28.7122 17.7266 28.3022 17.8447 28.1593 18.1118C28.004 18.41 28.1034 18.7206 28.3705 18.9132Z" fill="#FF2C6E"/>
<path d="M20.9531 4.42019C21.9481 4.42019 22.7547 3.61362 22.7547 2.61866C22.7547 1.62371 21.9481 0.817139 20.9531 0.817139C19.9582 0.817139 19.1516 1.62371 19.1516 2.61866C19.1516 3.61362 19.9582 4.42019 20.9531 4.42019Z" fill="#FF2C6E"/>
<path d="M12.6227 8.45815C13.6177 8.45815 14.4242 7.65159 14.4242 6.65663C14.4242 5.66167 13.6177 4.8551 12.6227 4.8551C11.6277 4.8551 10.8212 5.66167 10.8212 6.65663C10.8212 7.65159 11.6277 8.45815 12.6227 8.45815Z" fill="#FF2C6E"/>
<path d="M11.2063 18.907C12.2013 18.907 13.0078 18.1004 13.0078 17.1054C13.0078 16.1105 12.2013 15.3039 11.2063 15.3039C10.2114 15.3039 9.40479 16.1105 9.40479 17.1054C9.40479 18.1004 10.2114 18.907 11.2063 18.907Z" fill="#FF2C6E"/>
<path d="M16.7849 26.9145C17.7798 26.9145 18.5864 26.1079 18.5864 25.113C18.5864 24.118 17.7798 23.3115 16.7849 23.3115C15.7899 23.3115 14.9833 24.118 14.9833 25.113C14.9833 26.1079 15.7899 26.9145 16.7849 26.9145Z" fill="#FF2C6E"/>
<path d="M25.1154 27.6227C26.1103 27.6227 26.9169 26.8161 26.9169 25.8211C26.9169 24.8262 26.1103 24.0196 25.1154 24.0196C24.1204 24.0196 23.3138 24.8262 23.3138 25.8211C23.3138 26.8161 24.1204 27.6227 25.1154 27.6227Z" fill="#FF2C6E"/>
<path d="M34.856 22.1063C34.856 23.1002 34.0484 23.9078 33.0545 23.9078C32.0605 23.9078 31.2529 23.1002 31.2529 22.1063C31.2529 21.1123 32.0605 20.3047 33.0545 20.3047C34.0546 20.3047 34.856 21.1123 34.856 22.1063Z" fill="#FF2C6E"/>
<path d="M36.6638 12.1046C36.6638 13.0986 35.8562 13.9062 34.8623 13.9062C33.8683 13.9062 33.0607 13.0986 33.0607 12.1046C33.0607 11.1107 33.8683 10.3031 34.8623 10.3031C35.8562 10.3031 36.6638 11.1107 36.6638 12.1046Z" fill="#FF2C6E"/>
<path d="M30.3211 3.33302C30.3211 4.32697 29.5136 5.13455 28.5196 5.13455C27.5257 5.13455 26.7181 4.32697 26.7181 3.33302C26.7181 2.33907 27.5257 1.53149 28.5196 1.53149C29.5136 1.53149 30.3211 2.33907 30.3211 3.33302Z" fill="#FF2C6E"/>
<path d="M24.8668 10.5516C24.8668 11.4089 24.1711 12.1046 23.3138 12.1046C22.4565 12.1046 21.7607 11.4089 21.7607 10.5516C21.7607 9.6943 22.4565 8.99854 23.3138 8.99854C24.1711 8.99854 24.8668 9.68809 24.8668 10.5516Z" fill="#A92C6E"/>
<path d="M19.4996 17.1738C20.5323 17.1738 21.3694 16.3366 21.3694 15.3039C21.3694 14.2712 20.5323 13.4341 19.4996 13.4341C18.4669 13.4341 17.6297 14.2712 17.6297 15.3039C17.6297 16.3366 18.4669 17.1738 19.4996 17.1738Z" fill="#A92C6E"/>
<path d="M28.0847 16.4656C28.0847 17.913 26.9106 19.0871 25.4632 19.0871C24.0158 19.0871 22.8417 17.913 22.8417 16.4656C22.8417 15.0182 24.0158 13.8441 25.4632 13.8441C26.9106 13.8441 28.0847 15.0182 28.0847 16.4656Z" fill="#A92C6E"/>
<path d="M206.567 195.438H160.075C156.962 195.438 155.204 191.872 157.093 189.406L176.27 164.328V136.41H190.378V164.328L209.555 189.406C211.437 191.872 209.679 195.438 206.567 195.438Z" fill="white"/>
<path d="M206.759 191.537L186.862 165.508V147.076H179.792V165.508L159.895 191.537C159.857 191.587 159.808 191.655 159.87 191.785C159.932 191.916 160.019 191.916 160.081 191.916H206.573C206.635 191.916 206.716 191.916 206.784 191.785C206.846 191.655 206.796 191.593 206.759 191.537Z" fill="#D9E5F9"/>
<path d="M190.378 141.535L176.27 144.436V140.516H190.378V141.535Z" fill="#C0D3EE"/>
<path d="M192.005 140.516H174.642C173.971 140.516 173.431 139.976 173.431 139.305V136.143C173.431 135.472 173.971 134.932 174.642 134.932H192.005C192.676 134.932 193.217 135.472 193.217 136.143V139.305C193.21 139.976 192.67 140.516 192.005 140.516Z" fill="white"/>
<path d="M173.487 173.745C173.487 173.745 174.381 172.099 177.133 173.248C179.879 174.404 182.314 177.373 186.234 175.037C186.234 175.037 183.501 179.169 178.835 178.964C174.17 178.765 173.487 173.745 173.487 173.745Z" fill="#0B928C"/>
<path d="M193.155 173.745L206.753 191.537C206.79 191.587 206.84 191.655 206.778 191.785C206.716 191.916 206.635 191.916 206.567 191.916H160.075C160.006 191.916 159.926 191.916 159.864 191.785C159.795 191.655 159.845 191.587 159.888 191.537L173.487 173.745C173.487 173.745 174.586 177.852 179.345 177.852C186.681 177.852 185.166 172.211 193.155 173.745Z" fill="#0BC49E"/>
<path d="M189.067 180.436C189.067 179.473 188.284 178.69 187.321 178.69C186.358 178.69 185.576 179.473 185.576 180.436C185.576 181.399 186.358 182.181 187.321 182.181C188.284 182.188 189.067 181.405 189.067 180.436Z" fill="#0B928C"/>
<path d="M170.033 187.406C170.033 186.443 169.25 185.66 168.287 185.66C167.324 185.66 166.542 186.443 166.542 187.406C166.542 188.369 167.324 189.151 168.287 189.151C169.25 189.151 170.033 188.369 170.033 187.406Z" fill="#0B928C"/>
<path d="M187.315 187.406C187.315 186.443 186.532 185.66 185.569 185.66C184.607 185.66 183.824 186.443 183.824 187.406C183.824 188.369 184.607 189.151 185.569 189.151C186.532 189.151 187.315 188.369 187.315 187.406Z" fill="#0B928C"/>
<path d="M200.317 187.965C200.64 185.865 198.857 184.082 196.751 184.399C195.441 184.598 194.372 185.666 194.167 186.977C193.844 189.083 195.627 190.866 197.733 190.543C199.05 190.344 200.118 189.276 200.317 187.965Z" fill="#0B928C"/>
<path d="M177.394 181.299C177.394 179.858 176.226 178.69 174.785 178.69C173.344 178.69 172.176 179.858 172.176 181.299C172.176 182.74 173.344 183.908 174.785 183.908C176.226 183.908 177.394 182.74 177.394 181.299Z" fill="#0B928C"/>
<g opacity="0.5">
<path d="M181.289 165.023L162.056 191.17H175.468C175.468 191.17 171.331 186.946 173.425 182.188C175.524 177.429 181.289 165.023 181.289 165.023Z" fill="#FFAB31"/>
</g>
<path d="M185.837 118.227C185.837 121.01 188.092 123.259 190.868 123.259C193.651 123.259 195.9 121.004 195.9 118.227C195.9 115.444 193.645 113.195 190.868 113.195C188.085 113.189 185.837 115.444 185.837 118.227Z" fill="#0B928C"/>
<path d="M179.245 128.521C179.245 130.341 180.718 131.813 182.538 131.813C184.358 131.813 185.83 130.341 185.83 128.521C185.83 126.701 184.358 125.228 182.538 125.228C180.724 125.222 179.245 126.701 179.245 128.521Z" fill="#0BC49E"/>
<path d="M175.239 116.308C175.239 117.693 176.357 118.811 177.742 118.811C179.127 118.811 180.246 117.693 180.246 116.308C180.246 114.922 179.127 113.804 177.742 113.804C176.357 113.804 175.239 114.922 175.239 116.308Z" fill="#0BC49E"/>
<path d="M136.375 184.934C137.463 184.934 138.345 184.052 138.345 182.964C138.345 181.877 137.463 180.995 136.375 180.995C135.288 180.995 134.406 181.877 134.406 182.964C134.406 184.052 135.288 184.934 136.375 184.934Z" fill="#99A4BF"/>
<path d="M54.9586 128.328C56.0462 128.328 56.9278 127.447 56.9278 126.359C56.9278 125.271 56.0462 124.39 54.9586 124.39C53.871 124.39 52.9893 125.271 52.9893 126.359C52.9893 127.447 53.871 128.328 54.9586 128.328Z" fill="#99A4BF"/>
<path d="M4.82021 163.439C5.9078 163.439 6.78947 162.558 6.78947 161.47C6.78947 160.383 5.9078 159.501 4.82021 159.501C3.73262 159.501 2.85095 160.383 2.85095 161.47C2.85095 162.558 3.73262 163.439 4.82021 163.439Z" fill="#99A4BF"/>
<path d="M217.842 182.964C218.929 182.964 219.811 182.082 219.811 180.995C219.811 179.907 218.929 179.026 217.842 179.026C216.754 179.026 215.873 179.907 215.873 180.995C215.873 182.082 216.754 182.964 217.842 182.964Z" fill="#99A4BF"/>
<path d="M61.6926 77.059C62.7802 77.059 63.6619 76.1773 63.6619 75.0897C63.6619 74.0022 62.7802 73.1205 61.6926 73.1205C60.6051 73.1205 59.7234 74.0022 59.7234 75.0897C59.7234 76.1773 60.6051 77.059 61.6926 77.059Z" fill="#99A4BF"/>
</g>
</svg>
