<svg width="375" height="109" viewBox="0 0 375 109" fill="none" xmlns="http://www.w3.org/2000/svg">
<g opacity="0.1">
<path d="M178.383 -17.1044L177.567 -16.6328L187.698 0.914098L188.514 0.442533L178.383 -17.1044Z" fill="#E0E0E0"/>
<path d="M208.37 0.202545H188.108V1.14569H208.37V0.202545Z" fill="#E0E0E0"/>
<path d="M188.108 2.80005C186.933 2.80005 185.982 1.84918 185.982 0.674118C185.982 -0.500942 186.933 -1.45181 188.108 -1.45181C189.283 -1.45181 190.234 -0.500942 190.234 0.674118C190.234 1.84918 189.283 2.80005 188.108 2.80005Z" fill="#E0E0E0"/>
<path d="M117.597 -17.1087L116.78 -16.6371L126.911 0.909825L127.728 0.438255L117.597 -17.1087Z" fill="#E0E0E0"/>
<path d="M157.314 -17.1041L147.175 0.438782L147.992 0.91073L158.131 -16.6322L157.314 -17.1041Z" fill="#E0E0E0"/>
<path d="M149.424 1.74094C148.836 2.75365 147.537 3.10153 146.525 2.52173C145.512 1.9342 145.164 0.635453 145.744 -0.377263C146.331 -1.38998 147.63 -1.73786 148.643 -1.15806C149.663 -0.578259 150.011 0.720492 149.424 1.74094Z" fill="#E0E0E0"/>
<path d="M147.584 0.202545H127.322V1.14569H147.584V0.202545Z" fill="#E0E0E0"/>
<path d="M127.322 2.80005C126.147 2.80005 125.196 1.84918 125.196 0.674118C125.196 -0.500942 126.147 -1.45181 127.322 -1.45181C128.497 -1.45181 129.448 -0.500942 129.448 0.674118C129.448 1.84918 128.497 2.80005 127.322 2.80005Z" fill="#E0E0E0"/>
<path d="M178.38 17.9806L177.563 18.4522L187.695 35.9991L188.511 35.5276L178.38 17.9806Z" fill="#E0E0E0"/>
<path d="M176.141 19.2818C175.553 18.2691 175.901 16.9626 176.922 16.3828C177.934 15.7953 179.241 16.1432 179.821 17.1636C180.408 18.1763 180.06 19.4828 179.04 20.0626C178.027 20.6501 176.728 20.3023 176.141 19.2818Z" fill="#E0E0E0"/>
<path d="M187.696 0.451564L177.559 17.9944L178.375 18.4663L188.512 0.923416L187.696 0.451564Z" fill="#E0E0E0"/>
<path d="M186.268 -0.384982C186.855 -1.3977 188.154 -1.74558 189.167 -1.16578C190.18 -0.57825 190.528 0.720501 189.948 1.73322C189.36 2.74593 188.061 3.09381 187.049 2.51402C186.028 1.92649 185.68 0.627734 186.268 -0.384982Z" fill="#E0E0E0"/>
<path d="M208.37 0.202545H188.108V1.14569H208.37V0.202545Z" fill="#E0E0E0"/>
<path d="M208.37 -1.44406C209.545 -1.44406 210.496 -0.49319 210.496 0.68187C210.496 1.85693 209.545 2.8078 208.37 2.8078C207.195 2.8078 206.244 1.85693 206.244 0.68187C206.244 -0.49319 207.195 -1.44406 208.37 -1.44406Z" fill="#E0E0E0"/>
<path d="M147.995 0.441302L147.178 0.912872L157.309 18.4598L158.126 17.9882L147.995 0.441302Z" fill="#E0E0E0"/>
<path d="M145.744 1.74096C145.156 0.728242 145.504 -0.578239 146.525 -1.15804C147.537 -1.74557 148.844 -1.39769 149.424 -0.377244C150.011 0.635473 149.663 1.94195 148.643 2.52175C147.622 3.10155 146.331 2.75367 145.744 1.74096Z" fill="#E0E0E0"/>
<path d="M157.314 -17.1041L147.175 0.438782L147.992 0.91073L158.131 -16.6322L157.314 -17.1041Z" fill="#E0E0E0"/>
<path d="M178.383 -17.1044L177.566 -16.6329L187.697 0.914067L188.514 0.442502L178.383 -17.1044Z" fill="#E0E0E0"/>
<path d="M189.948 -0.384995C190.535 0.627721 190.187 1.9342 189.167 2.514C188.154 3.10153 186.848 2.75365 186.268 1.7332C185.68 0.720487 186.028 -0.585994 187.049 -1.16579C188.061 -1.75332 189.36 -1.39771 189.948 -0.384995Z" fill="#E0E0E0"/>
<path d="M187.696 0.451625L177.559 17.9945L178.375 18.4664L188.512 0.923477L187.696 0.451625Z" fill="#E0E0E0"/>
<path d="M179.821 19.2818C179.233 20.2945 177.934 20.6424 176.922 20.0626C175.909 19.4751 175.561 18.1763 176.141 17.1636C176.721 16.1509 178.027 15.803 179.04 16.3828C180.052 16.9704 180.408 18.2691 179.821 19.2818Z" fill="#E0E0E0"/>
<path d="M177.981 17.7512H157.719V18.6943H177.981V17.7512Z" fill="#E0E0E0"/>
<path d="M157.719 20.3487C156.544 20.3487 155.593 19.3978 155.593 18.2227C155.593 17.0477 156.544 16.0968 157.719 16.0968C158.894 16.0968 159.845 17.0477 159.845 18.2227C159.845 19.3978 158.894 20.3487 157.719 20.3487Z" fill="#E0E0E0"/>
<path d="M117.596 17.9769L116.779 18.4485L126.91 35.9954L127.727 35.5238L117.596 17.9769Z" fill="#E0E0E0"/>
<path d="M115.354 19.2818C114.767 18.2691 115.115 16.9626 116.135 16.3828C117.148 15.7953 118.454 16.1432 119.034 17.1636C119.622 18.1763 119.274 19.4828 118.253 20.0626C117.241 20.6501 115.942 20.3023 115.354 19.2818Z" fill="#E0E0E0"/>
<path d="M126.926 0.445053L116.787 17.9879L117.604 18.4599L127.743 0.917L126.926 0.445053Z" fill="#E0E0E0"/>
<path d="M125.482 -0.384982C126.069 -1.3977 127.368 -1.74558 128.381 -1.16578C129.393 -0.57825 129.741 0.720501 129.161 1.73322C128.574 2.74593 127.275 3.09381 126.262 2.51402C125.25 1.92649 124.902 0.627734 125.482 -0.384982Z" fill="#E0E0E0"/>
<path d="M147.584 0.202545H127.322V1.14569H147.584V0.202545Z" fill="#E0E0E0"/>
<path d="M147.584 2.80005C148.758 2.80005 149.71 1.84824 149.71 0.674118C149.71 -0.500001 148.758 -1.45181 147.584 -1.45181C146.41 -1.45181 145.458 -0.500001 145.458 0.674118C145.458 1.84824 146.41 2.80005 147.584 2.80005Z" fill="#E0E0E0"/>
<path d="M147.995 0.441302L147.178 0.912872L157.309 18.4598L158.126 17.9882L147.995 0.441302Z" fill="#E0E0E0"/>
<path d="M159.558 17.1636C160.146 18.1763 159.798 19.4828 158.778 20.0626C157.765 20.6501 156.458 20.3023 155.879 19.2818C155.291 18.2691 155.639 16.9626 156.659 16.3828C157.672 15.7953 158.971 16.1432 159.558 17.1636Z" fill="#E0E0E0"/>
<path d="M157.319 17.9961L147.18 35.539L147.997 36.011L158.136 18.4681L157.319 17.9961Z" fill="#E0E0E0"/>
<path d="M148.129 37.8262C149.263 37.5223 149.936 36.3566 149.632 35.2226C149.328 34.0885 148.163 33.4154 147.029 33.7193C145.895 34.0232 145.222 35.1889 145.525 36.3229C145.829 37.457 146.995 38.13 148.129 37.8262Z" fill="#E0E0E0"/>
<path d="M147.584 35.2997H127.322V36.2429H147.584V35.2997Z" fill="#E0E0E0"/>
<path d="M127.322 37.8972C126.147 37.8972 125.196 36.9464 125.196 35.7713C125.196 34.5963 126.147 33.6454 127.322 33.6454C128.497 33.6454 129.448 34.5963 129.448 35.7713C129.448 36.9464 128.497 37.8972 127.322 37.8972Z" fill="#E0E0E0"/>
<path d="M87.2106 0.442858L86.3938 0.914429L96.5248 18.4614L97.3416 17.9898L87.2106 0.442858Z" fill="#E0E0E0"/>
<path d="M84.9654 1.74096C84.3779 0.728242 84.7258 -0.578239 85.7462 -1.15804C86.7589 -1.74557 88.0654 -1.39769 88.6452 -0.377244C89.225 0.643203 88.8849 1.94195 87.8644 2.52175C86.8517 3.10155 85.553 2.75367 84.9654 1.74096Z" fill="#E0E0E0"/>
<path d="M117.597 -17.1087L116.78 -16.6371L126.911 0.909825L127.728 0.438255L117.597 -17.1087Z" fill="#E0E0E0"/>
<path d="M129.162 -0.384965C129.749 0.627752 129.401 1.93423 128.381 2.51403C127.368 3.10156 126.062 2.75368 125.482 1.73323C124.894 0.720518 125.242 -0.585963 126.263 -1.16576C127.283 -1.75329 128.582 -1.39768 129.162 -0.384965Z" fill="#E0E0E0"/>
<path d="M126.926 0.445084L116.787 17.988L117.604 18.4599L127.743 0.91703L126.926 0.445084Z" fill="#E0E0E0"/>
<path d="M119.034 19.2818C118.447 20.2945 117.148 20.6424 116.135 20.0626C115.123 19.4751 114.775 18.1763 115.355 17.1636C115.942 16.1509 117.241 15.803 118.254 16.3828C119.274 16.9703 119.622 18.2691 119.034 19.2818Z" fill="#E0E0E0"/>
<path d="M117.195 17.7512H96.9325V18.6943H117.195V17.7512Z" fill="#E0E0E0"/>
<path d="M96.9324 20.3487C98.1066 20.3487 99.0584 19.3969 99.0584 18.2227C99.0584 17.0486 98.1066 16.0968 96.9324 16.0968C95.7583 16.0968 94.8065 17.0486 94.8065 18.2227C94.8065 19.3969 95.7583 20.3487 96.9324 20.3487Z" fill="#E0E0E0"/>
<path d="M56.8191 17.9805L56.0023 18.4521L66.1333 35.9991L66.9501 35.5275L56.8191 17.9805Z" fill="#E0E0E0"/>
<path d="M54.5685 19.2818C53.9809 18.2691 54.3288 16.9626 55.3493 16.3828C56.362 15.7953 57.6685 16.1432 58.2483 17.1636C58.8358 18.1763 58.4879 19.4828 57.4675 20.0626C56.4547 20.6501 55.156 20.3023 54.5685 19.2818Z" fill="#E0E0E0"/>
<path d="M66.1323 0.444814L55.9952 17.9877L56.8118 18.4596L66.9489 0.916666L66.1323 0.444814Z" fill="#E0E0E0"/>
<path d="M64.7033 -0.384982C65.2909 -1.3977 66.5896 -1.74558 67.6023 -1.16578C68.6151 -0.57825 68.9629 0.720501 68.3831 1.73322C67.7956 2.74593 66.4969 3.09381 65.4841 2.51402C64.4637 1.92649 64.1158 0.627734 64.7033 -0.384982Z" fill="#E0E0E0"/>
<path d="M87.2106 0.442858L86.3938 0.914429L96.5248 18.4614L97.3416 17.9898L87.2106 0.442858Z" fill="#E0E0E0"/>
<path d="M98.7723 17.1636C99.3598 18.1763 99.012 19.4828 97.9915 20.0626C96.9788 20.6501 95.6723 20.3023 95.0925 19.2818C94.505 18.2691 94.8529 16.9626 95.8733 16.3828C96.886 15.7953 98.1848 16.1432 98.7723 17.1636Z" fill="#E0E0E0"/>
<path d="M96.5271 17.989L86.39 35.5319L87.2066 36.0038L97.3437 18.4609L96.5271 17.989Z" fill="#E0E0E0"/>
<path d="M88.6451 36.8304C88.0576 37.8431 86.7588 38.191 85.7461 37.6112C84.7334 37.0237 84.3855 35.7249 84.9653 34.7122C85.5529 33.6995 86.8516 33.3516 87.8643 33.9314C88.8848 34.519 89.2326 35.8177 88.6451 36.8304Z" fill="#E0E0E0"/>
<path d="M86.8051 35.2997H66.5431V36.2429H86.8051V35.2997Z" fill="#E0E0E0"/>
<path d="M66.5432 37.8972C65.3681 37.8972 64.4172 36.9464 64.4172 35.7713C64.4172 34.5963 65.3681 33.6454 66.5432 33.6454C67.7182 33.6454 68.6691 34.5963 68.6691 35.7713C68.6691 36.9464 67.7182 37.8972 66.5432 37.8972Z" fill="#E0E0E0"/>
<path d="M26.4269 0.441454L25.6101 0.913025L35.7411 18.46L36.5579 17.9884L26.4269 0.441454Z" fill="#E0E0E0"/>
<path d="M24.1792 1.74096C23.5917 0.728242 23.9395 -0.578239 24.96 -1.15804C25.9727 -1.74557 27.2792 -1.39769 27.859 -0.377244C28.4388 0.643203 28.0986 1.94195 27.0782 2.52175C26.0655 3.10155 24.7667 2.75367 24.1792 1.74096Z" fill="#E0E0E0"/>
<path d="M66.1323 0.444845L55.9952 17.9877L56.8118 18.4596L66.9489 0.916697L66.1323 0.444845Z" fill="#E0E0E0"/>
<path d="M58.2483 19.2818C57.6685 20.3022 56.362 20.6501 55.3493 20.0626C54.3366 19.4751 53.9887 18.1763 54.5685 17.1636C55.156 16.1509 56.4548 15.803 57.4675 16.3828C58.4879 16.9703 58.8358 18.2691 58.2483 19.2818Z" fill="#E0E0E0"/>
<path d="M56.4161 17.7512H36.1541V18.6943H56.4161V17.7512Z" fill="#E0E0E0"/>
<path d="M36.154 20.3487C37.3281 20.3487 38.2799 19.3969 38.2799 18.2227C38.2799 17.0486 37.3281 16.0968 36.154 16.0968C34.9799 16.0968 34.0281 17.0486 34.0281 18.2227C34.0281 19.3969 34.9799 20.3487 36.154 20.3487Z" fill="#E0E0E0"/>
<path d="M-3.96498 17.9827L-4.78174 18.4543L5.34929 36.0013L6.16605 35.5297L-3.96498 17.9827Z" fill="#E0E0E0"/>
<path d="M5.3552 0.441183L-4.78394 17.9841L-3.96737 18.456L6.17177 0.913129L5.3552 0.441183Z" fill="#E0E0E0"/>
<path d="M3.91725 -0.384982C4.50478 -1.3977 5.80353 -1.74558 6.81624 -1.16578C7.82896 -0.57825 8.17684 0.720501 7.59704 1.73322C7.00951 2.74593 5.71076 3.09381 4.69804 2.51402C3.68533 1.93422 3.32972 0.627734 3.91725 -0.384982Z" fill="#E0E0E0"/>
<path d="M26.4269 0.441454L25.6101 0.913025L35.7411 18.46L36.5579 17.9884L26.4269 0.441454Z" fill="#E0E0E0"/>
<path d="M37.9939 17.1636C38.5814 18.1763 38.2335 19.4828 37.2131 20.0626C36.2003 20.6501 34.8939 20.3023 34.3141 19.2818C33.7265 18.2691 34.0744 16.9626 35.0949 16.3828C36.1076 15.7953 37.4063 16.1432 37.9939 17.1636Z" fill="#E0E0E0"/>
<path d="M35.7434 17.989L25.6063 35.5319L26.4229 36.0038L36.56 18.4609L35.7434 17.989Z" fill="#E0E0E0"/>
<path d="M27.859 36.8304C27.2715 37.8431 25.9727 38.191 24.96 37.6112C23.9473 37.0237 23.5994 35.7249 24.1792 34.7122C24.7667 33.6995 26.0655 33.3516 27.0782 33.9314C28.0986 34.519 28.4465 35.8177 27.859 36.8304Z" fill="#E0E0E0"/>
<path d="M26.0191 35.2997H5.75708V36.2429H26.0191V35.2997Z" fill="#E0E0E0"/>
<path d="M5.75703 37.8972C6.93115 37.8972 7.88297 36.9454 7.88297 35.7713C7.88297 34.5972 6.93115 33.6454 5.75703 33.6454C4.58292 33.6454 3.6311 34.5972 3.6311 35.7713C3.6311 36.9454 4.58292 37.8972 5.75703 37.8972Z" fill="#E0E0E0"/>
<path d="M5.3552 0.441183L-4.78394 17.9841L-3.96737 18.456L6.17177 0.913129L5.3552 0.441183Z" fill="#E0E0E0"/>
<path d="M147.993 35.5306L147.176 36.0021L157.307 53.5491L158.124 53.0775L147.993 35.5306Z" fill="#E0E0E0"/>
<path d="M145.744 36.8304C145.156 35.8177 145.504 34.5112 146.525 33.9314C147.537 33.3439 148.844 33.6918 149.424 34.7122C150.011 35.7249 149.663 37.0314 148.643 37.6112C147.63 38.1987 146.331 37.8509 145.744 36.8304Z" fill="#E0E0E0"/>
<path d="M157.319 17.9961L147.18 35.539L147.997 36.011L158.136 18.4681L157.319 17.9961Z" fill="#E0E0E0"/>
<path d="M155.879 17.1636C156.466 16.1509 157.765 15.803 158.778 16.3828C159.79 16.9703 160.138 18.2691 159.559 19.2818C158.971 20.2945 157.672 20.6424 156.66 20.0626C155.639 19.4751 155.291 18.1763 155.879 17.1636Z" fill="#E0E0E0"/>
<path d="M177.981 17.7512H157.719V18.6943H177.981V17.7512Z" fill="#E0E0E0"/>
<path d="M177.981 16.0968C179.156 16.0968 180.107 17.0477 180.107 18.2227C180.107 19.3978 179.156 20.3487 177.981 20.3487C176.806 20.3487 175.855 19.3978 175.855 18.2227C175.855 17.0477 176.806 16.0968 177.981 16.0968Z" fill="#E0E0E0"/>
<path d="M178.38 17.9806L177.563 18.4522L187.695 35.9991L188.511 35.5276L178.38 17.9806Z" fill="#E0E0E0"/>
<path d="M189.948 34.7045C190.535 35.7172 190.187 37.0237 189.167 37.6035C188.154 38.191 186.848 37.8431 186.268 36.8227C185.68 35.81 186.028 34.5035 187.049 33.9237C188.061 33.3439 189.36 33.6918 189.948 34.7045Z" fill="#E0E0E0"/>
<path d="M117.599 53.0751L116.782 53.5467L126.913 71.0936L127.73 70.6221L117.599 53.0751Z" fill="#E0E0E0"/>
<path d="M115.355 54.379C114.767 53.3663 115.115 52.0598 116.135 51.48C117.148 50.8925 118.455 51.2403 119.034 52.2608C119.622 53.2735 119.274 54.58 118.254 55.1598C117.241 55.7396 115.942 55.3917 115.355 54.379Z" fill="#E0E0E0"/>
<path d="M126.924 35.5325L116.785 53.0754L117.601 53.5473L127.74 36.0044L126.924 35.5325Z" fill="#E0E0E0"/>
<path d="M125.482 34.7045C126.069 33.6917 127.368 33.3439 128.381 33.9237C129.394 34.5112 129.741 35.8099 129.162 36.8227C128.574 37.8354 127.275 38.1833 126.263 37.6035C125.25 37.0237 124.902 35.7249 125.482 34.7045Z" fill="#E0E0E0"/>
<path d="M147.584 35.2997H127.322V36.2429H147.584V35.2997Z" fill="#E0E0E0"/>
<path d="M147.584 37.8972C148.758 37.8972 149.71 36.9454 149.71 35.7713C149.71 34.5972 148.758 33.6454 147.584 33.6454C146.41 33.6454 145.458 34.5972 145.458 35.7713C145.458 36.9454 146.41 37.8972 147.584 37.8972Z" fill="#E0E0E0"/>
<path d="M147.993 35.5306L147.176 36.0021L157.307 53.5491L158.124 53.0775L147.993 35.5306Z" fill="#E0E0E0"/>
<path d="M159.559 52.2531C160.146 53.2658 159.798 54.5723 158.778 55.1521C157.765 55.7396 156.459 55.3917 155.879 54.3713C155.291 53.3586 155.639 52.0521 156.66 51.4723C157.672 50.8925 158.971 51.2404 159.559 52.2531Z" fill="#E0E0E0"/>
<path d="M147.584 70.3892H127.322V71.3323H147.584V70.3892Z" fill="#E0E0E0"/>
<path d="M127.322 72.9867C126.147 72.9867 125.196 72.0358 125.196 70.8607C125.196 69.6857 126.147 68.7348 127.322 68.7348C128.497 68.7348 129.448 69.6857 129.448 70.8607C129.448 72.0358 128.497 72.9867 127.322 72.9867Z" fill="#E0E0E0"/>
<path d="M87.2082 35.5322L86.3915 36.0038L96.5225 53.5507L97.3393 53.0791L87.2082 35.5322Z" fill="#E0E0E0"/>
<path d="M84.9654 36.8304C84.3779 35.8177 84.7258 34.5112 85.7462 33.9314C86.7589 33.3439 88.0654 33.6918 88.6452 34.7122C89.2328 35.7249 88.8849 37.0314 87.8644 37.6112C86.8517 38.1987 85.553 37.8509 84.9654 36.8304Z" fill="#E0E0E0"/>
<path d="M96.5271 17.9891L86.39 35.532L87.2066 36.0038L97.3437 18.4609L96.5271 17.9891Z" fill="#E0E0E0"/>
<path d="M95.0926 17.1636C95.6802 16.1509 96.9789 15.803 97.9916 16.3828C99.0043 16.9704 99.3522 18.2691 98.7724 19.2818C98.1849 20.2945 96.8861 20.6424 95.8734 20.0626C94.853 19.4751 94.5051 18.1763 95.0926 17.1636Z" fill="#E0E0E0"/>
<path d="M117.195 17.7512H96.9325V18.6943H117.195V17.7512Z" fill="#E0E0E0"/>
<path d="M117.195 16.0968C118.37 16.0968 119.32 17.0477 119.32 18.2227C119.32 19.3978 118.37 20.3487 117.195 20.3487C116.019 20.3487 115.069 19.3978 115.069 18.2227C115.069 17.0477 116.019 16.0968 117.195 16.0968Z" fill="#E0E0E0"/>
<path d="M117.596 17.9769L116.779 18.4485L126.91 35.9954L127.727 35.5238L117.596 17.9769Z" fill="#E0E0E0"/>
<path d="M129.162 34.7045C129.749 35.7172 129.401 37.0237 128.381 37.6035C127.368 38.191 126.062 37.8431 125.482 36.8227C124.894 35.8099 125.242 34.5035 126.263 33.9237C127.283 33.3439 128.582 33.6917 129.162 34.7045Z" fill="#E0E0E0"/>
<path d="M126.924 35.5325L116.785 53.0754L117.601 53.5474L127.74 36.0045L126.924 35.5325Z" fill="#E0E0E0"/>
<path d="M119.034 54.379C118.447 55.3917 117.148 55.7396 116.135 55.1598C115.123 54.5723 114.775 53.2735 115.355 52.2608C115.942 51.2481 117.241 50.9002 118.254 51.48C119.274 52.0598 119.622 53.3663 119.034 54.379Z" fill="#E0E0E0"/>
<path d="M117.195 52.8484H96.9325V53.7915H117.195V52.8484Z" fill="#E0E0E0"/>
<path d="M96.9324 55.4381C95.7574 55.4381 94.8065 54.4872 94.8065 53.3122C94.8065 52.1371 95.7574 51.1862 96.9324 51.1862C98.1075 51.1862 99.0584 52.1371 99.0584 53.3122C99.0584 54.4872 98.1075 55.4381 96.9324 55.4381Z" fill="#E0E0E0"/>
<path d="M56.8203 53.0784L56.0035 53.55L66.1346 71.0969L66.9513 70.6254L56.8203 53.0784Z" fill="#E0E0E0"/>
<path d="M54.5685 54.379C53.9809 53.3663 54.3288 52.0598 55.3493 51.48C56.362 50.8925 57.6685 51.2403 58.2483 52.2608C58.8358 53.2735 58.4879 54.58 57.4675 55.1598C56.4547 55.7396 55.156 55.3917 54.5685 54.379Z" fill="#E0E0E0"/>
<path d="M66.1406 35.5401L56.0015 53.083L56.818 53.555L66.9572 36.0121L66.1406 35.5401Z" fill="#E0E0E0"/>
<path d="M64.7033 34.7045C65.2909 33.6917 66.5896 33.3439 67.6023 33.9237C68.6151 34.5112 68.9629 35.8099 68.3831 36.8227C67.7956 37.8354 66.4969 38.1833 65.4841 37.6035C64.4637 37.0237 64.1158 35.7249 64.7033 34.7045Z" fill="#E0E0E0"/>
<path d="M86.8054 35.2997H66.5433V36.2429H86.8054V35.2997Z" fill="#E0E0E0"/>
<path d="M86.8054 37.8972C87.9795 37.8972 88.9313 36.9454 88.9313 35.7713C88.9313 34.5972 87.9795 33.6454 86.8054 33.6454C85.6313 33.6454 84.6794 34.5972 84.6794 35.7713C84.6794 36.9454 85.6313 37.8972 86.8054 37.8972Z" fill="#E0E0E0"/>
<path d="M87.2085 35.5322L86.3917 36.0038L96.5228 53.5507L97.3395 53.0791L87.2085 35.5322Z" fill="#E0E0E0"/>
<path d="M98.7725 52.2531C99.3601 53.2658 99.0122 54.5723 97.9918 55.1521C96.979 55.7396 95.6726 55.3917 95.0928 54.3713C94.5052 53.3586 94.8531 52.0521 95.8735 51.4723C96.8863 50.8925 98.185 51.2404 98.7725 52.2531Z" fill="#E0E0E0"/>
<path d="M96.5294 53.0835L86.3923 70.6264L87.2089 71.0982L97.346 53.5553L96.5294 53.0835Z" fill="#E0E0E0"/>
<path d="M88.6452 71.9276C88.0577 72.9403 86.759 73.2882 85.7462 72.7084C84.7335 72.1209 84.3856 70.8221 84.9654 69.8094C85.553 68.7967 86.8517 68.4488 87.8644 69.0286C88.8849 69.6084 89.2328 70.9072 88.6452 71.9276Z" fill="#E0E0E0"/>
<path d="M86.8054 70.3892H66.5433V71.3323H86.8054V70.3892Z" fill="#E0E0E0"/>
<path d="M66.5433 72.9867C65.3682 72.9867 64.4174 72.0358 64.4174 70.8607C64.4174 69.6857 65.3682 68.7348 66.5433 68.7348C67.7183 68.7348 68.6692 69.6857 68.6692 70.8607C68.6692 72.0358 67.7183 72.9867 66.5433 72.9867Z" fill="#E0E0E0"/>
<path d="M26.4258 35.5301L25.609 36.0017L35.74 53.5486L36.5568 53.077L26.4258 35.5301Z" fill="#E0E0E0"/>
<path d="M24.1792 36.8304C23.5917 35.8177 23.9395 34.5112 24.96 33.9314C25.9727 33.3439 27.2792 33.6918 27.859 34.7122C28.4465 35.7249 28.0986 37.0314 27.0782 37.6112C26.0655 38.1987 24.7667 37.8509 24.1792 36.8304Z" fill="#E0E0E0"/>
<path d="M35.7434 17.989L25.6063 35.5319L26.4229 36.0038L36.56 18.4609L35.7434 17.989Z" fill="#E0E0E0"/>
<path d="M34.3141 17.1636C34.9016 16.1509 36.2003 15.803 37.2131 16.3828C38.2258 16.9704 38.5737 18.2691 37.9939 19.2818C37.4063 20.2945 36.1076 20.6424 35.0949 20.0626C34.0744 19.4751 33.7265 18.1763 34.3141 17.1636Z" fill="#E0E0E0"/>
<path d="M56.416 17.7512H36.1539V18.6943H56.416V17.7512Z" fill="#E0E0E0"/>
<path d="M56.4083 20.3487C57.5824 20.3487 58.5342 19.3969 58.5342 18.2227C58.5342 17.0486 57.5824 16.0968 56.4083 16.0968C55.2342 16.0968 54.2823 17.0486 54.2823 18.2227C54.2823 19.3969 55.2342 20.3487 56.4083 20.3487Z" fill="#E0E0E0"/>
<path d="M56.819 17.9805L56.0022 18.4521L66.1332 35.9991L66.95 35.5275L56.819 17.9805Z" fill="#E0E0E0"/>
<path d="M68.3831 34.7045C68.9707 35.7172 68.6228 37.0237 67.6023 37.6035C66.5896 38.191 65.2831 37.8431 64.7033 36.8227C64.1158 35.8099 64.4637 34.5035 65.4841 33.9237C66.4969 33.3439 67.7956 33.6917 68.3831 34.7045Z" fill="#E0E0E0"/>
<path d="M66.1406 35.5401L56.0015 53.083L56.818 53.555L66.9572 36.0121L66.1406 35.5401Z" fill="#E0E0E0"/>
<path d="M58.2483 54.379C57.6607 55.3917 56.362 55.7396 55.3493 55.1598C54.3366 54.5723 53.9887 53.2735 54.5685 52.2608C55.156 51.2481 56.4548 50.9002 57.4675 51.48C58.4879 52.0598 58.8358 53.3663 58.2483 54.379Z" fill="#E0E0E0"/>
<path d="M56.416 52.8484H36.1539V53.7915H56.416V52.8484Z" fill="#E0E0E0"/>
<path d="M36.154 55.4381C34.9789 55.4381 34.0281 54.4872 34.0281 53.3122C34.0281 52.1371 34.9789 51.1862 36.154 51.1862C37.3291 51.1862 38.2799 52.1371 38.2799 53.3122C38.2722 54.4872 37.3213 55.4381 36.154 55.4381Z" fill="#E0E0E0"/>
<path d="M-3.96425 53.0795L-4.78101 53.551L5.35002 71.098L6.16678 70.6264L-3.96425 53.0795Z" fill="#E0E0E0"/>
<path d="M5.3602 35.5329L-4.77893 53.0758L-3.96236 53.5478L6.17677 36.0049L5.3602 35.5329Z" fill="#E0E0E0"/>
<path d="M3.91734 34.7045C4.50487 33.6917 5.80362 33.3439 6.81634 33.9237C7.82905 34.5112 8.17693 35.8099 7.59713 36.8227C7.0096 37.8354 5.71085 38.1833 4.69814 37.6035C3.67769 37.0237 3.32981 35.7249 3.91734 34.7045Z" fill="#E0E0E0"/>
<path d="M26.0193 35.2997H5.7572V36.2429H26.0193V35.2997Z" fill="#E0E0E0"/>
<path d="M26.0191 37.8972C27.1932 37.8972 28.1451 36.9454 28.1451 35.7713C28.1451 34.5972 27.1932 33.6454 26.0191 33.6454C24.845 33.6454 23.8932 34.5972 23.8932 35.7713C23.8932 36.9454 24.845 37.8972 26.0191 37.8972Z" fill="#E0E0E0"/>
<path d="M26.4258 35.5301L25.609 36.0017L35.74 53.5486L36.5568 53.077L26.4258 35.5301Z" fill="#E0E0E0"/>
<path d="M37.9939 52.253C38.5814 53.2658 38.2335 54.5722 37.2131 55.152C36.2003 55.7396 34.8939 55.3917 34.3141 54.3712C33.7265 53.3585 34.0744 52.0521 35.0949 51.4723C36.1076 50.8925 37.4063 51.2403 37.9939 52.253Z" fill="#E0E0E0"/>
<path d="M35.7456 53.0835L25.6085 70.6263L26.4251 71.0982L36.5622 53.5553L35.7456 53.0835Z" fill="#E0E0E0"/>
<path d="M27.8591 71.9276C27.2716 72.9403 25.9728 73.2882 24.9601 72.7084C23.9474 72.1209 23.5995 70.8221 24.1793 69.8094C24.7668 68.7967 26.0656 68.4488 27.0783 69.0286C28.0988 69.6084 28.4466 70.9072 27.8591 71.9276Z" fill="#E0E0E0"/>
<path d="M26.0193 70.3892H5.7572V71.3323H26.0193V70.3892Z" fill="#E0E0E0"/>
<path d="M5.75716 72.9867C6.93128 72.9867 7.88309 72.0349 7.88309 70.8607C7.88309 69.6866 6.93128 68.7348 5.75716 68.7348C4.58304 68.7348 3.63123 69.6866 3.63123 70.8607C3.63123 72.0349 4.58304 72.9867 5.75716 72.9867Z" fill="#E0E0E0"/>
<path d="M-3.96498 17.9827L-4.78174 18.4543L5.34929 36.0013L6.16605 35.5297L-3.96498 17.9827Z" fill="#E0E0E0"/>
<path d="M7.59701 34.7045C8.18454 35.7172 7.83666 37.0237 6.81621 37.6035C5.8035 38.191 4.49702 37.8431 3.91722 36.8227C3.32969 35.8099 3.67757 34.5035 4.69801 33.9237C5.71073 33.3439 7.00948 33.6917 7.59701 34.7045Z" fill="#E0E0E0"/>
<path d="M5.3602 35.5329L-4.77893 53.0758L-3.96236 53.5478L6.17677 36.0049L5.3602 35.5329Z" fill="#E0E0E0"/>
<path d="M126.925 70.6349L116.786 88.1778L117.602 88.6497L127.741 71.1069L126.925 70.6349Z" fill="#E0E0E0"/>
<path d="M125.482 69.8017C126.069 68.7889 127.368 68.4411 128.381 69.0209C129.394 69.6084 129.741 70.9071 129.162 71.9199C128.574 72.9326 127.275 73.2805 126.263 72.7007C125.25 72.1131 124.902 70.8144 125.482 69.8017Z" fill="#E0E0E0"/>
<path d="M147.584 70.3892H127.322V71.3323H147.584V70.3892Z" fill="#E0E0E0"/>
<path d="M147.584 72.9867C148.758 72.9867 149.71 72.0349 149.71 70.8607C149.71 69.6866 148.758 68.7348 147.584 68.7348C146.41 68.7348 145.458 69.6866 145.458 70.8607C145.458 72.0349 146.41 72.9867 147.584 72.9867Z" fill="#E0E0E0"/>
<path d="M87.211 70.6251L86.3943 71.0967L96.5253 88.6436L97.3421 88.1721L87.211 70.6251Z" fill="#E0E0E0"/>
<path d="M84.9654 71.9276C84.3779 70.9149 84.7258 69.6084 85.7462 69.0286C86.7589 68.4411 88.0654 68.789 88.6452 69.8094C89.2328 70.8221 88.8849 72.1286 87.8644 72.7084C86.8517 73.2882 85.553 72.9403 84.9654 71.9276Z" fill="#E0E0E0"/>
<path d="M96.5293 53.0835L86.3922 70.6263L87.2088 71.0982L97.3459 53.5553L96.5293 53.0835Z" fill="#E0E0E0"/>
<path d="M95.0925 52.253C95.68 51.2403 96.9788 50.8925 97.9915 51.4723C99.0042 52.0598 99.3521 53.3585 98.7723 54.3712C98.1848 55.384 96.886 55.7318 95.8733 55.152C94.8529 54.5722 94.505 53.2735 95.0925 52.253Z" fill="#E0E0E0"/>
<path d="M117.195 52.8483H96.9325V53.7915H117.195V52.8483Z" fill="#E0E0E0"/>
<path d="M117.195 51.194C118.37 51.194 119.32 52.1448 119.32 53.3199C119.32 54.495 118.37 55.4458 117.195 55.4458C116.019 55.4458 115.069 54.495 115.069 53.3199C115.069 52.1448 116.019 51.194 117.195 51.194Z" fill="#E0E0E0"/>
<path d="M117.599 53.0751L116.782 53.5467L126.913 71.0936L127.73 70.6221L117.599 53.0751Z" fill="#E0E0E0"/>
<path d="M129.162 69.8017C129.749 70.8144 129.401 72.1209 128.381 72.7007C127.368 73.2882 126.062 72.9403 125.482 71.9199C124.894 70.9072 125.242 69.6007 126.263 69.0209C127.283 68.4334 128.582 68.7812 129.162 69.8017Z" fill="#E0E0E0"/>
<path d="M126.925 70.6349L116.786 88.1778L117.602 88.6497L127.742 71.1069L126.925 70.6349Z" fill="#E0E0E0"/>
<path d="M119.034 89.4685C118.447 90.4812 117.148 90.8291 116.135 90.2493C115.123 89.6617 114.775 88.363 115.355 87.3503C115.942 86.3376 117.241 85.9897 118.254 86.5695C119.274 87.157 119.622 88.4558 119.034 89.4685Z" fill="#E0E0E0"/>
<path d="M117.195 87.9378H96.9325V88.8809H117.195V87.9378Z" fill="#E0E0E0"/>
<path d="M96.9324 90.5353C98.1066 90.5353 99.0584 89.5835 99.0584 88.4093C99.0584 87.2352 98.1066 86.2834 96.9324 86.2834C95.7583 86.2834 94.8065 87.2352 94.8065 88.4093C94.8065 89.5835 95.7583 90.5353 96.9324 90.5353Z" fill="#E0E0E0"/>
<path d="M56.8179 88.1678L56.0011 88.6394L66.1321 106.186L66.9489 105.715L56.8179 88.1678Z" fill="#E0E0E0"/>
<path d="M54.5685 89.4685C53.9809 88.4558 54.3288 87.1493 55.3493 86.5695C56.362 85.9819 57.6685 86.3298 58.2483 87.3503C58.8358 88.363 58.4879 89.6695 57.4675 90.2493C56.4547 90.8368 55.156 90.4889 54.5685 89.4685Z" fill="#E0E0E0"/>
<path d="M66.1295 70.6301L55.9924 88.173L56.809 88.6449L66.9461 71.102L66.1295 70.6301Z" fill="#E0E0E0"/>
<path d="M64.7033 69.8017C65.2909 68.7889 66.5896 68.4411 67.6023 69.0209C68.6151 69.6084 68.9629 70.9071 68.3831 71.9199C67.7956 72.9326 66.4969 73.2805 65.4841 72.7007C64.4637 72.1131 64.1158 70.8144 64.7033 69.8017Z" fill="#E0E0E0"/>
<path d="M86.8053 70.3892H66.5432V71.3323H86.8053V70.3892Z" fill="#E0E0E0"/>
<path d="M86.8053 72.9867C87.9794 72.9867 88.9312 72.0349 88.9312 70.8607C88.9312 69.6866 87.9794 68.7348 86.8053 68.7348C85.6311 68.7348 84.6793 69.6866 84.6793 70.8607C84.6793 72.0349 85.6311 72.9867 86.8053 72.9867Z" fill="#E0E0E0"/>
<path d="M87.211 70.6251L86.3943 71.0967L96.5253 88.6436L97.3421 88.1721L87.211 70.6251Z" fill="#E0E0E0"/>
<path d="M98.7723 87.3503C99.3598 88.363 99.012 89.6695 97.9915 90.2493C96.9788 90.8368 95.6723 90.4889 95.0925 89.4685C94.505 88.4558 94.8529 87.1493 95.8733 86.5695C96.886 85.9819 98.1848 86.3298 98.7723 87.3503Z" fill="#E0E0E0"/>
<path d="M96.5339 88.1759L86.3948 105.719L87.2113 106.191L97.3505 88.6478L96.5339 88.1759Z" fill="#E0E0E0"/>
<path d="M88.6451 107.017C88.0576 108.03 86.7588 108.378 85.7461 107.798C84.7334 107.21 84.3855 105.912 84.9653 104.899C85.5529 103.886 86.8516 103.538 87.8643 104.118C88.8848 104.706 89.2326 106.004 88.6451 107.017Z" fill="#E0E0E0"/>
<path d="M26.4303 70.6234L25.6135 71.095L35.7446 88.6419L36.5613 88.1703L26.4303 70.6234Z" fill="#E0E0E0"/>
<path d="M24.1792 71.9276C23.5917 70.9149 23.9395 69.6084 24.96 69.0286C25.9727 68.441 27.2792 68.7889 27.859 69.8094C28.4465 70.8221 28.0986 72.1286 27.0782 72.7084C26.0655 73.2882 24.7667 72.9403 24.1792 71.9276Z" fill="#E0E0E0"/>
<path d="M35.7456 53.0834L25.6085 70.6263L26.4251 71.0982L36.5622 53.5553L35.7456 53.0834Z" fill="#E0E0E0"/>
<path d="M34.3141 52.253C34.9016 51.2403 36.2003 50.8925 37.2131 51.4723C38.2258 52.0598 38.5737 53.3585 37.9939 54.3712C37.4063 55.384 36.1076 55.7318 35.0949 55.152C34.0744 54.5722 33.7265 53.2735 34.3141 52.253Z" fill="#E0E0E0"/>
<path d="M56.416 52.8483H36.1539V53.7915H56.416V52.8483Z" fill="#E0E0E0"/>
<path d="M56.4083 51.1939C57.5833 51.1939 58.5342 52.1448 58.5342 53.3199C58.5342 54.4949 57.5833 55.4458 56.4083 55.4458C55.2332 55.4458 54.2823 54.4949 54.2823 53.3199C54.2901 52.1448 55.241 51.1939 56.4083 51.1939Z" fill="#E0E0E0"/>
<path d="M56.8202 53.0784L56.0034 53.55L66.1344 71.0969L66.9512 70.6254L56.8202 53.0784Z" fill="#E0E0E0"/>
<path d="M68.3831 69.8016C68.9707 70.8144 68.6228 72.1208 67.6023 72.7006C66.5896 73.2882 65.2831 72.9403 64.7033 71.9199C64.1158 70.9071 64.4637 69.6007 65.4841 69.0209C66.4969 68.4333 67.7956 68.7812 68.3831 69.8016Z" fill="#E0E0E0"/>
<path d="M66.1295 70.6301L55.9924 88.173L56.809 88.6449L66.9461 71.102L66.1295 70.6301Z" fill="#E0E0E0"/>
<path d="M58.2483 89.4685C57.6607 90.4812 56.362 90.8291 55.3493 90.2493C54.3366 89.6617 53.9887 88.363 54.5685 87.3503C55.156 86.3376 56.4548 85.9897 57.4675 86.5695C58.4879 87.157 58.8358 88.4558 58.2483 89.4685Z" fill="#E0E0E0"/>
<path d="M56.416 87.9378H36.1539V88.8809H56.416V87.9378Z" fill="#E0E0E0"/>
<path d="M36.154 90.5353C37.3281 90.5353 38.2799 89.5835 38.2799 88.4093C38.2799 87.2352 37.3281 86.2834 36.154 86.2834C34.9799 86.2834 34.0281 87.2352 34.0281 88.4093C34.0281 89.5835 34.9799 90.5353 36.154 90.5353Z" fill="#E0E0E0"/>
<path d="M-3.96669 88.1688L-4.78345 88.6404L5.34758 106.187L6.16434 105.716L-3.96669 88.1688Z" fill="#E0E0E0"/>
<path d="M5.35398 70.631L-4.78516 88.1739L-3.96858 88.6458L6.17055 71.1029L5.35398 70.631Z" fill="#E0E0E0"/>
<path d="M3.91725 69.8017C4.50478 68.7889 5.80353 68.4411 6.81624 69.0209C7.82896 69.6007 8.17684 70.9071 7.59704 71.9199C7.00951 72.9326 5.71076 73.2805 4.69804 72.7007C3.68533 72.1209 3.32972 70.8144 3.91725 69.8017Z" fill="#E0E0E0"/>
<path d="M26.0191 70.3892H5.75708V71.3323H26.0191V70.3892Z" fill="#E0E0E0"/>
<path d="M26.0191 72.9867C27.1932 72.9867 28.1451 72.0349 28.1451 70.8607C28.1451 69.6866 27.1932 68.7348 26.0191 68.7348C24.845 68.7348 23.8932 69.6866 23.8932 70.8607C23.8932 72.0349 24.845 72.9867 26.0191 72.9867Z" fill="#E0E0E0"/>
<path d="M26.4303 70.6234L25.6135 71.095L35.7446 88.6419L36.5613 88.1703L26.4303 70.6234Z" fill="#E0E0E0"/>
<path d="M37.9939 87.3503C38.5814 88.363 38.2335 89.6695 37.2131 90.2493C36.2003 90.8368 34.8939 90.4889 34.3141 89.4685C33.7265 88.4558 34.0744 87.1493 35.0949 86.5695C36.1076 85.9819 37.4063 86.3298 37.9939 87.3503Z" fill="#E0E0E0"/>
<path d="M35.7479 88.178L25.6088 105.721L26.4253 106.193L36.5645 88.65L35.7479 88.178Z" fill="#E0E0E0"/>
<path d="M27.859 107.017C27.2715 108.03 25.9727 108.378 24.96 107.798C23.9473 107.21 23.5994 105.912 24.1792 104.899C24.7667 103.886 26.0655 103.538 27.0782 104.118C28.0986 104.706 28.4465 106.004 27.859 107.017Z" fill="#E0E0E0"/>
<path d="M-3.96425 53.0795L-4.78101 53.551L5.35002 71.098L6.16678 70.6264L-3.96425 53.0795Z" fill="#E0E0E0"/>
<path d="M7.59701 69.8017C8.18454 70.8144 7.83666 72.1209 6.81621 72.7007C5.8035 73.2882 4.49702 72.9403 3.91722 71.9199C3.32969 70.9072 3.67757 69.6007 4.69801 69.0209C5.71073 68.4334 7.00948 68.7812 7.59701 69.8017Z" fill="#E0E0E0"/>
<path d="M5.35398 70.631L-4.78516 88.1739L-3.96858 88.6458L6.17055 71.1029L5.35398 70.631Z" fill="#E0E0E0"/>
<path d="M96.5339 88.1759L86.3948 105.719L87.2113 106.191L97.3505 88.6479L96.5339 88.1759Z" fill="#E0E0E0"/>
<path d="M95.0925 87.3503C95.68 86.3376 96.9788 85.9897 97.9915 86.5695C99.0042 87.157 99.3521 88.4558 98.7723 89.4685C98.1848 90.4812 96.886 90.8291 95.8733 90.2493C94.8529 89.6617 94.505 88.363 95.0925 87.3503Z" fill="#E0E0E0"/>
<path d="M117.195 87.9378H96.9325V88.8809H117.195V87.9378Z" fill="#E0E0E0"/>
<path d="M117.195 86.2834C118.37 86.2834 119.32 87.2343 119.32 88.4093C119.32 89.5844 118.37 90.5353 117.195 90.5353C116.019 90.5353 115.069 89.5844 115.069 88.4093C115.069 87.2343 116.019 86.2834 117.195 86.2834Z" fill="#E0E0E0"/>
<path d="M35.748 88.1781L25.6089 105.721L26.4255 106.193L36.5646 88.65L35.748 88.1781Z" fill="#E0E0E0"/>
<path d="M34.3142 87.3503C34.9017 86.3376 36.2005 85.9897 37.2132 86.5695C38.2259 87.157 38.5738 88.4558 37.994 89.4685C37.4065 90.4812 36.1077 90.8291 35.095 90.2493C34.0745 89.6617 33.7267 88.363 34.3142 87.3503Z" fill="#E0E0E0"/>
<path d="M56.4161 87.9378H36.1541V88.8809H56.4161V87.9378Z" fill="#E0E0E0"/>
<path d="M56.4084 90.5353C57.5825 90.5353 58.5343 89.5835 58.5343 88.4093C58.5343 87.2352 57.5825 86.2834 56.4084 86.2834C55.2343 86.2834 54.2825 87.2352 54.2825 88.4093C54.2825 89.5835 55.2343 90.5353 56.4084 90.5353Z" fill="#E0E0E0"/>
<path d="M56.8179 88.1678L56.0011 88.6394L66.1321 106.186L66.9489 105.715L56.8179 88.1678Z" fill="#E0E0E0"/>
<path d="M68.3831 104.891C68.9707 105.904 68.6228 107.21 67.6023 107.79C66.5896 108.378 65.2831 108.03 64.7033 107.009C64.1158 105.997 64.4637 104.69 65.4841 104.11C66.4969 103.531 67.7956 103.878 68.3831 104.891Z" fill="#E0E0E0"/>
<path d="M-3.96669 88.1688L-4.78345 88.6404L5.34758 106.187L6.16434 105.716L-3.96669 88.1688Z" fill="#E0E0E0"/>
<path d="M7.59701 104.891C8.18454 105.904 7.83666 107.21 6.81621 107.79C5.8035 108.378 4.49702 108.03 3.91722 107.009C3.32969 105.997 3.67757 104.69 4.69801 104.11C5.71073 103.531 7.00948 103.878 7.59701 104.891Z" fill="#E0E0E0"/>
</g>
<g opacity="0.1">
<path d="M360.734 -16.666L359.917 -16.1945L370.048 1.35248L370.865 0.880918L360.734 -16.666Z" fill="#E0E0E0"/>
<path d="M390.721 0.64093H370.458V1.58407H390.721V0.64093Z" fill="#E0E0E0"/>
<path d="M370.459 3.23843C369.284 3.23843 368.333 2.28756 368.333 1.1125C368.333 -0.0625568 369.284 -1.01343 370.459 -1.01343C371.634 -1.01343 372.585 -0.0625568 372.585 1.1125C372.585 2.28756 371.634 3.23843 370.459 3.23843Z" fill="#E0E0E0"/>
<path d="M299.948 -16.6703L299.131 -16.1987L309.262 1.34821L310.079 0.87664L299.948 -16.6703Z" fill="#E0E0E0"/>
<path d="M339.665 -16.6657L329.526 0.877167L330.342 1.34911L340.482 -16.1938L339.665 -16.6657Z" fill="#E0E0E0"/>
<path d="M331.774 2.17932C331.187 3.19204 329.888 3.53992 328.875 2.96012C327.863 2.37259 327.515 1.07384 328.094 0.0611221C328.682 -0.951594 329.981 -1.29947 330.993 -0.719673C332.014 -0.139874 332.362 1.15888 331.774 2.17932Z" fill="#E0E0E0"/>
<path d="M329.934 0.64093H309.672V1.58407H329.934V0.64093Z" fill="#E0E0E0"/>
<path d="M309.672 3.23843C308.497 3.23843 307.546 2.28756 307.546 1.1125C307.546 -0.0625568 308.497 -1.01343 309.672 -1.01343C310.847 -1.01343 311.798 -0.0625568 311.798 1.1125C311.798 2.28756 310.847 3.23843 309.672 3.23843Z" fill="#E0E0E0"/>
<path d="M360.731 18.419L359.914 18.8906L370.045 36.4375L370.862 35.966L360.731 18.419Z" fill="#E0E0E0"/>
<path d="M358.492 19.7202C357.904 18.7075 358.252 17.401 359.272 16.8212C360.285 16.2337 361.592 16.5816 362.171 17.602C362.759 18.6147 362.411 19.9212 361.391 20.501C360.378 21.0885 359.079 20.7407 358.492 19.7202Z" fill="#E0E0E0"/>
<path d="M370.047 0.889949L359.909 18.4328L360.726 18.9047L370.863 1.3618L370.047 0.889949Z" fill="#E0E0E0"/>
<path d="M368.619 0.0534033C369.206 -0.959313 370.505 -1.30719 371.518 -0.727395C372.53 -0.139865 372.878 1.15889 372.298 2.1716C371.711 3.18432 370.412 3.5322 369.399 2.9524C368.379 2.36487 368.031 1.06612 368.619 0.0534033Z" fill="#E0E0E0"/>
<path d="M390.721 0.640961H370.458V1.5841H390.721V0.640961Z" fill="#E0E0E0"/>
<path d="M330.346 0.879656L329.529 1.35123L339.66 18.8982L340.477 18.4266L330.346 0.879656Z" fill="#E0E0E0"/>
<path d="M328.095 2.17931C327.507 1.1666 327.855 -0.139885 328.875 -0.719684C329.888 -1.30721 331.195 -0.959336 331.774 0.061111C332.362 1.07383 332.014 2.38031 330.994 2.96011C329.973 3.53991 328.682 3.19203 328.095 2.17931Z" fill="#E0E0E0"/>
<path d="M339.665 -16.6657L329.526 0.877167L330.342 1.34911L340.482 -16.1938L339.665 -16.6657Z" fill="#E0E0E0"/>
<path d="M360.734 -16.6661L359.917 -16.1945L370.048 1.35245L370.865 0.880887L360.734 -16.6661Z" fill="#E0E0E0"/>
<path d="M372.298 0.0533899C372.886 1.06611 372.538 2.37259 371.518 2.95239C370.505 3.53992 369.198 3.19204 368.619 2.17159C368.031 1.15887 368.379 -0.147609 369.399 -0.727408C370.412 -1.31494 371.711 -0.959326 372.298 0.0533899Z" fill="#E0E0E0"/>
<path d="M370.047 0.889979L359.909 18.4329L360.726 18.9047L370.863 1.36183L370.047 0.889979Z" fill="#E0E0E0"/>
<path d="M362.171 19.7202C361.584 20.7329 360.285 21.0808 359.272 20.501C358.26 19.9135 357.912 18.6147 358.492 17.602C359.071 16.5893 360.378 16.2414 361.391 16.8212C362.403 17.4087 362.759 18.7075 362.171 19.7202Z" fill="#E0E0E0"/>
<path d="M360.331 18.1895H340.069V19.1327H360.331V18.1895Z" fill="#E0E0E0"/>
<path d="M340.069 20.787C338.894 20.787 337.943 19.8362 337.943 18.6611C337.943 17.4861 338.894 16.5352 340.069 16.5352C341.244 16.5352 342.195 17.4861 342.195 18.6611C342.195 19.8362 341.244 20.787 340.069 20.787Z" fill="#E0E0E0"/>
<path d="M299.947 18.4153L299.13 18.8868L309.261 36.4338L310.078 35.9622L299.947 18.4153Z" fill="#E0E0E0"/>
<path d="M297.705 19.7202C297.118 18.7075 297.466 17.401 298.486 16.8212C299.499 16.2337 300.805 16.5816 301.385 17.602C301.973 18.6147 301.625 19.9212 300.604 20.501C299.592 21.0885 298.293 20.7407 297.705 19.7202Z" fill="#E0E0E0"/>
<path d="M309.277 0.883438L299.138 18.4263L299.954 18.8983L310.094 1.35538L309.277 0.883438Z" fill="#E0E0E0"/>
<path d="M307.833 0.0534033C308.42 -0.959313 309.719 -1.30719 310.732 -0.727395C311.744 -0.139865 312.092 1.15889 311.512 2.1716C310.925 3.18432 309.626 3.5322 308.613 2.9524C307.601 2.36487 307.253 1.06612 307.833 0.0534033Z" fill="#E0E0E0"/>
<path d="M329.935 0.64093H309.672V1.58407H329.935V0.64093Z" fill="#E0E0E0"/>
<path d="M329.935 3.23843C331.109 3.23843 332.06 2.28662 332.06 1.1125C332.06 -0.0616161 331.109 -1.01343 329.935 -1.01343C328.76 -1.01343 327.809 -0.0616161 327.809 1.1125C327.809 2.28662 328.76 3.23843 329.935 3.23843Z" fill="#E0E0E0"/>
<path d="M330.346 0.879687L329.529 1.35126L339.66 18.8982L340.477 18.4266L330.346 0.879687Z" fill="#E0E0E0"/>
<path d="M341.909 17.602C342.497 18.6147 342.149 19.9212 341.128 20.501C340.116 21.0885 338.809 20.7407 338.229 19.7202C337.642 18.7075 337.99 17.401 339.01 16.8212C340.023 16.2337 341.322 16.5816 341.909 17.602Z" fill="#E0E0E0"/>
<path d="M339.67 18.4345L329.531 35.9774L330.347 36.4494L340.487 18.9065L339.67 18.4345Z" fill="#E0E0E0"/>
<path d="M330.48 38.2646C331.614 37.9607 332.287 36.795 331.983 35.6609C331.679 34.5269 330.514 33.8538 329.379 34.1577C328.245 34.4616 327.572 35.6272 327.876 36.7613C328.18 37.8954 329.346 38.5684 330.48 38.2646Z" fill="#E0E0E0"/>
<path d="M329.935 35.7381H309.672V36.6812H329.935V35.7381Z" fill="#E0E0E0"/>
<path d="M309.672 38.3356C308.497 38.3356 307.547 37.3847 307.547 36.2097C307.547 35.0346 308.497 34.0837 309.672 34.0837C310.847 34.0837 311.798 35.0346 311.798 36.2097C311.798 37.3847 310.847 38.3356 309.672 38.3356Z" fill="#E0E0E0"/>
<path d="M269.561 0.881213L268.745 1.35278L278.876 18.8997L279.692 18.4282L269.561 0.881213Z" fill="#E0E0E0"/>
<path d="M267.316 2.17931C266.729 1.1666 267.076 -0.139885 268.097 -0.719684C269.11 -1.30721 270.416 -0.959336 270.996 0.061111C271.576 1.08156 271.236 2.38031 270.215 2.96011C269.202 3.53991 267.904 3.19203 267.316 2.17931Z" fill="#E0E0E0"/>
<path d="M299.948 -16.6703L299.131 -16.1987L309.262 1.34821L310.079 0.87664L299.948 -16.6703Z" fill="#E0E0E0"/>
<path d="M311.512 0.0534204C312.1 1.06614 311.752 2.37262 310.731 2.95242C309.719 3.53995 308.412 3.19207 307.833 2.17162C307.245 1.1589 307.593 -0.147578 308.613 -0.727378C309.634 -1.31491 310.932 -0.959296 311.512 0.0534204Z" fill="#E0E0E0"/>
<path d="M309.277 0.883499L299.138 18.4264L299.954 18.8983L310.094 1.35545L309.277 0.883499Z" fill="#E0E0E0"/>
<path d="M301.385 19.7202C300.798 20.7329 299.499 21.0808 298.486 20.501C297.473 19.9135 297.126 18.6147 297.705 17.602C298.293 16.5893 299.592 16.2414 300.604 16.8212C301.625 17.4087 301.973 18.7075 301.385 19.7202Z" fill="#E0E0E0"/>
<path d="M299.545 18.1895H279.283V19.1327H299.545V18.1895Z" fill="#E0E0E0"/>
<path d="M279.283 20.787C280.457 20.787 281.409 19.8352 281.409 18.6611C281.409 17.487 280.457 16.5352 279.283 16.5352C278.109 16.5352 277.157 17.487 277.157 18.6611C277.157 19.8352 278.109 20.787 279.283 20.787Z" fill="#E0E0E0"/>
<path d="M239.17 18.4189L238.353 18.8905L248.484 36.4374L249.301 35.9659L239.17 18.4189Z" fill="#E0E0E0"/>
<path d="M236.919 19.7202C236.332 18.7075 236.68 17.401 237.7 16.8212C238.713 16.2337 240.019 16.5816 240.599 17.602C241.186 18.6147 240.839 19.9212 239.818 20.501C238.805 21.0885 237.507 20.7407 236.919 19.7202Z" fill="#E0E0E0"/>
<path d="M248.483 0.883199L238.346 18.4261L239.163 18.8979L249.3 1.35505L248.483 0.883199Z" fill="#E0E0E0"/>
<path d="M247.054 0.0534033C247.642 -0.959313 248.94 -1.30719 249.953 -0.727395C250.966 -0.139865 251.314 1.15889 250.734 2.1716C250.146 3.18432 248.848 3.5322 247.835 2.9524C246.814 2.36487 246.467 1.06612 247.054 0.0534033Z" fill="#E0E0E0"/>
<path d="M269.561 0.881243L268.745 1.35281L278.876 18.8998L279.692 18.4282L269.561 0.881243Z" fill="#E0E0E0"/>
<path d="M281.123 17.602C281.711 18.6147 281.363 19.9212 280.342 20.501C279.329 21.0885 278.023 20.7407 277.443 19.7202C276.856 18.7075 277.204 17.401 278.224 16.8212C279.237 16.2337 280.535 16.5816 281.123 17.602Z" fill="#E0E0E0"/>
<path d="M278.878 18.4274L268.741 35.9703L269.557 36.4422L279.694 18.8993L278.878 18.4274Z" fill="#E0E0E0"/>
<path d="M270.996 37.2688C270.408 38.2815 269.11 38.6294 268.097 38.0496C267.084 37.4621 266.736 36.1633 267.316 35.1506C267.904 34.1379 269.202 33.79 270.215 34.3698C271.235 34.9573 271.583 36.2561 270.996 37.2688Z" fill="#E0E0E0"/>
<path d="M269.156 35.7381H248.894V36.6812H269.156V35.7381Z" fill="#E0E0E0"/>
<path d="M248.894 38.3356C247.719 38.3356 246.768 37.3847 246.768 36.2097C246.768 35.0346 247.719 34.0837 248.894 34.0837C250.069 34.0837 251.02 35.0346 251.02 36.2097C251.02 37.3847 250.069 38.3356 248.894 38.3356Z" fill="#E0E0E0"/>
<path d="M208.778 0.879809L207.961 1.35138L218.092 18.8983L218.909 18.4267L208.778 0.879809Z" fill="#E0E0E0"/>
<path d="M206.53 2.17931C205.942 1.1666 206.29 -0.139885 207.311 -0.719684C208.323 -1.30721 209.63 -0.959336 210.21 0.061111C210.789 1.08156 210.449 2.38031 209.429 2.96011C208.416 3.53991 207.117 3.19203 206.53 2.17931Z" fill="#E0E0E0"/>
<path d="M248.483 0.88323L238.346 18.4261L239.163 18.898L249.3 1.35508L248.483 0.88323Z" fill="#E0E0E0"/>
<path d="M240.599 19.7202C240.019 20.7406 238.713 21.0885 237.7 20.501C236.687 19.9135 236.339 18.6147 236.919 17.602C237.507 16.5893 238.805 16.2414 239.818 16.8212C240.839 17.4087 241.187 18.7075 240.599 19.7202Z" fill="#E0E0E0"/>
<path d="M238.767 18.1895H218.505V19.1327H238.767V18.1895Z" fill="#E0E0E0"/>
<path d="M218.505 20.787C219.679 20.787 220.631 19.8352 220.631 18.6611C220.631 17.487 219.679 16.5352 218.505 16.5352C217.331 16.5352 216.379 17.487 216.379 18.6611C216.379 19.8352 217.331 20.787 218.505 20.787Z" fill="#E0E0E0"/>
<path d="M178.386 18.4211L177.569 18.8927L187.7 36.4396L188.517 35.9681L178.386 18.4211Z" fill="#E0E0E0"/>
<path d="M176.141 19.7202C175.553 18.7075 175.901 17.401 176.922 16.8212C177.934 16.2337 179.241 16.5816 179.821 17.602C180.408 18.6147 180.06 19.9212 179.04 20.501C178.027 21.0885 176.728 20.7407 176.141 19.7202Z" fill="#E0E0E0"/>
<path d="M187.706 0.879568L177.567 18.4225L178.383 18.8944L188.522 1.35151L187.706 0.879568Z" fill="#E0E0E0"/>
<path d="M186.268 0.0534033C186.855 -0.959313 188.154 -1.30719 189.167 -0.727395C190.18 -0.139865 190.528 1.15889 189.948 2.1716C189.36 3.18432 188.061 3.5322 187.049 2.9524C186.036 2.3726 185.68 1.06612 186.268 0.0534033Z" fill="#E0E0E0"/>
<path d="M208.778 0.879809L207.961 1.35138L218.092 18.8983L218.909 18.4267L208.778 0.879809Z" fill="#E0E0E0"/>
<path d="M220.345 17.602C220.932 18.6147 220.584 19.9212 219.564 20.501C218.551 21.0885 217.245 20.7406 216.665 19.7202C216.077 18.7075 216.425 17.401 217.446 16.8212C218.458 16.2336 219.757 16.5815 220.345 17.602Z" fill="#E0E0E0"/>
<path d="M218.094 18.4274L207.957 35.9703L208.774 36.4422L218.911 18.8993L218.094 18.4274Z" fill="#E0E0E0"/>
<path d="M210.21 37.2688C209.622 38.2815 208.323 38.6294 207.311 38.0496C206.298 37.4621 205.95 36.1633 206.53 35.1506C207.117 34.1379 208.416 33.79 209.429 34.3698C210.449 34.9573 210.797 36.2561 210.21 37.2688Z" fill="#E0E0E0"/>
<path d="M208.37 35.7381H188.108V36.6812H208.37V35.7381Z" fill="#E0E0E0"/>
<path d="M188.108 38.3356C189.282 38.3356 190.234 37.3838 190.234 36.2097C190.234 35.0356 189.282 34.0837 188.108 34.0837C186.934 34.0837 185.982 35.0356 185.982 36.2097C185.982 37.3838 186.934 38.3356 188.108 38.3356Z" fill="#E0E0E0"/>
<path d="M187.706 0.879568L177.567 18.4225L178.383 18.8944L188.522 1.35151L187.706 0.879568Z" fill="#E0E0E0"/>
<path d="M179.821 19.7202C179.233 20.7329 177.934 21.0808 176.922 20.501C175.909 19.9135 175.561 18.6147 176.141 17.602C176.721 16.5893 178.027 16.2414 179.04 16.8212C180.06 17.4087 180.408 18.7075 179.821 19.7202Z" fill="#E0E0E0"/>
<path d="M330.343 35.969L329.527 36.4405L339.658 53.9875L340.475 53.5159L330.343 35.969Z" fill="#E0E0E0"/>
<path d="M328.095 37.2688C327.507 36.2561 327.855 34.9496 328.875 34.3698C329.888 33.7823 331.195 34.1301 331.774 35.1506C332.362 36.1633 332.014 37.4698 330.994 38.0496C329.981 38.6371 328.682 38.2892 328.095 37.2688Z" fill="#E0E0E0"/>
<path d="M339.67 18.4345L329.531 35.9774L330.347 36.4494L340.486 18.9065L339.67 18.4345Z" fill="#E0E0E0"/>
<path d="M338.229 17.602C338.817 16.5893 340.116 16.2414 341.128 16.8212C342.141 17.4087 342.489 18.7075 341.909 19.7202C341.322 20.7329 340.023 21.0808 339.01 20.501C337.99 19.9135 337.642 18.6147 338.229 17.602Z" fill="#E0E0E0"/>
<path d="M360.331 18.1895H340.069V19.1327H360.331V18.1895Z" fill="#E0E0E0"/>
<path d="M360.331 16.5352C361.506 16.5352 362.457 17.4861 362.457 18.6611C362.457 19.8362 361.506 20.787 360.331 20.787C359.156 20.787 358.205 19.8362 358.205 18.6611C358.205 17.4861 359.156 16.5352 360.331 16.5352Z" fill="#E0E0E0"/>
<path d="M360.731 18.4191L359.914 18.8906L370.045 36.4376L370.862 35.966L360.731 18.4191Z" fill="#E0E0E0"/>
<path d="M372.298 35.1429C372.886 36.1556 372.538 37.4621 371.518 38.0419C370.505 38.6294 369.198 38.2816 368.619 37.2611C368.031 36.2484 368.379 34.9419 369.399 34.3621C370.412 33.7823 371.711 34.1302 372.298 35.1429Z" fill="#E0E0E0"/>
<path d="M299.95 53.5135L299.133 53.9851L309.264 71.532L310.081 71.0604L299.95 53.5135Z" fill="#E0E0E0"/>
<path d="M297.705 54.8174C297.118 53.8047 297.466 52.4982 298.486 51.9184C299.499 51.3308 300.805 51.6787 301.385 52.6992C301.973 53.7119 301.625 55.0184 300.604 55.5982C299.592 56.178 298.293 55.8301 297.705 54.8174Z" fill="#E0E0E0"/>
<path d="M309.274 35.9708L299.135 53.5137L299.952 53.9857L310.091 36.4428L309.274 35.9708Z" fill="#E0E0E0"/>
<path d="M307.833 35.1428C308.42 34.1301 309.719 33.7822 310.732 34.362C311.744 34.9496 312.092 36.2483 311.512 37.261C310.925 38.2737 309.626 38.6216 308.613 38.0418C307.601 37.462 307.253 36.1633 307.833 35.1428Z" fill="#E0E0E0"/>
<path d="M329.934 35.7381H309.672V36.6812H329.934V35.7381Z" fill="#E0E0E0"/>
<path d="M329.934 38.3356C331.109 38.3356 332.06 37.3838 332.06 36.2096C332.06 35.0355 331.109 34.0837 329.934 34.0837C328.76 34.0837 327.808 35.0355 327.808 36.2096C327.808 37.3838 328.76 38.3356 329.934 38.3356Z" fill="#E0E0E0"/>
<path d="M330.343 35.969L329.527 36.4405L339.658 53.9875L340.475 53.5159L330.343 35.969Z" fill="#E0E0E0"/>
<path d="M341.909 52.6915C342.497 53.7042 342.149 55.0107 341.128 55.5905C340.116 56.178 338.809 55.8301 338.229 54.8097C337.642 53.7969 337.99 52.4905 339.01 51.9107C340.023 51.3309 341.322 51.6787 341.909 52.6915Z" fill="#E0E0E0"/>
<path d="M329.934 70.8276H309.672V71.7707H329.934V70.8276Z" fill="#E0E0E0"/>
<path d="M309.672 73.4251C308.497 73.4251 307.546 72.4742 307.546 71.2991C307.546 70.1241 308.497 69.1732 309.672 69.1732C310.847 69.1732 311.798 70.1241 311.798 71.2991C311.798 72.4742 310.847 73.4251 309.672 73.4251Z" fill="#E0E0E0"/>
<path d="M269.559 35.9706L268.742 36.4421L278.873 53.9891L279.69 53.5175L269.559 35.9706Z" fill="#E0E0E0"/>
<path d="M267.316 37.2688C266.729 36.2561 267.076 34.9496 268.097 34.3698C269.11 33.7823 270.416 34.1301 270.996 35.1506C271.583 36.1633 271.236 37.4698 270.215 38.0496C269.202 38.6371 267.904 38.2892 267.316 37.2688Z" fill="#E0E0E0"/>
<path d="M278.878 18.4274L268.741 35.9703L269.557 36.4422L279.694 18.8993L278.878 18.4274Z" fill="#E0E0E0"/>
<path d="M277.443 17.602C278.031 16.5893 279.33 16.2414 280.342 16.8212C281.355 17.4087 281.703 18.7075 281.123 19.7202C280.536 20.7329 279.237 21.0808 278.224 20.501C277.204 19.9135 276.856 18.6147 277.443 17.602Z" fill="#E0E0E0"/>
<path d="M299.545 18.1895H279.283V19.1327H299.545V18.1895Z" fill="#E0E0E0"/>
<path d="M299.545 16.5352C300.72 16.5352 301.671 17.4861 301.671 18.6611C301.671 19.8362 300.72 20.787 299.545 20.787C298.37 20.787 297.419 19.8362 297.419 18.6611C297.419 17.4861 298.37 16.5352 299.545 16.5352Z" fill="#E0E0E0"/>
<path d="M299.947 18.4153L299.13 18.8868L309.261 36.4338L310.078 35.9622L299.947 18.4153Z" fill="#E0E0E0"/>
<path d="M311.512 35.1429C312.1 36.1556 311.752 37.462 310.731 38.0418C309.719 38.6294 308.412 38.2815 307.833 37.261C307.245 36.2483 307.593 34.9419 308.613 34.3621C309.634 33.7823 310.932 34.1301 311.512 35.1429Z" fill="#E0E0E0"/>
<path d="M309.274 35.9709L299.135 53.5138L299.952 53.9857L310.091 36.4428L309.274 35.9709Z" fill="#E0E0E0"/>
<path d="M301.385 54.8174C300.798 55.8301 299.499 56.178 298.486 55.5982C297.473 55.0107 297.126 53.7119 297.705 52.6992C298.293 51.6865 299.592 51.3386 300.604 51.9184C301.625 52.4982 301.973 53.8047 301.385 54.8174Z" fill="#E0E0E0"/>
<path d="M299.545 53.2867H279.283V54.2299H299.545V53.2867Z" fill="#E0E0E0"/>
<path d="M279.283 55.8765C278.108 55.8765 277.157 54.9256 277.157 53.7506C277.157 52.5755 278.108 51.6246 279.283 51.6246C280.458 51.6246 281.409 52.5755 281.409 53.7506C281.409 54.9256 280.458 55.8765 279.283 55.8765Z" fill="#E0E0E0"/>
<path d="M239.171 53.5168L238.354 53.9883L248.485 71.5353L249.302 71.0637L239.171 53.5168Z" fill="#E0E0E0"/>
<path d="M236.919 54.8173C236.332 53.8046 236.68 52.4981 237.7 51.9183C238.713 51.3308 240.019 51.6787 240.599 52.6991C241.186 53.7119 240.839 55.0183 239.818 55.5981C238.805 56.1779 237.507 55.8301 236.919 54.8173Z" fill="#E0E0E0"/>
<path d="M248.491 35.9785L238.352 53.5214L239.169 53.9933L249.308 36.4504L248.491 35.9785Z" fill="#E0E0E0"/>
<path d="M247.054 35.1428C247.642 34.1301 248.94 33.7822 249.953 34.362C250.966 34.9496 251.314 36.2483 250.734 37.261C250.146 38.2737 248.848 38.6216 247.835 38.0418C246.814 37.462 246.467 36.1633 247.054 35.1428Z" fill="#E0E0E0"/>
<path d="M269.156 35.7381H248.894V36.6812H269.156V35.7381Z" fill="#E0E0E0"/>
<path d="M269.156 38.3356C270.33 38.3356 271.282 37.3838 271.282 36.2096C271.282 35.0355 270.33 34.0837 269.156 34.0837C267.982 34.0837 267.03 35.0355 267.03 36.2096C267.03 37.3838 267.982 38.3356 269.156 38.3356Z" fill="#E0E0E0"/>
<path d="M269.559 35.9705L268.742 36.4421L278.873 53.989L279.69 53.5175L269.559 35.9705Z" fill="#E0E0E0"/>
<path d="M281.123 52.6914C281.711 53.7042 281.363 55.0106 280.342 55.5904C279.33 56.178 278.023 55.8301 277.443 54.8096C276.856 53.7969 277.204 52.4904 278.224 51.9106C279.237 51.3308 280.536 51.6787 281.123 52.6914Z" fill="#E0E0E0"/>
<path d="M278.88 53.5218L268.743 71.0647L269.56 71.5366L279.697 53.9937L278.88 53.5218Z" fill="#E0E0E0"/>
<path d="M270.996 72.366C270.408 73.3787 269.11 73.7266 268.097 73.1468C267.084 72.5592 266.736 71.2605 267.316 70.2478C267.904 69.2351 269.202 68.8872 270.215 69.467C271.236 70.0468 271.583 71.3455 270.996 72.366Z" fill="#E0E0E0"/>
<path d="M269.156 70.8275H248.894V71.7707H269.156V70.8275Z" fill="#E0E0E0"/>
<path d="M248.894 73.425C247.719 73.425 246.768 72.4741 246.768 71.2991C246.768 70.124 247.719 69.1732 248.894 69.1732C250.069 69.1732 251.02 70.124 251.02 71.2991C251.02 72.4741 250.069 73.425 248.894 73.425Z" fill="#E0E0E0"/>
<path d="M208.776 35.9685L207.96 36.4401L218.091 53.987L218.908 53.5154L208.776 35.9685Z" fill="#E0E0E0"/>
<path d="M206.53 37.2688C205.942 36.2561 206.29 34.9496 207.311 34.3698C208.323 33.7823 209.63 34.1301 210.21 35.1506C210.797 36.1633 210.449 37.4698 209.429 38.0496C208.416 38.6371 207.117 38.2892 206.53 37.2688Z" fill="#E0E0E0"/>
<path d="M218.094 18.4274L207.957 35.9703L208.774 36.4422L218.911 18.8993L218.094 18.4274Z" fill="#E0E0E0"/>
<path d="M216.665 17.602C217.252 16.5893 218.551 16.2414 219.564 16.8212C220.576 17.4087 220.924 18.7075 220.345 19.7202C219.757 20.7329 218.458 21.0808 217.446 20.501C216.425 19.9135 216.077 18.6147 216.665 17.602Z" fill="#E0E0E0"/>
<path d="M238.767 18.1895H218.505V19.1327H238.767V18.1895Z" fill="#E0E0E0"/>
<path d="M238.759 20.787C239.933 20.787 240.885 19.8352 240.885 18.6611C240.885 17.487 239.933 16.5352 238.759 16.5352C237.585 16.5352 236.633 17.487 236.633 18.6611C236.633 19.8352 237.585 20.787 238.759 20.787Z" fill="#E0E0E0"/>
<path d="M239.17 18.4189L238.353 18.8905L248.484 36.4374L249.301 35.9659L239.17 18.4189Z" fill="#E0E0E0"/>
<path d="M250.734 35.1429C251.321 36.1556 250.974 37.462 249.953 38.0418C248.94 38.6294 247.634 38.2815 247.054 37.261C246.467 36.2483 246.814 34.9419 247.835 34.3621C248.848 33.7823 250.146 34.1301 250.734 35.1429Z" fill="#E0E0E0"/>
<path d="M248.491 35.9785L238.352 53.5214L239.169 53.9933L249.308 36.4505L248.491 35.9785Z" fill="#E0E0E0"/>
<path d="M240.599 54.8174C240.011 55.8301 238.713 56.178 237.7 55.5982C236.687 55.0107 236.339 53.7119 236.919 52.6992C237.507 51.6865 238.805 51.3386 239.818 51.9184C240.839 52.4982 241.187 53.8047 240.599 54.8174Z" fill="#E0E0E0"/>
<path d="M238.767 53.2867H218.505V54.2299H238.767V53.2867Z" fill="#E0E0E0"/>
<path d="M218.505 55.8765C217.33 55.8765 216.379 54.9256 216.379 53.7506C216.379 52.5755 217.33 51.6246 218.505 51.6246C219.68 51.6246 220.631 52.5755 220.631 53.7506C220.623 54.9256 219.672 55.8765 218.505 55.8765Z" fill="#E0E0E0"/>
<path d="M178.386 53.5178L177.57 53.9894L187.701 71.5363L188.517 71.0647L178.386 53.5178Z" fill="#E0E0E0"/>
<path d="M176.141 54.8173C175.553 53.8046 175.901 52.4981 176.922 51.9183C177.934 51.3308 179.241 51.6787 179.821 52.6991C180.408 53.7119 180.06 55.0183 179.04 55.5981C178.027 56.1779 176.728 55.8301 176.141 54.8173Z" fill="#E0E0E0"/>
<path d="M187.711 35.9713L177.572 53.5142L178.388 53.9861L188.527 36.4432L187.711 35.9713Z" fill="#E0E0E0"/>
<path d="M186.268 35.1428C186.856 34.1301 188.154 33.7822 189.167 34.362C190.18 34.9496 190.528 36.2483 189.948 37.261C189.36 38.2737 188.062 38.6216 187.049 38.0418C186.028 37.462 185.681 36.1633 186.268 35.1428Z" fill="#E0E0E0"/>
<path d="M208.37 35.7381H188.108V36.6812H208.37V35.7381Z" fill="#E0E0E0"/>
<path d="M208.37 38.3356C209.544 38.3356 210.496 37.3838 210.496 36.2096C210.496 35.0355 209.544 34.0837 208.37 34.0837C207.196 34.0837 206.244 35.0355 206.244 36.2096C206.244 37.3838 207.196 38.3356 208.37 38.3356Z" fill="#E0E0E0"/>
<path d="M208.776 35.9685L207.96 36.44L218.091 53.987L218.908 53.5154L208.776 35.9685Z" fill="#E0E0E0"/>
<path d="M220.345 52.6914C220.932 53.7041 220.584 55.0106 219.564 55.5904C218.551 56.1779 217.245 55.83 216.665 54.8096C216.077 53.7969 216.425 52.4904 217.446 51.9106C218.458 51.3308 219.757 51.6787 220.345 52.6914Z" fill="#E0E0E0"/>
<path d="M218.096 53.5218L207.959 71.0647L208.776 71.5365L218.913 53.9937L218.096 53.5218Z" fill="#E0E0E0"/>
<path d="M210.21 72.366C209.622 73.3787 208.324 73.7266 207.311 73.1468C206.298 72.5592 205.95 71.2605 206.53 70.2478C207.118 69.2351 208.416 68.8872 209.429 69.467C210.449 70.0468 210.797 71.3455 210.21 72.366Z" fill="#E0E0E0"/>
<path d="M208.37 70.8275H188.108V71.7707H208.37V70.8275Z" fill="#E0E0E0"/>
<path d="M188.108 73.425C189.282 73.425 190.234 72.4732 190.234 71.2991C190.234 70.125 189.282 69.1732 188.108 69.1732C186.934 69.1732 185.982 70.125 185.982 71.2991C185.982 72.4732 186.934 73.425 188.108 73.425Z" fill="#E0E0E0"/>
<path d="M177.981 16.5352C179.156 16.5352 180.107 17.4861 180.107 18.6611C180.107 19.8362 179.156 20.787 177.981 20.787C176.806 20.787 175.855 19.8362 175.855 18.6611C175.855 17.4861 176.806 16.5352 177.981 16.5352Z" fill="#E0E0E0"/>
<path d="M178.386 18.4211L177.569 18.8927L187.7 36.4396L188.517 35.9681L178.386 18.4211Z" fill="#E0E0E0"/>
<path d="M189.948 35.1429C190.535 36.1556 190.187 37.462 189.167 38.0418C188.154 38.6294 186.848 38.2815 186.268 37.261C185.68 36.2483 186.028 34.9419 187.049 34.3621C188.061 33.7823 189.36 34.1301 189.948 35.1429Z" fill="#E0E0E0"/>
<path d="M187.711 35.9713L177.572 53.5142L178.388 53.9862L188.527 36.4433L187.711 35.9713Z" fill="#E0E0E0"/>
<path d="M179.821 54.8174C179.233 55.8301 177.934 56.178 176.922 55.5982C175.909 55.0107 175.561 53.7119 176.141 52.6992C176.728 51.6865 178.027 51.3386 179.04 51.9184C180.06 52.4982 180.408 53.8047 179.821 54.8174Z" fill="#E0E0E0"/>
<path d="M309.276 71.0733L299.136 88.6162L299.953 89.0881L310.092 71.5452L309.276 71.0733Z" fill="#E0E0E0"/>
<path d="M307.833 70.24C308.42 69.2273 309.719 68.8795 310.732 69.4593C311.744 70.0468 312.092 71.3455 311.512 72.3582C310.925 73.371 309.626 73.7188 308.613 73.139C307.601 72.5515 307.253 71.2528 307.833 70.24Z" fill="#E0E0E0"/>
<path d="M329.934 70.8276H309.672V71.7707H329.934V70.8276Z" fill="#E0E0E0"/>
<path d="M329.934 73.4251C331.109 73.4251 332.06 72.4733 332.06 71.2991C332.06 70.125 331.109 69.1732 329.934 69.1732C328.76 69.1732 327.808 70.125 327.808 71.2991C327.808 72.4733 328.76 73.4251 329.934 73.4251Z" fill="#E0E0E0"/>
<path d="M269.562 71.0635L268.745 71.5351L278.876 89.082L279.693 88.6104L269.562 71.0635Z" fill="#E0E0E0"/>
<path d="M267.316 72.366C266.729 71.3533 267.076 70.0468 268.097 69.467C269.11 68.8795 270.416 69.2273 270.996 70.2478C271.583 71.2605 271.236 72.567 270.215 73.1468C269.202 73.7266 267.904 73.3787 267.316 72.366Z" fill="#E0E0E0"/>
<path d="M278.88 53.5218L268.743 71.0647L269.559 71.5366L279.697 53.9937L278.88 53.5218Z" fill="#E0E0E0"/>
<path d="M277.443 52.6914C278.031 51.6787 279.329 51.3308 280.342 51.9106C281.355 52.4982 281.703 53.7969 281.123 54.8096C280.535 55.8223 279.237 56.1702 278.224 55.5904C277.204 55.0106 276.856 53.7119 277.443 52.6914Z" fill="#E0E0E0"/>
<path d="M299.545 53.2867H279.283V54.2299H299.545V53.2867Z" fill="#E0E0E0"/>
<path d="M299.545 51.6324C300.72 51.6324 301.671 52.5832 301.671 53.7583C301.671 54.9333 300.72 55.8842 299.545 55.8842C298.37 55.8842 297.419 54.9333 297.419 53.7583C297.419 52.5832 298.37 51.6324 299.545 51.6324Z" fill="#E0E0E0"/>
<path d="M299.95 53.5135L299.133 53.9851L309.264 71.532L310.081 71.0604L299.95 53.5135Z" fill="#E0E0E0"/>
<path d="M311.512 70.2401C312.1 71.2528 311.752 72.5593 310.731 73.1391C309.719 73.7266 308.412 73.3787 307.833 72.3583C307.245 71.3456 307.593 70.0391 308.613 69.4593C309.634 68.8717 310.932 69.2196 311.512 70.2401Z" fill="#E0E0E0"/>
<path d="M309.276 71.0733L299.137 88.6162L299.953 89.0882L310.092 71.5453L309.276 71.0733Z" fill="#E0E0E0"/>
<path d="M301.385 89.9069C300.798 90.9196 299.499 91.2675 298.486 90.6877C297.473 90.1002 297.126 88.8014 297.705 87.7887C298.293 86.776 299.592 86.4281 300.604 87.0079C301.625 87.5954 301.973 88.8942 301.385 89.9069Z" fill="#E0E0E0"/>
<path d="M299.545 88.3762H279.283V89.3193H299.545V88.3762Z" fill="#E0E0E0"/>
<path d="M279.283 90.9737C280.457 90.9737 281.409 90.0219 281.409 88.8477C281.409 87.6736 280.457 86.7218 279.283 86.7218C278.109 86.7218 277.157 87.6736 277.157 88.8477C277.157 90.0219 278.109 90.9737 279.283 90.9737Z" fill="#E0E0E0"/>
<path d="M239.169 88.6062L238.352 89.0778L248.483 106.625L249.3 106.153L239.169 88.6062Z" fill="#E0E0E0"/>
<path d="M236.919 89.9069C236.332 88.8941 236.68 87.5877 237.7 87.0079C238.713 86.4203 240.019 86.7682 240.599 87.7886C241.186 88.8014 240.839 90.1078 239.818 90.6876C238.805 91.2752 237.507 90.9273 236.919 89.9069Z" fill="#E0E0E0"/>
<path d="M248.48 71.0685L238.343 88.6114L239.16 89.0832L249.297 71.5404L248.48 71.0685Z" fill="#E0E0E0"/>
<path d="M247.054 70.24C247.642 69.2273 248.94 68.8795 249.953 69.4593C250.966 70.0468 251.314 71.3455 250.734 72.3582C250.146 73.371 248.848 73.7188 247.835 73.139C246.814 72.5515 246.467 71.2528 247.054 70.24Z" fill="#E0E0E0"/>
<path d="M269.156 70.8276H248.894V71.7707H269.156V70.8276Z" fill="#E0E0E0"/>
<path d="M269.156 73.4251C270.33 73.4251 271.282 72.4733 271.282 71.2991C271.282 70.125 270.33 69.1732 269.156 69.1732C267.982 69.1732 267.03 70.125 267.03 71.2991C267.03 72.4733 267.982 73.4251 269.156 73.4251Z" fill="#E0E0E0"/>
<path d="M269.562 71.0635L268.745 71.535L278.876 89.082L279.693 88.6104L269.562 71.0635Z" fill="#E0E0E0"/>
<path d="M281.123 87.7886C281.711 88.8013 281.363 90.1078 280.342 90.6876C279.329 91.2751 278.023 90.9273 277.443 89.9068C276.856 88.8941 277.204 87.5876 278.224 87.0078C279.237 86.4203 280.535 86.7682 281.123 87.7886Z" fill="#E0E0E0"/>
<path d="M278.885 88.6143L268.745 106.157L269.562 106.629L279.701 89.0862L278.885 88.6143Z" fill="#E0E0E0"/>
<path d="M270.996 107.455C270.408 108.468 269.11 108.816 268.097 108.236C267.084 107.649 266.736 106.35 267.316 105.337C267.904 104.325 269.202 103.977 270.215 104.556C271.235 105.144 271.583 106.443 270.996 107.455Z" fill="#E0E0E0"/>
<path d="M208.781 71.0618L207.964 71.5334L218.095 89.0803L218.912 88.6087L208.781 71.0618Z" fill="#E0E0E0"/>
<path d="M206.53 72.366C205.942 71.3532 206.29 70.0468 207.311 69.467C208.323 68.8794 209.63 69.2273 210.21 70.2478C210.797 71.2605 210.449 72.567 209.429 73.1468C208.416 73.7266 207.117 73.3787 206.53 72.366Z" fill="#E0E0E0"/>
<path d="M218.096 53.5218L207.959 71.0647L208.776 71.5365L218.913 53.9937L218.096 53.5218Z" fill="#E0E0E0"/>
<path d="M216.665 52.6914C217.252 51.6787 218.551 51.3308 219.564 51.9106C220.576 52.4982 220.924 53.7969 220.345 54.8096C219.757 55.8223 218.458 56.1702 217.446 55.5904C216.425 55.0106 216.077 53.7119 216.665 52.6914Z" fill="#E0E0E0"/>
<path d="M238.767 53.2867H218.505V54.2299H238.767V53.2867Z" fill="#E0E0E0"/>
<path d="M238.759 51.6323C239.934 51.6323 240.885 52.5832 240.885 53.7583C240.885 54.9333 239.934 55.8842 238.759 55.8842C237.584 55.8842 236.633 54.9333 236.633 53.7583C236.641 52.5832 237.592 51.6323 238.759 51.6323Z" fill="#E0E0E0"/>
<path d="M239.171 53.5168L238.354 53.9884L248.485 71.5353L249.302 71.0637L239.171 53.5168Z" fill="#E0E0E0"/>
<path d="M250.734 70.24C251.321 71.2527 250.974 72.5592 249.953 73.139C248.94 73.7266 247.634 73.3787 247.054 72.3582C246.467 71.3455 246.814 70.039 247.835 69.4592C248.848 68.8717 250.146 69.2196 250.734 70.24Z" fill="#E0E0E0"/>
<path d="M248.48 71.0685L238.343 88.6114L239.16 89.0832L249.297 71.5404L248.48 71.0685Z" fill="#E0E0E0"/>
<path d="M240.599 89.9069C240.011 90.9196 238.713 91.2675 237.7 90.6877C236.687 90.1001 236.339 88.8014 236.919 87.7887C237.507 86.7759 238.805 86.4281 239.818 87.0079C240.839 87.5954 241.187 88.8941 240.599 89.9069Z" fill="#E0E0E0"/>
<path d="M238.767 88.3762H218.505V89.3193H238.767V88.3762Z" fill="#E0E0E0"/>
<path d="M218.505 90.9737C219.679 90.9737 220.631 90.0219 220.631 88.8477C220.631 87.6736 219.679 86.7218 218.505 86.7218C217.331 86.7218 216.379 87.6736 216.379 88.8477C216.379 90.0219 217.331 90.9737 218.505 90.9737Z" fill="#E0E0E0"/>
<path d="M178.384 88.6072L177.567 89.0787L187.698 106.626L188.515 106.154L178.384 88.6072Z" fill="#E0E0E0"/>
<path d="M176.141 89.9069C175.553 88.8941 175.901 87.5877 176.922 87.0079C177.934 86.4203 179.241 86.7682 179.821 87.7886C180.408 88.8014 180.06 90.1078 179.04 90.6876C178.027 91.2752 176.728 90.9273 176.141 89.9069Z" fill="#E0E0E0"/>
<path d="M187.705 71.0694L177.566 88.6123L178.382 89.0842L188.521 71.5413L187.705 71.0694Z" fill="#E0E0E0"/>
<path d="M186.268 70.24C186.855 69.2273 188.154 68.8795 189.167 69.4593C190.18 70.0391 190.528 71.3455 189.948 72.3582C189.36 73.371 188.061 73.7188 187.049 73.139C186.036 72.5592 185.68 71.2528 186.268 70.24Z" fill="#E0E0E0"/>
<path d="M208.37 70.8276H188.108V71.7707H208.37V70.8276Z" fill="#E0E0E0"/>
<path d="M208.37 73.4251C209.544 73.4251 210.496 72.4733 210.496 71.2991C210.496 70.125 209.544 69.1732 208.37 69.1732C207.196 69.1732 206.244 70.125 206.244 71.2991C206.244 72.4733 207.196 73.4251 208.37 73.4251Z" fill="#E0E0E0"/>
<path d="M208.781 71.0618L207.964 71.5334L218.095 89.0803L218.912 88.6087L208.781 71.0618Z" fill="#E0E0E0"/>
<path d="M220.345 87.7886C220.932 88.8014 220.584 90.1078 219.564 90.6876C218.551 91.2752 217.245 90.9273 216.665 89.9069C216.077 88.8941 216.425 87.5877 217.446 87.0079C218.458 86.4203 219.757 86.7682 220.345 87.7886Z" fill="#E0E0E0"/>
<path d="M218.099 88.6164L207.959 106.159L208.776 106.631L218.915 89.0884L218.099 88.6164Z" fill="#E0E0E0"/>
<path d="M210.21 107.455C209.622 108.468 208.323 108.816 207.311 108.236C206.298 107.649 205.95 106.35 206.53 105.337C207.117 104.325 208.416 103.977 209.429 104.556C210.449 105.144 210.797 106.443 210.21 107.455Z" fill="#E0E0E0"/>
<path d="M177.981 51.6324C179.156 51.6324 180.107 52.5832 180.107 53.7583C180.107 54.9333 179.156 55.8842 177.981 55.8842C176.806 55.8842 175.855 54.9333 175.855 53.7583C175.855 52.5832 176.806 51.6324 177.981 51.6324Z" fill="#E0E0E0"/>
<path d="M178.386 53.5178L177.57 53.9894L187.701 71.5363L188.517 71.0648L178.386 53.5178Z" fill="#E0E0E0"/>
<path d="M189.948 70.2401C190.535 71.2528 190.187 72.5593 189.167 73.1391C188.154 73.7266 186.848 73.3787 186.268 72.3583C185.68 71.3456 186.028 70.0391 187.049 69.4593C188.061 68.8717 189.36 69.2196 189.948 70.2401Z" fill="#E0E0E0"/>
<path d="M187.705 71.0694L177.566 88.6123L178.382 89.0842L188.521 71.5413L187.705 71.0694Z" fill="#E0E0E0"/>
<path d="M179.821 89.9069C179.233 90.9196 177.934 91.2675 176.922 90.6877C175.909 90.1001 175.561 88.8014 176.141 87.7887C176.728 86.7759 178.027 86.4281 179.04 87.0079C180.06 87.5954 180.408 88.8941 179.821 89.9069Z" fill="#E0E0E0"/>
<path d="M278.885 88.6143L268.745 106.157L269.562 106.629L279.701 89.0863L278.885 88.6143Z" fill="#E0E0E0"/>
<path d="M277.443 87.7887C278.031 86.7759 279.329 86.4281 280.342 87.0079C281.355 87.5954 281.703 88.8941 281.123 89.9069C280.535 90.9196 279.237 91.2675 278.224 90.6877C277.204 90.1001 276.856 88.8014 277.443 87.7887Z" fill="#E0E0E0"/>
<path d="M299.545 88.3762H279.283V89.3193H299.545V88.3762Z" fill="#E0E0E0"/>
<path d="M299.545 86.7218C300.72 86.7218 301.671 87.6727 301.671 88.8477C301.671 90.0228 300.72 90.9737 299.545 90.9737C298.37 90.9737 297.419 90.0228 297.419 88.8477C297.419 87.6727 298.37 86.7218 299.545 86.7218Z" fill="#E0E0E0"/>
<path d="M218.099 88.6164L207.96 106.159L208.776 106.631L218.915 89.0884L218.099 88.6164Z" fill="#E0E0E0"/>
<path d="M216.665 87.7887C217.252 86.7759 218.551 86.4281 219.564 87.0079C220.577 87.5954 220.924 88.8941 220.345 89.9069C219.757 90.9196 218.458 91.2675 217.446 90.6877C216.425 90.1001 216.077 88.8014 216.665 87.7887Z" fill="#E0E0E0"/>
<path d="M238.767 88.3762H218.505V89.3193H238.767V88.3762Z" fill="#E0E0E0"/>
<path d="M238.759 90.9737C239.933 90.9737 240.885 90.0219 240.885 88.8477C240.885 87.6736 239.933 86.7218 238.759 86.7218C237.585 86.7218 236.633 87.6736 236.633 88.8477C236.633 90.0219 237.585 90.9737 238.759 90.9737Z" fill="#E0E0E0"/>
<path d="M239.169 88.6062L238.352 89.0778L248.483 106.625L249.3 106.153L239.169 88.6062Z" fill="#E0E0E0"/>
<path d="M250.734 105.33C251.321 106.342 250.974 107.649 249.953 108.229C248.94 108.816 247.634 108.468 247.054 107.448C246.467 106.435 246.814 105.129 247.835 104.549C248.848 103.969 250.146 104.317 250.734 105.33Z" fill="#E0E0E0"/>
<path d="M177.981 86.7218C179.156 86.7218 180.107 87.6727 180.107 88.8477C180.107 90.0228 179.156 90.9737 177.981 90.9737C176.806 90.9737 175.855 90.0228 175.855 88.8477C175.855 87.6727 176.806 86.7218 177.981 86.7218Z" fill="#E0E0E0"/>
<path d="M178.384 88.6071L177.567 89.0787L187.698 106.626L188.515 106.154L178.384 88.6071Z" fill="#E0E0E0"/>
<path d="M189.948 105.329C190.535 106.342 190.187 107.649 189.167 108.228C188.154 108.816 186.848 108.468 186.268 107.448C185.68 106.435 186.028 105.128 187.049 104.549C188.061 103.969 189.36 104.317 189.948 105.329Z" fill="#E0E0E0"/>
</g>
</svg>
