<svg width="337" height="266" viewBox="0 0 337 266" fill="none" xmlns="http://www.w3.org/2000/svg">
<g clip-path="url(#clip0_215_581)">
<path d="M336.805 193.27H333.635H93.385H90.225V197.54H93.385V265.1H333.635V197.54H336.805V193.27Z" fill="#601E80"/>
<path d="M245.785 190.31H255.225V178.39H247.945C247.245 178.39 246.675 177.82 246.675 177.12V176.44H248.195V175.46H255.385V176.44H260.585V169.85C260.585 168.74 260.025 167.72 259.085 167.13L253.485 163.59V167.62H252.965V168.79H250.605V167.62H250.085V158.68H250.605V154H252.965V158.68H253.485V160.16L260.635 164.68C262.415 165.81 263.485 167.74 263.485 169.85V176.44V177.42V178.4V180.4C264.995 180.4 266.215 181.62 266.215 183.13C266.215 184.64 264.995 185.86 263.485 185.86V190.32H265.845C267.065 190.32 268.055 191.31 268.055 192.53V193.28H243.575V192.53C243.575 191.3 244.565 190.31 245.785 190.31Z" fill="#601E80"/>
<path d="M98.845 176.7C98.845 175.27 100.005 174.11 101.435 174.11H103.825V170.24H103.695C103.435 170.24 103.225 170.03 103.225 169.78V169.48C103.225 169.22 103.435 169.01 103.695 169.01H109.235C109.495 169.01 109.705 169.22 109.705 169.48V169.78C109.705 170.04 109.495 170.24 109.235 170.24H109.105V174.11H113.255V170.24H113.125C112.865 170.24 112.655 170.03 112.655 169.78V169.48C112.655 169.22 112.865 169.01 113.125 169.01H118.665C118.925 169.01 119.135 169.22 119.135 169.48V169.78C119.135 170.04 118.925 170.24 118.665 170.24H118.535V174.11H122.685V170.24H122.555C122.295 170.24 122.095 170.03 122.095 169.78V169.48C122.095 169.22 122.305 169.01 122.555 169.01H128.095C128.355 169.01 128.555 169.22 128.555 169.48V169.78C128.555 170.04 128.345 170.24 128.095 170.24H127.965V174.11H131.655C131.825 174.11 131.965 174.25 131.965 174.42C131.965 174.59 131.825 174.73 131.655 174.73H127.965V186.11C127.965 187.57 126.785 188.75 125.325 188.75C123.865 188.75 122.685 187.57 122.685 186.11V174.73H118.535V186.11C118.535 187.57 117.355 188.75 115.895 188.75C114.435 188.75 113.255 187.57 113.255 186.11V174.73H109.105V186.11C109.105 187.57 107.925 188.75 106.465 188.75C105.005 188.75 103.825 187.57 103.825 186.11V174.73H101.435C100.355 174.73 99.465 175.61 99.465 176.7V192.42H104.185V193.27H94.115V192.42H98.835V176.7H98.845Z" fill="#601E80"/>
<path d="M300.565 176.7C300.565 175.27 301.725 174.11 303.155 174.11H305.545V170.24H305.415C305.155 170.24 304.955 170.03 304.955 169.78V169.48C304.955 169.22 305.165 169.01 305.415 169.01H310.955C311.215 169.01 311.425 169.22 311.425 169.48V169.78C311.425 170.04 311.215 170.24 310.955 170.24H310.825V174.11H314.975V170.24H314.845C314.585 170.24 314.385 170.03 314.385 169.78V169.48C314.385 169.22 314.595 169.01 314.845 169.01H320.385C320.645 169.01 320.845 169.22 320.845 169.48V169.78C320.845 170.04 320.635 170.24 320.385 170.24H320.255V174.11H324.405V170.24H324.275C324.015 170.24 323.805 170.03 323.805 169.78V169.48C323.805 169.22 324.015 169.01 324.275 169.01H329.815C330.075 169.01 330.285 169.22 330.285 169.48V169.78C330.285 170.04 330.075 170.24 329.815 170.24H329.685V174.11H333.375C333.545 174.11 333.685 174.25 333.685 174.42C333.685 174.59 333.545 174.73 333.375 174.73H329.685V186.11C329.685 187.57 328.505 188.75 327.045 188.75C325.585 188.75 324.405 187.57 324.405 186.11V174.73H320.255V186.11C320.255 187.57 319.075 188.75 317.615 188.75C316.155 188.75 314.975 187.57 314.975 186.11V174.73H310.825V186.11C310.825 187.57 309.645 188.75 308.185 188.75C306.725 188.75 305.545 187.57 305.545 186.11V174.73H303.155C302.075 174.73 301.185 175.61 301.185 176.7V192.42H305.905V193.27H295.835V192.42H300.555V176.7H300.565Z" fill="#601E80"/>
<path d="M204.265 155.11C203.385 154.72 202.855 153.83 202.855 152.87V150.82H207.095C207.245 150.82 207.365 150.7 207.365 150.55C207.365 150.4 207.245 150.28 207.095 150.28H202.855V147.74C202.835 147.75 202.815 147.75 202.805 147.76C203.035 147.65 203.195 147.42 203.195 147.15C203.195 146.77 202.885 146.47 202.515 146.47H198.765C198.385 146.47 198.085 146.78 198.085 147.15C198.085 147.42 198.245 147.65 198.475 147.76C198.455 147.75 198.435 147.75 198.425 147.74V150.28H190.205C188.955 150.28 187.945 151.29 187.945 152.54V192.52H181.695V193.26H194.745V192.52H188.495V178.58H199.345V188.24C199.345 188.99 199.955 189.6 200.705 189.6H201.595C202.345 189.6 202.955 188.99 202.955 188.24V178.58H204.435C204.585 178.58 204.705 178.46 204.705 178.31C204.705 178.16 204.585 178.04 204.435 178.04H202.955V176.96H203.045C203.225 176.96 203.365 176.82 203.365 176.64V176.43C203.365 176.25 203.225 176.11 203.045 176.11H199.255C199.075 176.11 198.935 176.25 198.935 176.43V176.64C198.935 176.82 199.075 176.96 199.255 176.96H199.345V178.04H188.495V152.54C188.495 151.59 189.265 150.83 190.215 150.83H198.435V152.88C198.435 153.84 197.895 154.73 197.025 155.12C193.805 156.54 191.575 159.78 191.635 163.54C191.715 168.22 195.485 172.14 200.155 172.4C205.375 172.69 209.695 168.54 209.695 163.38C209.655 159.68 207.435 156.51 204.265 155.11ZM202.735 147.79C202.665 147.82 202.585 147.84 202.495 147.84C202.585 147.83 202.665 147.81 202.735 147.79Z" fill="#601E80"/>
<path d="M231.695 171.35H219.535C219.055 171.35 218.665 171.74 218.665 172.22V172.29C218.665 172.77 219.055 173.16 219.535 173.16H219.925V193.26H231.315V173.16H231.705C232.185 173.16 232.575 172.77 232.575 172.29V172.22C232.565 171.74 232.175 171.35 231.695 171.35Z" fill="#601E80"/>
<path d="M152.145 179.49H144.495C144.195 179.49 143.945 179.73 143.945 180.04V180.09C143.945 180.39 144.185 180.64 144.495 180.64H144.735V193.28H151.895V180.64H152.135C152.435 180.64 152.685 180.4 152.685 180.09V180.04C152.685 179.73 152.445 179.49 152.145 179.49Z" fill="#601E80"/>
<path opacity="0.36" d="M174.865 265.46C167.105 265.46 160.825 259.17 160.825 251.42V166.93H188.915V251.42C188.905 259.17 182.615 265.46 174.865 265.46Z" fill="#EBC1FF"/>
<path opacity="0.56" d="M188.795 160.36H160.925C159.115 160.36 157.635 161.83 157.635 163.65C157.635 165.46 159.105 166.94 160.925 166.94H188.795C190.605 166.94 192.085 165.47 192.085 163.65C192.085 161.83 190.615 160.36 188.795 160.36Z" fill="#EBC1FF"/>
<path d="M163.075 198.1V251.41C163.075 257.91 168.365 263.2 174.865 263.2C181.365 263.2 186.655 257.91 186.655 251.41V198.1H163.075Z" fill="#78EACC"/>
<path opacity="0.63" d="M183.425 235.85C183.425 237.8 181.845 239.39 179.885 239.39C177.935 239.39 176.345 237.81 176.345 235.85C176.345 233.89 177.925 232.31 179.885 232.31C181.845 232.31 183.425 233.89 183.425 235.85Z" fill="white"/>
<path opacity="0.63" d="M175.885 248.21C175.885 249.19 175.095 249.98 174.115 249.98C173.135 249.98 172.345 249.19 172.345 248.21C172.345 247.23 173.135 246.44 174.115 246.44C175.095 246.44 175.885 247.23 175.885 248.21Z" fill="white"/>
<path opacity="0.63" d="M179.885 212.4C180.863 212.4 181.655 211.608 181.655 210.63C181.655 209.652 180.863 208.86 179.885 208.86C178.907 208.86 178.115 209.652 178.115 210.63C178.115 211.608 178.907 212.4 179.885 212.4Z" fill="white"/>
<path opacity="0.63" d="M172.205 224.78C172.205 226.12 171.115 227.21 169.775 227.21C168.435 227.21 167.345 226.12 167.345 224.78C167.345 223.44 168.435 222.35 169.775 222.35C171.125 222.35 172.205 223.44 172.205 224.78Z" fill="white"/>
<path opacity="0.36" d="M224.495 265.46C216.735 265.46 210.455 259.17 210.455 251.42V183.45H238.545V251.42C238.535 259.17 232.245 265.46 224.495 265.46Z" fill="#EBC1FF"/>
<path opacity="0.56" d="M238.425 176.88H210.555C208.745 176.88 207.265 178.35 207.265 180.17C207.265 181.98 208.735 183.46 210.555 183.46H238.425C240.235 183.46 241.715 181.99 241.715 180.17C241.715 178.35 240.245 176.88 238.425 176.88Z" fill="#EBC1FF"/>
<path d="M212.705 214.63V251.42C212.705 257.92 217.995 263.21 224.495 263.21C230.995 263.21 236.285 257.92 236.285 251.42V214.63H212.705Z" fill="#EFD865"/>
<path opacity="0.63" d="M233.055 241.06C233.055 243.01 231.475 244.6 229.515 244.6C227.565 244.6 225.975 243.02 225.975 241.06C225.975 239.11 227.555 237.52 229.515 237.52C231.475 237.52 233.055 239.11 233.055 241.06Z" fill="white"/>
<path opacity="0.63" d="M221.295 256.51C221.295 257.49 220.505 258.28 219.525 258.28C218.545 258.28 217.755 257.49 217.755 256.51C217.755 255.53 218.545 254.74 219.525 254.74C220.495 254.74 221.295 255.54 221.295 256.51Z" fill="white"/>
<path opacity="0.63" d="M223.745 224.78C223.745 226.12 222.655 227.21 221.315 227.21C219.975 227.21 218.885 226.12 218.885 224.78C218.885 223.44 219.975 222.35 221.315 222.35C222.655 222.35 223.745 223.44 223.745 224.78Z" fill="white"/>
<path d="M236.275 214.63C236.275 215.75 230.995 216.66 224.485 216.66C217.975 216.66 212.695 215.75 212.695 214.63C212.695 213.51 217.975 212.6 224.485 212.6C230.995 212.6 236.275 213.51 236.275 214.63Z" fill="#FCF0C0"/>
<path d="M55.395 68C59.2279 68 62.335 64.8929 62.335 61.06C62.335 57.2271 59.2279 54.12 55.395 54.12C51.5622 54.12 48.455 57.2271 48.455 61.06C48.455 64.8929 51.5622 68 55.395 68Z" fill="#918FF9"/>
<path d="M15.755 61.07C15.755 54.86 33.165 50 55.395 50C77.625 50 95.035 54.86 95.035 61.06C95.035 67.26 77.625 72.12 55.395 72.12C33.165 72.13 15.755 67.27 15.755 61.07ZM94.025 61.07C94.025 55.62 76.335 51.01 55.395 51.01C34.455 51.01 16.765 55.62 16.765 61.07C16.765 66.52 34.455 71.13 55.395 71.13C76.335 71.12 94.025 66.52 94.025 61.07Z" fill="#BB8CCD"/>
<path d="M34.405 94.69C29.145 91.41 34.235 74.06 46.005 55.2C57.775 36.34 71.115 24.14 76.375 27.43C81.635 30.71 76.545 48.06 64.775 66.92C53.015 85.78 39.665 97.98 34.405 94.69ZM75.855 28.29C71.2351 25.4 57.955 37.97 46.865 55.74C35.775 73.51 30.315 90.95 34.945 93.84C39.565 96.73 52.845 84.15 63.935 66.39C75.015 48.62 80.475 31.18 75.855 28.29Z" fill="#BB8CCD"/>
<path d="M64.775 55.21C76.545 74.07 81.645 91.41 76.375 94.7C71.115 97.98 57.775 85.79 46.005 66.93C34.235 48.07 29.135 30.73 34.405 27.44C39.665 24.15 53.015 36.35 64.775 55.21ZM63.925 55.74C52.835 37.98 39.565 25.4 34.935 28.29C30.315 31.18 35.775 48.62 46.855 66.39C57.945 84.16 71.215 96.73 75.845 93.84C80.475 90.95 75.015 73.51 63.925 55.74Z" fill="#BB8CCD"/>
<path d="M305.775 121.03H137.435C132.355 121.03 128.235 116.91 128.235 111.83V9.2C128.235 4.12 132.355 0 137.435 0H305.775C310.855 0 314.975 4.12 314.975 9.2V111.84C314.975 116.91 310.855 121.03 305.775 121.03Z" fill="#661483"/>
<path d="M291.465 135.85H123.125C118.045 135.85 113.925 131.73 113.925 126.65V24.01C113.925 18.93 118.045 14.81 123.125 14.81H291.465C296.545 14.81 300.665 18.93 300.665 24.01V126.65C300.665 131.73 296.545 135.85 291.465 135.85Z" fill="#943AB4"/>
<path d="M135.985 36.58C139.285 33.28 144.655 33.28 147.955 36.58C151.255 39.88 151.255 45.25 147.955 48.55C144.655 51.85 139.285 51.85 135.985 48.55C132.685 45.25 132.685 39.88 135.985 36.58ZM145.295 45.89C147.125 44.06 147.125 41.07 145.295 39.24C143.465 37.41 140.475 37.41 138.645 39.24C136.815 41.07 136.815 44.06 138.645 45.89C140.475 47.73 143.465 47.73 145.295 45.89Z" fill="white"/>
<path d="M141.965 60.52C132.065 60.52 124.015 52.47 124.015 42.57C124.015 32.67 132.065 24.62 141.965 24.62C151.865 24.62 159.915 32.67 159.915 42.57C159.915 52.47 151.865 60.52 141.965 60.52ZM141.965 28.37C134.135 28.37 127.775 34.74 127.775 42.56C127.775 50.39 134.145 56.75 141.965 56.75C149.795 56.75 156.155 50.38 156.155 42.56C156.165 34.74 149.795 28.37 141.965 28.37Z" fill="white"/>
<path d="M135.985 36.58L138.645 39.24C136.815 41.07 136.815 44.06 138.645 45.89C140.475 47.72 143.465 47.72 145.295 45.89C147.125 44.06 147.125 41.07 145.295 39.24L147.955 36.58C151.255 39.88 151.255 45.25 147.955 48.55C144.655 51.85 139.285 51.85 135.985 48.55C132.685 45.25 132.685 39.88 135.985 36.58Z" fill="#92DEFF"/>
<path d="M141.965 60.52C132.065 60.52 124.015 52.47 124.015 42.57C124.015 32.67 132.065 24.62 141.965 24.62V28.38C134.135 28.38 127.775 34.75 127.775 42.57C127.775 50.4 134.145 56.76 141.965 56.76C149.795 56.76 156.155 50.39 156.155 42.57H159.915C159.925 52.46 151.865 60.52 141.965 60.52Z" fill="#E66FEF"/>
<path d="M180.455 33.96H165.305V36.49H180.455V33.96Z" fill="#C3C1FF"/>
<path d="M197.455 38.85H165.305V41.38H197.455V38.85Z" fill="#C3C1FF"/>
<path d="M191.595 48.65H165.305V51.18H191.595V48.65Z" fill="#C3C1FF"/>
<path d="M197.455 43.75H165.305V46.28H197.455V43.75Z" fill="#C3C1FF"/>
<path d="M127.915 92.21L140.145 76.48C141.055 75.31 142.855 75.4 143.645 76.65L151.185 88.57C151.835 89.61 153.225 89.88 154.225 89.18L160.885 84.49C161.665 83.94 162.705 83.97 163.455 84.56L172.905 92.08C173.885 92.86 175.335 92.63 176.025 91.58L185.415 77.37C186.355 75.95 188.495 76.14 189.165 77.7L203.215 110.21H127.905V92.21H127.915Z" fill="#C870E8"/>
<path d="M145.685 81.15C146.386 81.15 146.955 80.5814 146.955 79.88C146.955 79.1786 146.386 78.61 145.685 78.61C144.984 78.61 144.415 79.1786 144.415 79.88C144.415 80.5814 144.984 81.15 145.685 81.15Z" fill="#EAC344"/>
<path d="M166.275 85.9C166.275 86.6 165.705 87.17 165.005 87.17C164.305 87.17 163.735 86.6 163.735 85.9C163.735 85.2 164.305 84.63 165.005 84.63C165.705 84.63 166.275 85.2 166.275 85.9Z" fill="#EAC344"/>
<path d="M199.445 98.38C199.445 99.08 198.875 99.65 198.175 99.65C197.475 99.65 196.905 99.08 196.905 98.38C196.905 97.68 197.475 97.11 198.175 97.11C198.885 97.11 199.445 97.68 199.445 98.38Z" fill="#EAC344"/>
<path d="M184.835 80.34C184.835 81.04 184.265 81.61 183.565 81.61C182.865 81.61 182.295 81.04 182.295 80.34C182.295 79.64 182.865 79.07 183.565 79.07C184.265 79.07 184.835 79.64 184.835 80.34Z" fill="#EAC344"/>
<path d="M127.915 101.6L138.885 94.34C140.165 93.5 141.835 93.58 143.025 94.54L149.145 99.51C150.095 100.29 151.395 100.5 152.545 100.09L158.535 97.92C159.355 97.62 160.245 97.64 161.055 97.97L169.605 101.46C170.765 101.93 172.085 101.75 173.075 100.98L180.785 94.99C182.275 93.84 184.405 94.06 185.615 95.5L197.985 110.2H127.915V101.6Z" fill="#B448DB"/>
<path d="M206.605 110.45H127.535V66.7H128.295V109.69H206.605V110.45Z" fill="#C3C1FF"/>
<path d="M129.745 70.41H126.085V70.92H129.745V70.41Z" fill="#C3C1FF"/>
<path d="M129.745 76.32H126.085V76.83H129.745V76.32Z" fill="#C3C1FF"/>
<path d="M129.745 82.2401H126.085V82.7501H129.745V82.2401Z" fill="#C3C1FF"/>
<path d="M129.745 88.16H126.085V88.67H129.745V88.16Z" fill="#C3C1FF"/>
<path d="M129.745 94.08H126.085V94.59H129.745V94.08Z" fill="#C3C1FF"/>
<path d="M129.745 100H126.085V100.51H129.745V100Z" fill="#C3C1FF"/>
<path d="M129.745 105.92H126.085V106.43H129.745V105.92Z" fill="#C3C1FF"/>
<path d="M203.475 108.23H202.965V111.89H203.475V108.23Z" fill="#C3C1FF"/>
<path d="M195.565 108.23H195.055V111.89H195.565V108.23Z" fill="#C3C1FF"/>
<path d="M187.665 108.23H187.155V111.89H187.665V108.23Z" fill="#C3C1FF"/>
<path d="M179.755 108.23H179.245V111.89H179.755V108.23Z" fill="#C3C1FF"/>
<path d="M171.855 108.23H171.345V111.89H171.855V108.23Z" fill="#C3C1FF"/>
<path d="M163.945 108.23H163.435V111.89H163.945V108.23Z" fill="#C3C1FF"/>
<path d="M156.035 108.23H155.525V111.89H156.035V108.23Z" fill="#C3C1FF"/>
<path d="M148.135 108.23H147.625V111.89H148.135V108.23Z" fill="#C3C1FF"/>
<path d="M140.225 108.23H139.715V111.89H140.225V108.23Z" fill="#C3C1FF"/>
<path d="M132.325 108.23H131.815V111.89H132.325V108.23Z" fill="#C3C1FF"/>
<path d="M195.165 116.92H127.915V119.65H195.165V116.92Z" fill="#C3C1FF"/>
<path d="M195.165 122.7H127.915V125.43H195.165V122.7Z" fill="#C3C1FF"/>
<path d="M167.225 79.08H162.795V81.61H167.225V79.08Z" fill="#C3C1FF"/>
<path d="M147.895 72.42H143.465V74.95H147.895V72.42Z" fill="#C3C1FF"/>
<path d="M185.785 72.59H181.355V75.12H185.785V72.59Z" fill="#C3C1FF"/>
<path d="M200.395 91.09H195.965V93.62H200.395V91.09Z" fill="#C3C1FF"/>
<path d="M285.845 109.8H265.185C262.575 109.8 260.465 107.69 260.465 105.08V84.42C260.465 81.81 262.575 79.7 265.185 79.7H285.845C288.455 79.7 290.565 81.81 290.565 84.42V105.08C290.565 107.69 288.455 109.8 285.845 109.8Z" fill="#5451CE"/>
<path d="M236.056 95.1177H255.696V92.5877H236.056V95.1177Z" fill="#C3C1FF"/>
<path d="M214.014 100.009H255.694V97.4787H214.014V100.009Z" fill="#C3C1FF"/>
<path d="M221.613 109.801H255.693V107.271H221.613V109.801Z" fill="#C3C1FF"/>
<path d="M214.014 104.91H255.694V102.38H214.014V104.91Z" fill="#C3C1FF"/>
<path d="M281.575 105.24C284.193 105.24 286.315 103.118 286.315 100.5C286.315 97.8822 284.193 95.76 281.575 95.76C278.957 95.76 276.835 97.8822 276.835 100.5C276.835 103.118 278.957 105.24 281.575 105.24Z" fill="#EFD865"/>
<path d="M269.645 93.62C269.645 94.93 268.585 95.99 267.275 95.99C265.965 95.99 264.905 94.93 264.905 93.62C264.905 92.31 265.965 91.25 267.275 91.25C268.585 91.25 269.645 92.31 269.645 93.62Z" fill="#92DEFF"/>
<path d="M280.915 89.54C280.915 91.79 279.085 93.62 276.835 93.62C274.585 93.62 272.755 91.79 272.755 89.54C272.755 87.29 274.585 85.46 276.835 85.46C279.085 85.46 280.915 87.29 280.915 89.54Z" fill="#EB75FC"/>
<path d="M287.435 126.05H224.735C223.005 126.05 221.605 124.65 221.605 122.92V122.56C221.605 120.83 223.005 119.43 224.735 119.43H287.435C289.165 119.43 290.565 120.83 290.565 122.56V122.92C290.565 124.65 289.165 126.05 287.435 126.05Z" fill="#C3C1FF"/>
<path d="M247.415 66.9427C254.64 59.7181 254.64 48.0047 247.415 40.78C240.191 33.5554 228.477 33.5554 221.253 40.78C214.028 48.0047 214.028 59.7181 221.253 66.9427C228.477 74.1674 240.191 74.1674 247.415 66.9427Z" fill="#78EACC"/>
<path d="M235.135 27.8H234.335V38.66H235.135V27.8Z" fill="#78EACC"/>
<path d="M234.735 29.1C235.453 29.1 236.035 28.518 236.035 27.8C236.035 27.082 235.453 26.5 234.735 26.5C234.017 26.5 233.435 27.082 233.435 27.8C233.435 28.518 234.017 29.1 234.735 29.1Z" fill="#78EACC"/>
<path d="M216.167 32.8239L215.601 33.3896L223.28 41.0687L223.846 40.503L216.167 32.8239Z" fill="#78EACC"/>
<path d="M215.885 34.4C216.603 34.4 217.185 33.818 217.185 33.1C217.185 32.382 216.603 31.8 215.885 31.8C215.167 31.8 214.585 32.382 214.585 33.1C214.585 33.818 215.167 34.4 215.885 34.4Z" fill="#78EACC"/>
<path d="M217.195 50.78H206.335V51.58H217.195V50.78Z" fill="#78EACC"/>
<path d="M206.335 49.88C207.055 49.88 207.635 50.46 207.635 51.18C207.635 51.9 207.055 52.48 206.335 52.48C205.615 52.48 205.035 51.9 205.035 51.18C205.025 50.46 205.615 49.88 206.335 49.88Z" fill="#78EACC"/>
<path d="M223.889 64.2559L216.944 72.6051L217.559 73.1167L224.504 64.7675L223.889 64.2559Z" fill="#78EACC"/>
<path d="M216.255 72.03C216.715 71.48 217.535 71.4 218.085 71.86C218.635 72.32 218.715 73.14 218.255 73.69C217.795 74.24 216.975 74.32 216.425 73.86C215.865 73.41 215.795 72.59 216.255 72.03Z" fill="#78EACC"/>
<path d="M244.353 64.2249L243.813 64.8157L251.833 72.1386L252.373 71.5478L244.353 64.2249Z" fill="#78EACC"/>
<path d="M251.215 72.81C250.685 72.33 250.645 71.5 251.135 70.97C251.625 70.44 252.445 70.4 252.975 70.89C253.505 71.37 253.545 72.2 253.055 72.73C252.565 73.26 251.745 73.3 251.215 72.81Z" fill="#78EACC"/>
<path d="M235.645 66.84H234.845V77.7H235.645V66.84Z" fill="#78EACC"/>
<path d="M233.935 77.7C233.935 76.98 234.515 76.4 235.235 76.4C235.955 76.4 236.535 76.98 236.535 77.7C236.535 78.42 235.955 79 235.235 79C234.515 79 233.935 78.42 233.935 77.7Z" fill="#78EACC"/>
<path d="M244.543 59.4406L244.315 60.2075L254.726 63.2972L254.954 62.5302L244.543 59.4406Z" fill="#78EACC"/>
<path d="M254.475 64.17C253.785 63.97 253.395 63.24 253.595 62.55C253.795 61.86 254.525 61.47 255.215 61.67C255.905 61.87 256.295 62.6 256.095 63.29C255.885 63.98 255.165 64.38 254.475 64.17Z" fill="#78EACC"/>
<path d="M241.706 69.7217L240.94 69.951L244.054 80.3549L244.82 80.1256L241.706 69.7217Z" fill="#78EACC"/>
<path d="M243.195 80.63C242.985 79.94 243.385 79.22 244.065 79.01C244.755 78.8 245.475 79.2 245.685 79.88C245.895 80.57 245.495 81.29 244.815 81.5C244.125 81.71 243.405 81.32 243.195 80.63Z" fill="#78EACC"/>
<path d="M258.405 53.46H247.545V54.26H258.405V53.46Z" fill="#78EACC"/>
<path d="M258.405 55.16C257.685 55.16 257.105 54.58 257.105 53.86C257.105 53.14 257.685 52.56 258.405 52.56C259.125 52.56 259.705 53.14 259.705 53.86C259.705 54.58 259.125 55.16 258.405 55.16Z" fill="#78EACC"/>
<path d="M226.998 31.2553L226.223 31.4503L228.869 41.9823L229.645 41.7873L226.998 31.2553Z" fill="#78EACC"/>
<path d="M227.885 31.03C228.065 31.73 227.635 32.44 226.935 32.61C226.235 32.79 225.525 32.36 225.355 31.66C225.175 30.96 225.605 30.25 226.305 30.08C226.995 29.91 227.705 30.33 227.885 31.03Z" fill="#78EACC"/>
<path d="M244.539 32.9912L238.67 42.1288L239.343 42.5611L245.212 33.4235L244.539 32.9912Z" fill="#78EACC"/>
<path d="M245.985 33.91C245.595 34.52 244.795 34.69 244.185 34.3C243.575 33.91 243.405 33.11 243.795 32.5C244.185 31.89 244.985 31.72 245.595 32.11C246.195 32.5 246.365 33.31 245.985 33.91Z" fill="#78EACC"/>
<path d="M220.788 56.1994L211.631 62.0366L212.061 62.7112L221.218 56.8739L220.788 56.1994Z" fill="#78EACC"/>
<path d="M211.155 61.27C211.765 60.88 212.565 61.06 212.955 61.67C213.345 62.28 213.165 63.08 212.555 63.47C211.945 63.86 211.145 63.68 210.755 63.07C210.365 62.46 210.545 61.66 211.155 61.27Z" fill="#78EACC"/>
<path d="M228.609 68.4741L224.825 78.6543L225.575 78.933L229.358 68.7529L228.609 68.4741Z" fill="#78EACC"/>
<path d="M223.965 78.35C224.215 77.68 224.965 77.33 225.635 77.58C226.305 77.83 226.655 78.58 226.405 79.25C226.155 79.92 225.405 80.27 224.735 80.02C224.065 79.77 223.715 79.02 223.965 78.35Z" fill="#78EACC"/>
<path d="M255.664 37.7168L247.306 44.6509L247.816 45.2666L256.174 38.3324L255.664 37.7168Z" fill="#78EACC"/>
<path d="M256.745 39.01C256.195 39.47 255.375 39.39 254.915 38.84C254.455 38.29 254.535 37.47 255.085 37.01C255.635 36.55 256.455 36.63 256.915 37.18C257.375 37.73 257.305 38.55 256.745 39.01Z" fill="#78EACC"/>
<path d="M213.438 42.7925L212.995 43.4587L222.038 49.4729L222.481 48.8068L213.438 42.7925Z" fill="#78EACC"/>
<path d="M213.935 42.05C214.535 42.45 214.695 43.26 214.295 43.86C213.895 44.46 213.085 44.62 212.485 44.22C211.885 43.82 211.725 43.01 212.125 42.41C212.525 41.81 213.335 41.65 213.935 42.05Z" fill="#78EACC"/>
<path d="M248.802 56.6609C250.344 50.0962 246.271 43.5248 239.707 41.9833C233.142 40.4418 226.571 44.5138 225.029 51.0785C223.488 57.6432 227.56 64.2146 234.124 65.7562C240.689 67.2977 247.26 63.2256 248.802 56.6609Z" fill="#69CCB0"/>
<path d="M284.415 30.57H269.265V33.1H284.415V30.57Z" fill="#C3C1FF"/>
<path d="M284.415 38.29H269.265V40.82H284.415V38.29Z" fill="#C3C1FF"/>
<path d="M284.415 46H269.265V48.53H284.415V46Z" fill="#C3C1FF"/>
<path d="M284.415 53.72H269.265V56.25H284.415V53.72Z" fill="#C3C1FF"/>
<path d="M284.415 61.44H269.265V63.97H284.415V61.44Z" fill="#C3C1FF"/>
<path d="M166.925 166.72C166.925 166.72 168.995 167.75 172.005 167.81C172.555 167.98 171.655 171.43 169.945 172.36C168.995 172.73 166.475 172.31 165.745 171.96C164.685 171.45 162.335 169.89 162.335 169.89C162.335 169.89 161.145 167.54 162.975 166.32C162.975 166.32 166.535 164.36 167.445 164.7C168.475 165.09 170.115 164.87 170.115 165.29C170.125 166 168.645 166.93 166.925 166.72Z" fill="#FFC6BB"/>
<path d="M140.125 261.63C138.665 261.38 136.415 261.78 136.415 261.78C135.975 263.86 136.095 265.07 136.095 265.07C136.095 265.07 149.445 265.16 149.715 265L140.125 261.63Z" fill="#C870E8"/>
<path d="M118.515 261.63C117.055 261.38 114.745 261.94 114.745 261.94C114.325 264 114.485 265.07 114.485 265.07C114.485 265.07 128.335 265.23 128.105 265L118.515 261.63Z" fill="#C870E8"/>
<path d="M136.415 261.78C135.345 218.44 129.885 197.74 129.885 197.74C129.285 223.92 118.505 261.63 118.505 261.63C116.385 261.98 114.735 261.94 114.735 261.94C118.315 214.63 115.335 191.6 115.335 191.6C123.955 187.89 143.005 191.6 143.005 191.6C143.005 191.6 147.495 206.6 140.115 261.62C140.125 261.63 138.335 262.22 136.415 261.78Z" fill="#3F0A58"/>
<path d="M131.005 151.08C131.005 151.08 145.785 159.44 149.625 158.68C151.395 158.33 163.865 141.8 163.865 141.8L161.425 139.12C161.425 139.12 149.925 149.04 148.205 149.41C146.515 149.77 133.245 138.22 133.245 138.22L131.005 151.08Z" fill="#BECCCC"/>
<path d="M124.295 140.55L125.365 128.86L132.505 130.41L132.585 140.37L132.145 141.6C131.015 144.73 126.715 145.04 125.145 142.12L124.295 140.55Z" fill="#FFC6BB"/>
<path d="M140.975 147.67L148.375 210.56C128.535 215.19 111.725 211.55 111.725 211.55C110.515 196.26 113.205 155.61 114.755 146.34C116.225 137.54 122.735 132.32 131.425 134.31C131.665 134.36 131.895 134.42 132.115 134.48C137.595 135.97 140.615 142 140.975 147.67Z" fill="white"/>
<path d="M138.005 119.64C138.125 122 138.365 125.53 137.335 128.5C136.675 130.4 132.795 131.95 132.065 132.13C130.565 132.51 129.305 127.02 129.565 123.27C129.835 119.52 138.005 119.64 138.005 119.64Z" fill="#FFC6BB"/>
<path d="M134.115 166.84L162.345 169.89L162.985 166.33L139.695 157.75L134.115 166.84Z" fill="white"/>
<path d="M138.915 112.3C135.105 107.38 131.515 113.79 130.845 113.86C127.285 114.19 123.055 115.11 122.465 117.69C120.805 124.87 123.365 131.33 129.075 131.4C132.855 131.45 133.355 129.84 133.595 127.58C133.595 127.58 132.645 128.16 131.955 125.83C131.405 123.99 132.865 123.35 133.425 124.53C133.425 124.53 133.905 124.63 134.355 124.2C134.355 124.2 134.155 122.54 135.625 121.73C139.465 119.64 140.695 114.6 138.915 112.3Z" fill="#42388E"/>
<path d="M134.755 139.67C135.115 141.78 136.025 145.66 137.225 150.06C137.825 152.26 138.425 154.31 138.965 156.06C139.125 156.5 139.185 156.9 139.415 157.34C139.645 157.75 140.015 158.03 140.405 158.16C141.125 158.38 141.745 158.56 142.265 158.7C141.785 158.47 141.185 158.2 140.515 157.9C140.205 157.75 139.935 157.49 139.775 157.16C139.635 156.85 139.575 156.36 139.455 155.93C139.035 154.15 138.505 152.08 137.905 149.88C136.705 145.47 135.525 141.67 134.755 139.67Z" fill="#AFAFAF"/>
<path d="M123.125 146.33C124.225 149.44 126.505 155.13 129.275 161.59C129.635 162.38 129.915 163.22 130.405 163.98C130.875 164.73 131.485 165.37 132.155 165.88C132.825 166.39 133.575 166.76 134.325 167C135.085 167.25 135.855 167.31 136.545 167.38C139.355 167.66 141.705 167.86 143.345 167.95C141.725 167.65 139.395 167.28 136.605 166.88C135.895 166.78 135.195 166.7 134.505 166.45C133.825 166.2 133.145 165.85 132.545 165.37C131.945 164.89 131.395 164.3 130.975 163.62C130.545 162.95 130.265 162.13 129.905 161.32C127.155 154.86 124.615 149.28 123.125 146.33Z" fill="#AFAFAF"/>
<path d="M177.945 148.12L163.285 143.96C162.615 143.77 162.225 143.07 162.415 142.4L165.165 132.72C165.355 132.05 166.055 131.66 166.725 131.85L181.385 136.01C182.055 136.2 182.445 136.9 182.255 137.57L179.505 147.25C179.315 147.92 178.615 148.31 177.945 148.12Z" fill="#EDF4F4"/>
<path d="M166.204 132.733L163.307 142.929L178.476 147.239L181.373 137.043L166.204 132.733Z" fill="#5451CE"/>
<path d="M164.255 135.95C166.255 134.92 166.395 133.56 165.955 133.2C165.625 132.93 163.795 134 162.855 134.58C162.025 135.1 161.425 139.12 161.425 139.12L162.895 140.73L164.255 135.95Z" fill="#FFC6BB"/>
<path d="M291.745 121.16C291.745 121.16 295.835 119.68 297.515 123.76C299.195 127.84 294.685 130.75 298.595 132.41C302.495 134.07 301.275 138.05 298.975 138.94C296.735 139.81 292.755 138.37 292.115 133.67C291.275 127.59 296.765 124.95 291.275 123.1L291.745 121.16Z" fill="#CC6DC7"/>
<path d="M278.015 123.21C278.015 123.21 276.305 120.32 278.725 116.97C281.785 112.73 288.425 113.46 291.155 117.13C293.845 120.75 292.355 126.05 290.975 127.61C288.375 130.55 285.825 130 285.825 130L278.015 123.21Z" fill="#CC6DC7"/>
<path d="M239.345 124.06C239.345 124.06 240.125 123.42 240.035 122.79C239.905 121.89 239.295 120.4 240.305 120.69C240.765 120.82 241.605 121.87 241.825 122.81C242.085 123.93 242.925 125.92 242.925 125.92C242.925 125.92 242.305 128.13 239.995 127.08C239.995 127.08 237.235 126.42 235.895 126.21C234.225 126.09 231.665 123.88 231.655 123.55C231.645 123.21 231.745 122.19 234.745 123.69C235.565 124.09 238.415 124.17 239.345 124.06Z" fill="#FFC6BB"/>
<path d="M305.315 191.41C305.315 191.41 305.425 193.72 304.275 196.5C304.205 197.07 307.725 197.64 309.265 196.45C309.985 195.73 310.625 193.25 310.595 192.45C310.555 191.27 310.075 188.5 310.075 188.5C310.075 188.5 308.405 186.47 306.555 187.65C306.555 187.65 303.325 190.12 303.275 191.09C303.215 192.19 302.355 193.61 302.745 193.78C303.365 194.05 304.815 193.07 305.315 191.41Z" fill="#FFC6BB"/>
<path d="M292.815 260.95C291.255 260.65 288.845 261.13 288.845 261.13C288.035 263.5 288.505 265.07 288.505 265.07C288.505 265.07 302.785 265.18 303.085 264.99C304.875 263.87 300.335 262.4 292.815 260.95Z" fill="#C870E8"/>
<path d="M270.105 260.95C271.665 260.65 274.075 261.13 274.075 261.13C274.885 263.5 274.415 265.07 274.415 265.07C274.415 265.07 260.135 265.18 259.835 264.99C258.055 263.87 262.585 262.4 270.105 260.95Z" fill="#C870E8"/>
<path d="M274.075 261.13C278.205 209.9 282.355 186.85 282.355 186.85C287.955 220.62 288.855 261.13 288.855 261.13C291.365 261.54 293.505 261.03 293.305 261C303.515 200.42 296.825 175.1 296.825 175.1C286.635 170.72 269.755 176.83 269.755 176.83C269.755 176.83 260.995 200.08 270.115 260.95C270.105 260.95 271.815 261.65 274.075 261.13Z" fill="#3F0A58"/>
<path d="M264.705 208.2C281.845 212.3 302.525 207.87 302.525 207.87C298.265 171.92 297.695 155.59 297.695 155.59C297.695 155.59 302.325 164.04 303.515 167.88C304.125 170.99 306.555 187.65 306.555 187.65L310.075 188.5C310.075 188.5 311.365 174.72 311.345 166.97C310.105 160.58 300.445 137.74 297.735 136.01C294.495 134.1 289.835 134.12 285.015 134.05C276.865 133.93 270.085 135.42 267.855 136C263.655 137.09 256.215 139.47 254.435 138.66C253.255 138.12 242.945 125.91 242.945 125.91L240.015 127.07C240.015 127.07 248.825 144.76 251.625 146.83C253.275 148.05 262.955 147.63 267.945 146.57L264.705 208.2Z" fill="white"/>
<path d="M282.215 153.18C283.525 150.88 285.735 146.49 288.125 141.38C288.475 140.62 288.825 139.88 289.165 139.15C288.935 138.75 288.705 138.35 288.485 137.95L288.195 137.44C288.145 137.35 288.165 137.39 288.145 137.36C287.985 137.37 288.725 137.28 289.165 137.22C289.925 137.13 290.665 137.03 291.375 136.95C290.605 136.55 289.865 136.16 289.155 135.8C288.675 135.56 288.225 135.34 287.805 135.13C286.955 134.71 286.205 134.36 285.595 134.09C286.165 134.46 286.855 134.9 287.675 135.39C288.085 135.63 288.515 135.89 288.975 136.17L289.325 136.38C289.475 136.47 289.505 136.49 289.535 136.51L289.705 136.63C289.485 136.63 289.185 136.64 287.135 136.85C287.545 137.6 287.975 138.38 288.415 139.19C288.125 139.81 287.825 140.45 287.515 141.1C285.105 146.19 283.145 150.7 282.215 153.18Z" fill="#AFAFAF"/>
<path d="M282.215 153.18C281.425 150.77 279.725 146.38 277.625 141.4C277.455 140.99 277.275 140.59 277.115 140.19C277.565 139.38 277.995 138.6 278.405 137.84C277.725 137.77 277.065 137.71 276.415 137.65L276.055 137.62L275.875 137.6H275.835H275.665C275.715 137.55 275.725 137.53 275.835 137.43C276.065 137.24 276.285 137.06 276.495 136.88C276.925 136.52 277.325 136.18 277.705 135.86C278.455 135.22 279.095 134.66 279.605 134.19C279.025 134.57 278.325 135.05 277.515 135.62C277.115 135.91 276.685 136.21 276.225 136.54C275.995 136.7 275.765 136.87 275.525 137.05C275.115 137.36 274.695 137.67 274.265 137.99C274.925 138.07 275.615 138.16 276.325 138.25C276.765 138.31 277.505 138.4 277.335 138.38C277.315 138.41 277.335 138.37 277.285 138.45L276.995 138.96C276.775 139.35 276.545 139.75 276.315 140.15C276.525 140.65 276.735 141.16 276.955 141.68C279.085 146.64 281.045 150.93 282.215 153.18Z" fill="#AFAFAF"/>
<path d="M282.215 153.18C282.005 158.86 281.865 169.43 281.865 181.56C281.865 193.69 282.005 204.27 282.215 209.94C282.425 204.27 282.565 193.69 282.565 181.56C282.565 169.43 282.425 158.85 282.215 153.18Z" fill="#AFAFAF"/>
<path d="M285.585 134.09L285.265 127.07H279.685L279.625 134.19L282.215 153.18L285.585 134.09Z" fill="#E8B5D6"/>
<path d="M285.075 137.05C285.075 137.05 282.535 138.86 279.995 136.87L282.215 153.18L285.075 137.05Z" fill="#6A60EA"/>
<path d="M288.715 125.33C290.165 124.36 290.755 125.56 290.195 126.74C289.445 128.3 287.755 127.91 287.755 127.91C287.755 127.91 284.145 132.99 280.515 131.7C275.715 130 278.155 120.74 278.155 120.74C278.155 120.74 280.455 120.97 282.795 119.23C282.785 119.23 283.395 122.65 288.715 125.33Z" fill="#FFD4EA"/>
<path d="M281.335 126.02C281.205 125.92 281.015 125.79 280.855 125.61C280.765 125.49 280.785 125.5 280.815 125.49H280.845L280.955 125.44C281.035 125.41 281.115 125.35 281.195 125.3C281.805 124.84 281.945 124.18 281.925 123.86C281.745 124.13 281.485 124.65 280.995 125.01C280.845 125.11 280.815 125.13 280.525 125.26C280.355 125.28 280.465 125.47 280.495 125.57C280.565 125.7 280.625 125.74 280.685 125.79C280.935 125.97 281.175 126.01 281.335 126.02Z" fill="#E8A6CA"/>
<path d="M283.835 124.83C283.685 125.25 283.905 125.72 284.325 125.87C284.745 126.02 285.215 125.8 285.365 125.38C285.515 124.96 285.295 124.49 284.875 124.34C284.445 124.18 283.985 124.4 283.835 124.83Z" fill="white"/>
<path d="M284.265 125.5C284.505 125.58 284.765 125.46 284.845 125.22C284.925 124.98 284.805 124.72 284.565 124.64C284.325 124.56 284.065 124.68 283.985 124.92C283.905 125.15 284.025 125.41 284.265 125.5Z" fill="#444444"/>
<path d="M278.585 122.96C278.435 123.38 278.655 123.85 279.075 124C279.495 124.15 279.965 123.93 280.115 123.51C280.265 123.09 280.045 122.62 279.625 122.47C279.205 122.32 278.735 122.54 278.585 122.96Z" fill="white"/>
<path d="M279.025 123.64C279.265 123.72 279.525 123.6 279.605 123.36C279.685 123.12 279.565 122.86 279.325 122.78C279.085 122.7 278.825 122.82 278.745 123.06C278.665 123.29 278.785 123.55 279.025 123.64Z" fill="#444444"/>
<path d="M284.375 123.83C284.545 123.92 284.815 124 285.105 124.12C285.395 124.24 285.635 124.37 285.825 124.43C285.815 124.24 285.605 123.94 285.245 123.79C284.875 123.64 284.525 123.71 284.375 123.83Z" fill="#444444"/>
<path d="M280.295 122.38C280.255 122.2 280.025 121.92 279.645 121.81C279.275 121.7 278.925 121.8 278.795 121.94C278.975 122.01 279.255 122.06 279.545 122.15C279.845 122.23 280.105 122.34 280.295 122.38Z" fill="#444444"/>
<path d="M279.785 126.46C279.855 126.69 280.165 127.04 280.645 127.2C281.125 127.36 281.575 127.29 281.775 127.16C281.545 127.08 281.165 127 280.755 126.87C280.345 126.73 280.015 126.55 279.785 126.46Z" fill="#FC83A0"/>
<path d="M282.965 124.42C282.655 125.37 283.175 126.4 284.125 126.71C285.075 127.02 286.105 126.5 286.415 125.55C286.725 124.6 286.205 123.57 285.255 123.26C284.305 122.94 283.275 123.46 282.965 124.42Z" stroke="#444444" stroke-width="0.25" stroke-miterlimit="10"/>
<path d="M277.615 122.55C277.305 123.5 277.825 124.53 278.775 124.84C279.725 125.15 280.755 124.63 281.065 123.68C281.375 122.73 280.855 121.7 279.905 121.39C278.955 121.07 277.935 121.6 277.615 122.55Z" stroke="#444444" stroke-width="0.25" stroke-miterlimit="10"/>
<path d="M282.965 124.42L281.075 123.68" stroke="#444444" stroke-width="0.25" stroke-miterlimit="10"/>
<path d="M286.425 125.55L288.845 125.4" stroke="#444444" stroke-width="0.25" stroke-miterlimit="10" stroke-linecap="round"/>
<path d="M174.865 200.13C181.376 200.13 186.655 199.221 186.655 198.1C186.655 196.979 181.376 196.07 174.865 196.07C168.354 196.07 163.075 196.979 163.075 198.1C163.075 199.221 168.354 200.13 174.865 200.13Z" fill="#ABFFE7"/>
<path opacity="0.36" d="M86.415 252.22L57.045 171.93V128.98C56.425 129.35 55.705 129.57 54.925 129.57H32.265C31.485 129.57 30.765 129.35 30.145 128.98V171.93L0.775002 252.22C-1.455 258.32 3.055 264.78 9.555 264.78H77.635C84.125 264.78 88.645 258.32 86.415 252.22Z" fill="#B966E0"/>
<path opacity="0.56" d="M54.925 121.3H32.265C29.985 121.3 28.125 123.15 28.125 125.44C28.125 127.72 29.975 129.58 32.265 129.58H54.925C57.205 129.58 59.065 127.73 59.065 125.44C59.055 123.15 57.205 121.3 54.925 121.3Z" fill="#6F2D8D"/>
<path d="M82.345 253.71L69.045 217.36H18.145L4.84502 253.71C4.27502 255.27 4.49502 256.94 5.44502 258.3C6.39502 259.66 7.89502 260.44 9.55502 260.44H77.635C79.295 260.44 80.795 259.66 81.745 258.3C82.695 256.94 82.915 255.27 82.345 253.71Z" fill="#E66FEF"/>
<path opacity="0.63" d="M34.145 231.64C35.1225 231.64 35.915 230.848 35.915 229.87C35.915 228.892 35.1225 228.1 34.145 228.1C33.1675 228.1 32.375 228.892 32.375 229.87C32.375 230.848 33.1675 231.64 34.145 231.64Z" fill="white"/>
<path opacity="0.63" d="M62.915 250.18C62.915 251.88 61.545 253.25 59.845 253.25C58.145 253.25 56.775 251.87 56.775 250.18C56.775 248.48 58.145 247.11 59.845 247.11C61.535 247.11 62.915 248.49 62.915 250.18Z" fill="white"/>
<path opacity="0.63" d="M61.755 231.63C61.755 233.89 59.925 235.72 57.665 235.72C55.405 235.72 53.575 233.89 53.575 231.63C53.575 229.37 55.405 227.54 57.665 227.54C59.935 227.55 61.755 229.38 61.755 231.63Z" fill="white"/>
<path opacity="0.63" d="M28.125 253.6C31.7093 253.6 34.615 250.694 34.615 247.11C34.615 243.526 31.7093 240.62 28.125 240.62C24.5407 240.62 21.635 243.526 21.635 247.11C21.635 250.694 24.5407 253.6 28.125 253.6Z" fill="white"/>
<path d="M43.535 220.83C57.6238 220.83 69.045 219.276 69.045 217.36C69.045 215.444 57.6238 213.89 43.535 213.89C29.4462 213.89 18.025 215.444 18.025 217.36C18.025 219.276 29.4462 220.83 43.535 220.83Z" fill="#EE9FF7"/>
</g>
<defs>
<clipPath id="clip0_215_581">
<rect width="336.61" height="265.46" fill="white" transform="translate(0.195007)"/>
</clipPath>
</defs>
</svg>
