<svg width="155" height="121" viewBox="0 0 155 121" fill="none" xmlns="http://www.w3.org/2000/svg">
<path d="M80.3679 16.3393C83.3649 16.3393 86.3631 16.3739 89.359 16.323C90.6799 16.3002 91.6952 17.3415 91.5738 18.5475C91.5099 19.1846 91.6637 19.8488 91.2368 20.4242C90.9085 20.8663 90.5401 21.1816 89.9344 21.1361C89.4316 21.0981 88.9191 21.1729 88.4196 21.1187C87.6655 21.0364 87.2104 21.6984 87.1638 22.2554C87.1508 22.4168 87.1551 22.5804 87.1551 22.743C87.1551 26.2276 87.154 29.7123 87.1551 33.1969C87.1551 34.3531 87.6481 35.0194 88.7154 35.4669C90.1273 36.0575 91.5489 36.6382 92.9076 37.3371C93.9457 37.8702 94.9328 38.5258 95.8689 39.2246C97.0554 40.1099 97.6557 41.3906 97.8486 42.8307C98.2061 45.5016 97.0012 47.8355 94.5969 49.0588C92.9748 49.8845 91.2574 49.9798 89.5855 49.2105C88.8585 48.8757 88.2452 48.3014 87.5517 47.8843C80.3418 43.5382 70.6669 46.6252 67.2776 54.3443C63.9566 61.9096 67.4608 70.5378 75.0878 73.576C80.4242 75.7019 86.8116 74.3302 90.6907 70.0556C92.2391 68.349 95.4496 67.7563 97.712 69.0273C101.185 70.9788 101.885 75.5416 99.1141 78.4097C95.3597 82.2963 90.8132 84.7874 85.5201 85.8601C80.9194 86.793 76.3685 86.521 71.9228 84.99C65.4237 82.7525 60.5402 78.569 57.2506 72.5499C55.6166 69.5593 54.6533 66.3456 54.3207 62.9422C53.637 55.9566 55.44 49.6732 59.72 44.1374C62.9142 40.007 67.0328 37.1117 71.9964 35.4442C73.028 35.0974 73.6087 34.2989 73.6098 33.2013C73.6131 29.6624 73.6131 26.1236 73.6098 22.5848C73.6087 21.5381 73.1883 21.1317 72.1297 21.1317C71.6963 21.1317 71.2629 21.1317 70.8295 21.1317C69.9236 21.1307 69.3299 20.7395 69.1673 19.851C69.0503 19.2085 69.0341 18.5128 69.1424 17.8703C69.3049 16.907 70.1263 16.3447 71.1589 16.3436C74.2285 16.3371 77.2982 16.3393 80.3679 16.3393Z" fill="white"/>
<path d="M73.1873 70.7957C74.714 69.5984 76.1865 68.4412 77.6612 67.2861C79.0254 66.2178 80.4361 65.2036 81.7396 64.0659C82.4634 63.4342 83.184 63.2955 84.0541 63.5068C84.2285 63.549 84.4095 63.5729 84.5883 63.5815C84.9437 63.5989 85.1495 63.7321 85.2958 64.0995C85.7227 65.1711 86.7673 65.7118 87.9299 65.5351C88.9029 65.3878 89.7687 64.4657 89.8716 63.4678C89.9843 62.3788 89.3493 61.3289 88.3633 60.9702C87.2635 60.5704 86.1583 60.9009 85.5158 61.8804C85.3175 62.1827 85.0889 62.1567 84.8277 62.1263C84.1657 62.0472 83.5069 61.9075 82.8438 61.8869C82.4981 61.876 82.0745 61.9703 81.809 62.1751C78.696 64.5816 75.6068 67.0185 72.5101 69.4467C72.3421 69.5789 72.1666 69.7014 72.0181 69.8097C71.6086 69.4467 71.2239 69.1054 70.7883 68.7197C71.7678 67.9504 72.6574 67.2504 73.5492 66.5515C77.0566 63.8004 80.5683 61.0526 84.0682 58.2917C84.4138 58.0187 84.6836 57.8854 85.156 58.0804C86.1724 58.4997 87.2505 58.1573 87.8649 57.3295C88.5215 56.4454 88.515 55.2838 87.8497 54.4083C87.2397 53.6065 86.1247 53.2977 85.1224 53.6531C84.1765 53.989 83.4332 54.9652 83.5957 55.9567C83.7106 56.6566 83.4007 56.9427 82.9434 57.2992C78.7014 60.6061 74.4713 63.9293 70.2368 67.2461C70.1404 67.3219 70.0353 67.388 69.8836 67.4931C69.5932 67.0261 69.3234 66.5894 69.0341 66.1235C70.8208 64.7268 72.5697 63.3616 74.3163 61.9942C75.8376 60.8033 77.3426 59.5919 78.8845 58.4293C79.3634 58.0685 79.3829 57.582 79.461 57.0955C79.5379 56.6155 79.6007 56.129 79.6181 55.6435C79.6332 55.2166 79.7784 54.9782 80.2021 54.8103C81.1589 54.4289 81.7429 53.3952 81.6302 52.4276C81.5078 51.3777 80.7634 50.5531 79.7318 50.3245C78.6126 50.0763 77.503 50.6463 77.0306 51.7125C76.595 52.6963 76.9114 53.9446 77.8205 54.5589C78.151 54.7821 78.2301 54.9923 78.1618 55.3542C78.0881 55.7421 78.0664 56.1409 78.0285 56.5353C77.9819 57.0164 77.8086 57.3761 77.3892 57.7001C74.5471 59.8953 71.7332 62.1285 68.9095 64.3487C68.7697 64.4581 68.618 64.5535 68.411 64.6976C68.2659 64.2241 68.1001 63.8047 68.0242 63.3692C67.9971 63.2153 68.1456 62.9704 68.2864 62.8588C69.7535 61.6886 71.2163 60.5097 72.7235 59.3915C73.3325 58.9407 73.6619 58.4293 73.638 57.6773C73.6239 57.2288 73.7529 56.9394 74.2708 56.7845C75.2601 56.4876 75.8376 55.4398 75.7401 54.3368C75.6512 53.3378 74.8429 52.4406 73.8797 52.2705C72.7604 52.0722 71.6963 52.575 71.2391 53.5155C70.7569 54.508 70.9769 55.6825 71.7754 56.3814C72.366 56.8983 72.3584 57.7543 71.7418 58.2408C70.4253 59.2799 69.1002 60.3093 67.7663 61.3538C67.1736 57.6817 68.8651 52.0711 74.2026 49.0708C79.4512 46.1203 86.1529 47.3761 90.11 52.0343C94.0519 56.674 94.1364 63.5122 90.3191 68.2548C86.4574 73.0517 80.3711 73.873 76.2699 72.2542C77.5659 71.2389 78.8314 70.2258 80.1252 69.2528C80.3874 69.0556 80.7525 68.945 81.0841 68.905C81.5771 68.8454 81.9054 69.0393 82.1351 69.5702C82.5534 70.54 83.6077 70.9539 84.7356 70.7307C85.7173 70.5368 86.5018 69.6461 86.5733 68.6449C86.6513 67.5559 86.0261 66.5331 85.0748 66.1907C84.0162 65.8104 82.8383 66.0921 82.2922 67.0088C81.991 67.5137 81.6356 67.5224 81.226 67.4162C80.5077 67.2309 79.9626 67.4281 79.397 67.8962C78.035 69.0231 76.595 70.0568 75.2373 71.1901C74.7508 71.5965 74.3792 71.5997 73.9143 71.2595C73.6976 71.1024 73.4647 70.9713 73.1873 70.7957Z" fill="white"/>
<path d="M78.0632 14.2632C76.3263 14.2621 74.8993 12.8633 74.947 11.1404C74.9925 9.46746 76.1551 8.0762 78.1033 8.0166C79.8066 7.96568 81.2336 9.47613 81.2185 11.1784C81.2033 12.9229 79.8315 14.2643 78.0632 14.2632Z" fill="white"/>
<path d="M80.7753 6.31542C80.7688 4.87215 81.9423 3.67484 83.3682 3.66942C84.7735 3.664 85.9958 4.89707 85.9839 6.30783C85.9719 7.71102 84.7963 8.90182 83.404 8.92349C81.9856 8.94516 80.7818 7.75002 80.7753 6.31542Z" fill="white"/>
<path d="M79.4186 0.394969C80.4566 0.391719 81.2248 1.13394 81.2194 2.13513C81.214 3.1049 80.4371 3.86229 79.4489 3.86121C78.4152 3.86012 77.7098 3.16666 77.699 2.13838C77.6871 1.11335 78.3935 0.39822 79.4186 0.394969Z" fill="white"/>
<path d="M85.0825 68.3902C85.0922 68.8941 84.726 69.283 84.2265 69.3015C83.727 69.3199 83.2773 68.8973 83.2752 68.4065C83.273 67.9535 83.7172 67.518 84.1821 67.5169C84.6805 67.518 85.0727 67.8983 85.0825 68.3902Z" fill="white"/>
<path d="M79.2343 51.7622C79.7533 51.7654 80.1012 52.1176 80.1033 52.6431C80.1055 53.1459 79.7252 53.5565 79.2506 53.562C78.7576 53.5685 78.3361 53.135 78.3447 52.6312C78.3534 52.1252 78.7283 51.7589 79.2343 51.7622Z" fill="white"/>
<path d="M73.3672 55.4885C72.8969 55.4853 72.4429 55.0453 72.4462 54.5968C72.4505 54.12 72.8731 53.7104 73.3629 53.7083C73.8732 53.7072 74.2535 54.0832 74.2579 54.5935C74.2622 55.0876 73.8591 55.4918 73.3672 55.4885Z" fill="white"/>
<path d="M87.4858 64.0712C86.9873 64.0647 86.5886 63.6692 86.5864 63.1784C86.5843 62.6897 86.9863 62.2877 87.4825 62.2823C87.9777 62.2769 88.3699 62.6734 88.3699 63.1773C88.3699 63.6876 87.9842 64.0777 87.4858 64.0712Z" fill="white"/>
<path d="M86.8551 55.8525C86.8659 56.3596 86.4954 56.7421 85.9861 56.7486C85.4497 56.7562 85.0922 56.4192 85.0803 55.8959C85.0683 55.3671 85.4129 55.0085 85.9395 55.0009C86.4564 54.9933 86.8443 55.3541 86.8551 55.8525Z" fill="white"/>
<path d="M56.1711 120.817C56.0338 120.87 55.9982 120.891 55.9576 120.898C54.0668 121.254 52.7503 120.657 51.6804 118.936C50.3106 116.733 48.618 114.728 46.8568 112.354C46.8568 115.389 46.8568 118.067 46.8568 120.837C45.7183 120.837 44.689 120.837 43.5809 120.837C43.5809 116.25 43.5809 111.665 43.5809 106.951C44.2824 106.951 44.9685 106.85 45.6039 106.982C46.1554 107.096 46.8161 107.348 47.1414 107.762C49.0602 110.224 50.8951 112.751 53.0223 115.201C53.0223 112.491 53.0223 109.782 53.0223 107.015C54.1583 107.015 55.1138 107.015 56.1711 107.015C56.1711 111.604 56.1711 116.187 56.1711 120.817Z" fill="white"/>
<path d="M72.8861 121C68.5785 120.997 65.3687 117.955 65.4093 113.909C65.45 109.927 68.6699 106.943 72.9166 106.956C77.1709 106.969 80.3731 109.96 80.3807 113.937C80.3884 118.016 77.2192 121.003 72.8861 121ZM76.7897 114.014C76.7999 111.719 75.1887 109.98 73.0132 109.942C70.7844 109.904 69.0054 111.653 68.9698 113.92C68.9343 116.159 70.7005 118.052 72.8582 118.095C75.0336 118.138 76.7796 116.324 76.7897 114.014Z" fill="white"/>
<path d="M153.974 108.499C153.512 109.447 153.128 110.235 152.704 111.109C152.353 110.982 152.058 110.862 151.751 110.768C150.704 110.448 149.669 109.998 148.599 109.876C148.012 109.81 147.011 110.143 146.813 110.575C146.393 111.49 147.321 111.869 148.033 112.13C149.141 112.54 150.292 112.829 151.395 113.249C153.123 113.904 154.01 115.137 154.023 116.761C154.035 118.362 153.151 119.716 151.466 120.342C148.119 121.582 145.102 120.738 142.177 118.73C142.625 117.826 143.029 117.005 143.374 116.306C144.8 116.868 146.152 117.417 147.517 117.927C147.824 118.042 148.185 118.082 148.516 118.065C149.278 118.019 150.259 117.983 150.226 117.007C150.208 116.494 149.532 115.8 148.988 115.549C147.847 115.023 146.587 114.763 145.395 114.341C143.941 113.826 143.11 112.814 143.041 111.223C142.973 109.602 143.689 108.402 145.11 107.741C148.122 106.341 151.011 106.88 153.974 108.499Z" fill="white"/>
<path d="M134.307 109.371C133.643 110.138 133.016 110.865 132.393 111.589C129.803 109.561 127.6 109.432 126.007 111.155C124.644 112.629 124.609 115.094 125.93 116.619C127.468 118.395 129.72 118.349 132.266 116.497C132.934 117.114 133.6 117.734 134.258 118.342C132.088 121.32 126.985 121.915 124.004 119.475C120.929 116.959 120.489 112.313 123.092 109.406C125.946 106.214 131.105 106.143 134.307 109.371Z" fill="white"/>
<path d="M12.0168 111.566C9.30005 109.569 7.18814 109.449 5.60993 111.147C4.20453 112.659 4.20707 115.188 5.61501 116.715C7.16781 118.403 9.38392 118.319 11.9457 116.428C12.5912 117.063 13.2469 117.709 13.8898 118.342C11.4425 121.516 6.26815 121.887 3.282 119.19C0.326345 116.522 0.194192 111.853 2.99736 109.088C5.96319 106.161 11.1959 106.278 13.867 109.401C13.2545 110.12 12.6344 110.847 12.0168 111.566Z" fill="white"/>
<path d="M30.2541 120.886C28.7801 120.886 27.7305 120.886 26.6123 120.886C26.5742 120.581 26.4751 120.291 26.5132 120.021C26.8664 117.46 26.0329 115.246 24.7164 113.094C23.5372 111.165 22.5562 109.114 21.3973 106.951C22.4164 106.951 23.2221 106.865 23.9997 106.984C24.4496 107.053 25.0163 107.345 25.2425 107.713C26.2489 109.37 27.1536 111.091 28.2439 113.061C28.9224 111.808 29.507 110.728 30.094 109.647C30.1347 109.574 30.1931 109.505 30.2186 109.426C30.9251 107.096 32.483 106.374 34.8617 107.149C34.6304 107.619 34.3687 108.173 34.0866 108.717C33.5986 109.653 33.1005 110.585 32.5948 111.513C31.0191 114.395 29.0953 117.173 30.2541 120.886Z" fill="white"/>
<path d="M92.4447 109.795C90.963 109.795 89.672 109.795 88.3199 109.795C88.3199 108.822 88.3199 107.991 88.3199 107.053C92.1676 107.053 96.0382 107.053 100.005 107.053C100.005 107.876 100.005 108.738 100.005 109.731C98.7067 109.731 97.4156 109.731 95.9467 109.731C95.9467 113.503 95.9467 117.15 95.9467 120.86C94.7294 120.86 93.6874 120.86 92.4447 120.86C92.4447 117.223 92.4447 113.579 92.4447 109.795Z" fill="white"/>
<path d="M108.87 120.837C108.87 116.23 108.87 111.676 108.87 107.035C109.97 107.035 111.048 107.035 112.235 107.035C112.235 111.587 112.235 116.166 112.235 120.837C111.17 120.837 110.092 120.837 108.87 120.837Z" fill="white"/>
</svg>
