<svg width="153" height="96" viewBox="0 0 153 96" fill="none" xmlns="http://www.w3.org/2000/svg">
<g opacity="0.1">
<path d="M9.12648 37.3891L5.09956 38.2022L0.497358 15.3983L3.70355 13.3196L23.2936 27.341L20.9004 30.6852L15.7613 27.0112C13.2761 28.6296 10.5148 30.1176 7.92223 31.4676L9.12648 37.3891ZM12.1639 24.4262L5.55977 19.7013L7.08617 27.2719C8.78898 26.3668 10.5301 25.4157 12.1639 24.4262Z" fill="#C1CAE3"/>
<path d="M98.3247 38.578C99.1991 37.0976 100.503 35.8857 101.838 34.8272C103.702 33.3468 105.711 32.0582 107.744 30.8233C108.235 30.5241 108.733 30.2327 109.232 29.9412C107.805 29.0054 106.386 28.0466 104.998 27.0495C103.318 25.8452 101.631 24.595 100.204 23.0993C99.2758 22.1251 98.409 20.9746 98.0792 19.6476C97.7877 18.4664 97.9412 17.2545 98.386 16.1346C98.923 14.777 99.6977 13.4193 100.856 12.4989C101.999 11.5861 103.418 11.1949 104.875 11.2409C106.624 11.3023 108.342 11.8546 109.953 12.5065C112.193 13.4116 114.333 14.5315 116.442 15.6974C116.572 15.7741 116.71 15.8508 116.841 15.9198C116.856 15.5593 116.872 15.1988 116.895 14.8307C117.071 12.1307 117.355 9.38472 118.137 6.78447C118.728 4.8132 119.656 2.78823 121.297 1.47661C122.808 0.264693 124.718 -0.141835 126.628 0.0422533C128.001 0.172649 129.297 0.586847 130.371 1.46126C130.908 1.89847 131.345 2.42773 131.706 3.01067C131.928 2.96465 132.158 2.93397 132.389 2.93397C134.153 2.93397 135.579 4.36065 135.579 6.12483C135.579 7.5285 134.674 8.7174 133.416 9.13927C133.432 9.27733 133.447 9.4154 133.455 9.55346C133.639 11.6781 133.647 13.8182 133.624 15.9505C133.754 15.8815 133.877 15.8125 134.007 15.7511C136.584 14.4471 139.269 13.2122 142.092 12.5449C144.239 12.031 146.586 11.8392 148.657 12.752C150.46 13.5497 151.679 15.1451 152.408 16.9323C153.474 19.5172 152.792 22.0408 151.004 24.1041C148.604 26.8654 145.152 28.7446 141.977 30.5088C142.161 30.6315 142.345 30.7389 142.529 30.8616C143.127 31.2528 143.718 31.6594 144.308 32.0736C145.19 31.4753 146.249 31.1301 147.392 31.1301C150.437 31.1301 152.914 33.5999 152.914 36.6527C152.914 37.926 152.477 39.0996 151.756 40.0277C151.971 40.5799 152.132 41.1552 152.209 41.7535C152.454 43.6788 151.772 45.5196 150.629 47.0537C149.823 48.1429 148.803 49.0096 147.514 49.4699C146.28 49.9071 144.93 49.861 143.656 49.6309C142.038 49.3318 140.496 48.6875 139.016 47.9895C137.068 47.0767 135.188 45.9952 133.34 44.8907C133.133 44.7679 132.933 44.6452 132.734 44.5225C132.634 46.233 132.511 47.9358 132.343 49.6386C132.135 51.7326 131.898 53.8726 131.269 55.8899C130.87 57.1785 130.279 58.4978 129.244 59.4106C128.262 60.2774 127.05 60.6685 125.761 60.8143C124.289 60.983 122.747 60.8987 121.382 60.2543C120.101 59.6484 119.15 58.5132 118.544 57.2476C117.746 55.5754 117.416 53.7346 117.186 51.9014C116.879 49.4468 116.81 46.9617 116.779 44.4918C116.779 44.3307 116.779 44.1697 116.772 44.0086C115.92 44.4381 115.061 44.86 114.202 45.2665C114.248 45.4966 114.271 45.7267 114.271 45.9722C114.271 48.0815 112.561 49.7843 110.459 49.7843C109.155 49.7843 108.005 49.1324 107.314 48.1276C107.038 48.2119 106.77 48.281 106.494 48.35C105.167 48.6798 103.732 48.8716 102.39 48.5111C101.232 48.1966 100.25 47.4679 99.4982 46.5398C98.5931 45.4199 97.7878 44.0853 97.55 42.6509C97.2815 41.2319 97.596 39.8206 98.3247 38.578ZM113.044 15.6207C111.257 14.7079 109.424 13.8258 107.491 13.2582C104.913 12.4912 102.359 12.4835 100.779 14.8307C100.434 15.3522 100.058 16.0579 99.8664 16.5411C99.7667 16.7866 99.6823 17.0397 99.6133 17.2928C99.5366 17.5843 99.4906 17.8067 99.4752 17.9601C99.3755 19.0263 99.644 19.8164 100.258 20.7445C101.101 22.0177 102.367 23.0916 103.571 24.0581C105.535 25.6381 107.644 27.0418 109.746 28.4301C110.068 28.6449 110.39 28.8443 110.712 29.0591C112.707 27.8856 114.701 26.7273 116.71 25.5768C116.71 25.1856 116.71 24.8021 116.71 24.4109C116.695 22.1558 116.695 19.8931 116.764 17.638C115.529 16.94 114.294 16.265 113.044 15.6207ZM113.895 31.1224C114.839 31.6747 115.782 32.2423 116.718 32.8022C116.718 30.992 116.718 29.1742 116.718 27.364C115.445 28.108 114.172 28.8443 112.891 29.5807C112.653 29.7188 112.407 29.8568 112.17 29.9949C112.745 30.3707 113.32 30.7543 113.895 31.1224ZM120.154 40.5493C121.236 39.9356 122.325 39.3297 123.414 38.7314C121.712 37.6576 120.001 36.5914 118.283 35.5405C118.291 36.8522 118.291 38.1638 118.291 39.4831C118.291 40.1581 118.291 40.8331 118.291 41.5081C118.904 41.1859 119.533 40.8714 120.154 40.5493ZM124.956 37.8723C127.127 36.6834 129.313 35.5175 131.499 34.3593C131.56 31.644 131.652 28.9287 131.752 26.2057C129.558 24.9478 127.349 23.6899 125.155 22.4396C122.847 23.7819 120.538 25.1319 118.229 26.4742C118.237 28.8904 118.252 31.3142 118.268 33.7303C120.507 35.0957 122.739 36.484 124.956 37.8723ZM131.414 39.8283C131.422 38.5933 131.445 37.3584 131.468 36.1235C129.796 37.0056 128.124 37.8953 126.459 38.8004C127.671 39.5598 128.883 40.3192 130.103 41.0785C130.509 41.3316 130.908 41.5848 131.315 41.8379C131.338 41.1782 131.384 40.5032 131.414 39.8283ZM133.056 33.5386C134.329 32.8636 135.61 32.1886 136.883 31.506C137.566 31.1454 138.256 30.7773 138.947 30.4168C138.41 30.0869 137.865 29.7648 137.321 29.4426C135.971 28.6449 134.621 27.8625 133.271 27.0802C133.186 29.2355 133.11 31.3832 133.056 33.5386ZM131.951 20.5757C131.974 19.8931 131.997 19.2027 132.028 18.5201C131.361 18.8883 130.701 19.2564 130.041 19.6323C128.922 20.2689 127.809 20.9056 126.697 21.5499C128.4 22.5393 130.103 23.5211 131.806 24.5029C131.859 23.1913 131.913 21.8874 131.951 20.5757ZM118.252 19.801C118.229 21.4348 118.222 23.0686 118.222 24.71C120.032 23.6745 121.834 22.6314 123.637 21.5805C122.463 20.9056 121.282 20.2306 120.108 19.5556C119.495 19.2027 118.889 18.8499 118.275 18.4971C118.268 18.9266 118.26 19.3638 118.252 19.801ZM131.89 9.26199C130.364 9.02421 129.198 7.70491 129.198 6.11716C129.198 5.14302 129.635 4.27628 130.318 3.69333C129.827 2.93397 129.221 2.38937 128.316 1.99052C128.032 1.86779 127.15 1.63768 126.789 1.59166C126.03 1.49962 125.225 1.48428 124.473 1.63768C122.701 1.99819 121.443 3.19476 120.599 4.75184C119.518 6.74612 119.065 9.0779 118.758 11.3023C118.513 13.1048 118.398 14.9304 118.329 16.7559C120.622 18.0445 122.908 19.3485 125.186 20.6754C127.464 19.3331 129.75 17.9985 132.089 16.7482C132.158 14.2477 132.166 11.7318 131.89 9.26199ZM147.729 25.0322C148.788 24.2038 149.854 23.245 150.56 22.1481C151.158 21.22 151.457 20.3456 151.411 19.2871C151.388 18.7962 151.273 18.2746 151.066 17.707C150.836 17.0781 150.468 16.3647 150.038 15.7818C148.926 14.2707 147.2 13.6417 145.374 13.6417C142.951 13.6494 140.558 14.4932 138.348 15.4136C136.722 16.0886 135.142 16.871 133.585 17.6917C133.531 20.2536 133.439 22.8155 133.34 25.3697C133.554 25.4924 133.762 25.6151 133.976 25.7379C136.178 26.9805 138.371 28.2384 140.519 29.573C143.02 28.2154 145.497 26.7734 147.729 25.0322ZM141.225 47.2761C142.49 47.7747 143.848 48.2043 145.144 48.2503C146.257 48.2886 147.131 48.0815 148.051 47.4679C148.987 46.8466 149.862 45.6347 150.33 44.4841C150.774 43.3873 150.79 42.2674 150.506 41.1936C149.616 41.7995 148.542 42.16 147.384 42.16C144.339 42.16 141.861 39.6902 141.861 36.6374C141.861 35.3028 142.337 34.0755 143.127 33.1167C142.245 32.4954 141.34 31.9048 140.427 31.3295C137.965 32.6795 135.495 33.9911 133.01 35.3028C132.979 36.8061 132.956 38.3172 132.949 39.8206C132.903 40.8101 132.856 41.7995 132.803 42.7813C135.51 44.4765 138.287 46.1179 141.225 47.2761ZM118.383 47.629C118.467 49.7076 118.605 51.8093 119.035 53.8496C119.326 55.2226 119.794 56.7413 120.638 57.7538C121.405 58.6666 122.386 59.1652 123.529 59.2956C124.81 59.449 126.015 59.3646 127.173 58.9044C127.196 58.8967 127.265 58.866 127.418 58.7893C127.518 58.7356 127.61 58.6819 127.71 58.6282C128.017 58.4441 128.001 58.4518 128.239 58.2217C128.684 57.8075 128.883 57.5084 129.19 56.9254C129.865 55.6368 130.187 53.9954 130.433 52.492C130.839 49.9761 131 47.4219 131.154 44.883C131.177 44.4535 131.2 44.0239 131.223 43.5944C129.106 42.2981 127.004 40.9865 124.902 39.6595C123.575 40.3882 122.248 41.1245 120.937 41.8762C120.055 42.3288 119.18 42.7813 118.298 43.2339C118.298 44.6989 118.321 46.1639 118.383 47.629ZM99.5596 43.8859C99.8357 44.4228 100.25 45.0671 100.564 45.4583C100.887 45.8571 101.316 46.279 101.615 46.4861C102.513 47.0844 103.326 47.2301 104.453 47.1534C105.182 47.0997 105.941 46.9387 106.701 46.7162C106.655 46.4784 106.624 46.2253 106.624 45.9722C106.624 43.8629 108.334 42.16 110.436 42.16C111.755 42.16 112.921 42.8274 113.604 43.8475C114.317 43.5023 115.031 43.1495 115.744 42.789C116.081 42.6203 116.411 42.4515 116.741 42.2828C116.718 39.7209 116.71 37.159 116.71 34.5894C115.514 33.8684 114.317 33.1474 113.113 32.4417C112.292 31.9201 111.479 31.3909 110.666 30.8616C109.109 31.7744 107.552 32.7102 106.041 33.6997C104.415 34.7582 102.804 35.878 101.4 37.228C100.426 38.1638 99.4829 39.2837 99.1224 40.5493C98.8156 41.6615 98.992 42.789 99.5596 43.8859Z" fill="#C1CAE3"/>
<path d="M67.4976 78.9009C69.2541 78.387 71.1027 79.3995 71.6089 81.1637C71.839 81.946 71.7623 82.7438 71.4555 83.4341L83.1911 90.0306C83.636 89.3096 84.3417 88.742 85.2237 88.4888C85.5075 88.4045 85.7913 88.3661 86.0752 88.3508L86.1519 79.3611C84.6255 79.016 83.3292 77.8731 82.8613 76.27C82.1786 73.9152 83.5286 71.4454 85.8834 70.7627C88.2382 70.08 90.708 71.43 91.3907 73.7848C91.6898 74.828 91.5978 75.8865 91.1913 76.8069L97.5346 80.8032C97.9488 80.2662 98.5318 79.8444 99.2374 79.6373C101.002 79.1234 102.85 80.1358 103.364 81.9C103.878 83.6642 102.866 85.5127 101.101 86.0267C100.089 86.3258 99.0457 86.111 98.2403 85.5434L89.6342 90.8973C89.6342 90.905 89.6419 90.905 89.6419 90.9127C90.1941 92.8072 89.1049 94.7862 87.2104 95.3384C85.3158 95.8907 83.3368 94.8015 82.7846 92.9069C82.5775 92.1936 82.6005 91.4649 82.8153 90.8053L71.0029 84.1628C70.5888 84.6767 70.0211 85.0755 69.3462 85.275C67.5896 85.7889 65.7411 84.7764 65.2349 83.0122C64.7286 81.2557 65.7411 79.4148 67.4976 78.9009ZM97.596 84.9375C97.3199 84.6 97.1051 84.2088 96.9824 83.7639C96.7599 82.9969 96.8213 82.2222 97.1128 81.5395L90.7847 77.5509C90.2248 78.3563 89.3964 78.993 88.3763 79.2844C87.9237 79.4148 87.4635 79.4685 87.0109 79.4609L86.9342 88.4121C87.9084 88.6116 88.7751 89.2175 89.2967 90.0996L97.596 84.9375Z" fill="#C1CAE3"/>
<path d="M52.1339 19.9391C53.2385 19.9391 54.1282 20.7905 54.2126 21.872C55.2021 22.1328 56.1992 22.3629 57.204 22.5394C57.7103 20.4223 58.8838 18.4511 60.6557 17.1164C60.0957 16.104 59.6432 15.0301 59.3977 13.9179C58.2932 13.8565 57.4111 12.9514 57.4111 11.8316C57.4111 10.6734 58.3469 9.73758 59.5051 9.73758C60.6634 9.73758 61.5991 10.6734 61.5991 11.8316C61.5991 12.5449 61.2463 13.1662 60.7017 13.5497C60.9241 14.5392 61.323 15.4827 61.8062 16.3878C63.3173 15.59 65.1582 15.1989 67.2905 15.4213C67.3365 15.429 67.3672 15.4366 67.4132 15.4443C67.559 14.6312 67.651 13.8182 67.6894 12.9975C66.8303 12.7367 66.209 11.9466 66.209 11.0032C66.209 9.84496 67.1448 8.90918 68.303 8.90918C69.4612 8.90918 70.397 9.84496 70.397 11.0032C70.397 11.8929 69.8371 12.6523 69.047 12.9591C69.0087 13.8872 68.909 14.8077 68.7402 15.7204C70.8649 16.2804 72.4526 17.3772 73.5572 18.7656C74.4393 18.0906 75.26 17.3389 76.1114 16.6179C75.9733 16.3417 75.889 16.0349 75.889 15.6974C75.889 14.5392 76.8247 13.6034 77.983 13.6034C79.1412 13.6034 80.077 14.5392 80.077 15.6974C80.077 16.8556 79.1412 17.7914 77.983 17.7914C77.6531 17.7914 77.3463 17.707 77.0702 17.569C76.1574 18.3514 75.2677 19.1567 74.3165 19.8854C75.3674 21.7647 75.6972 23.9814 75.375 26.1061C75.7049 26.1137 76.0424 26.1214 76.3645 26.1444C76.9551 26.1828 77.5381 26.2671 78.098 26.4359C78.4815 26.0217 79.0261 25.7609 79.6321 25.7609C80.7903 25.7609 81.7261 26.6967 81.7261 27.8549C81.7261 29.0131 80.7903 29.9489 79.6321 29.9489C78.4739 29.9489 77.5381 29.0131 77.5381 27.8549C77.5381 27.8012 77.5534 27.7475 77.5534 27.6938C77.0779 27.5711 76.587 27.5174 76.0961 27.4944C75.7509 27.4791 75.4134 27.4637 75.0759 27.456C74.516 29.3966 73.3961 31.1531 71.77 32.3497C72.1075 33.2855 72.5293 34.1983 72.9589 35.1034C73.0202 35.0957 73.0816 35.088 73.143 35.088C74.3012 35.088 75.237 36.0238 75.237 37.182C75.237 38.3402 74.3012 39.276 73.143 39.276C71.9848 39.276 71.049 38.3402 71.049 37.182C71.049 36.5761 71.3098 36.0391 71.7163 35.6556C71.3174 34.8042 70.9186 33.9451 70.5888 33.0707C69.4689 33.6307 68.1726 33.9605 66.7076 33.9605C66.0479 33.9605 65.419 33.9145 64.8283 33.8301C64.6979 34.6125 64.6059 35.4025 64.4755 36.1925C65.1121 36.5531 65.5494 37.228 65.5494 38.0104C65.5494 39.1686 64.6136 40.1044 63.4553 40.1044C62.2971 40.1044 61.3614 39.1686 61.3614 38.0104C61.3614 36.9596 62.1361 36.0928 63.1485 35.9471C63.2866 35.1571 63.3863 34.3593 63.509 33.5693C61.4304 33.0247 59.8733 31.9585 58.7918 30.5932C57.8483 31.2605 56.9279 31.9355 56.0458 32.6719C56.2146 32.971 56.3219 33.3162 56.3219 33.692C56.3219 34.8502 55.3862 35.786 54.2279 35.786C53.0697 35.786 52.1339 34.8502 52.1339 33.692C52.1339 32.5338 53.0697 31.598 54.2279 31.598C54.5117 31.598 54.7879 31.6594 55.0333 31.7591C55.9998 30.946 57.0123 30.1943 58.0401 29.4657C57.112 27.7859 56.7745 25.8146 56.9739 23.8893C55.9308 23.7129 54.8953 23.4751 53.8751 23.2067C53.4993 23.7743 52.855 24.1501 52.1263 24.1501C50.9681 24.1501 50.0323 23.2143 50.0323 22.0561C50.0399 20.8826 50.9757 19.9391 52.1339 19.9391ZM70.0058 27.9393C71.2101 27.9393 72.1842 26.9651 72.1842 25.7609C72.1842 24.5567 71.2101 23.5825 70.0058 23.5825C68.8016 23.5825 67.8274 24.5567 67.8274 25.7609C67.8274 26.9651 68.8016 27.9393 70.0058 27.9393ZM67.3749 20.2306C67.3749 19.2334 66.5618 18.4204 65.5647 18.4204C64.5675 18.4204 63.7545 19.2334 63.7545 20.2306C63.7545 21.2277 64.5675 22.0408 65.5647 22.0408C66.5695 22.0408 67.3749 21.2277 67.3749 20.2306ZM63.0718 30.1637C64.7593 30.1637 66.1246 28.7983 66.1246 27.1109C66.1246 25.4234 64.7593 24.0581 63.0718 24.0581C61.3844 24.0581 60.019 25.4234 60.019 27.1109C60.019 28.7983 61.3844 30.1637 63.0718 30.1637Z" fill="#C1CAE3"/>
<path d="M135.978 83.9864L133.401 83.2884L134.168 80.0898L136.83 80.8108C137.137 80.2126 137.459 79.6986 137.804 79.2614L136.454 76.8453L139.123 75.1655L140.397 77.4589C140.972 77.3055 141.585 77.2595 142.245 77.3208L142.897 74.5979L145.904 75.3956L145.244 78.1339C145.842 78.433 146.349 78.7935 146.771 79.2077L148.957 77.8271L150.537 80.6651L148.343 82.0458C148.489 82.6747 148.542 83.3267 148.504 83.9864L151.074 84.6844L150.307 87.8829L147.645 87.1619C147.369 87.7065 147.031 88.2127 146.64 88.6653L148.013 91.1351L145.344 92.8149L144.017 90.4371C143.457 90.6135 142.851 90.6979 142.222 90.6672L141.57 93.3902L138.563 92.5695L139.254 89.6931C139.192 89.6547 139.139 89.624 139.077 89.5857C138.617 89.3096 138.21 88.9951 137.85 88.6576L135.503 90.138L133.923 87.2999L136.155 85.8886C136.009 85.2826 135.948 84.646 135.978 83.9864ZM142.245 87.2462C144.048 87.2462 145.505 85.7889 145.505 83.9864C145.505 82.1838 144.048 80.7265 142.245 80.7265C140.443 80.7265 138.985 82.1838 138.985 83.9864C138.985 85.7889 140.443 87.2462 142.245 87.2462Z" fill="#C1CAE3"/>
<path d="M41.9018 57.7692L38.2507 55.3607C38.2507 55.3607 40.383 55.4604 42.8606 55.5831L44.8932 50.9426L46.3506 55.7519C48.5059 55.8593 50.2778 55.9513 50.3928 55.9743L46.9718 57.8152L48.2144 61.9342L44.2182 59.3033L40.2833 61.4203L41.9018 57.7692Z" fill="#C1CAE3"/>
</g>
</svg>
