<svg width="23" height="23" viewBox="0 0 23 23" fill="none" xmlns="http://www.w3.org/2000/svg">
<circle cx="11.6306" cy="11.4746" r="10.7069" fill="#57126E"/>
<path d="M14.6061 8.62366H13.2246V8.51809C13.2246 7.87734 12.7005 7.35657 12.0556 7.35657H11.2054C10.5606 7.35657 10.0364 7.87734 10.0364 8.51809V8.62366H8.65493C8.47894 8.62366 8.33612 8.76557 8.33612 8.94043C8.33612 9.11529 8.47894 9.25721 8.65493 9.25721H8.76118V14.4311C8.76118 15.0719 9.28531 15.5926 9.93018 15.5926H13.3309C13.9758 15.5926 14.4999 15.0719 14.4999 14.4311V9.25721H14.6062C14.7821 9.25721 14.925 9.11529 14.925 8.94043C14.925 8.76557 14.7821 8.62366 14.6062 8.62366H14.6061ZM10.6742 8.51809C10.6742 8.22706 10.9126 7.99011 11.2055 7.99011H12.0557C12.3486 7.99011 12.5871 8.22706 12.5871 8.51809V8.62366H10.6742V8.51809H10.6742ZM11.0992 13.1642C11.0992 13.339 10.9564 13.4809 10.7804 13.4809C10.6044 13.4809 10.4616 13.339 10.4616 13.1642V11.0523C10.4616 10.8774 10.6044 10.7355 10.7804 10.7355C10.9564 10.7355 11.0992 10.8774 11.0992 11.0523V13.1642ZM12.7995 13.1642C12.7995 13.339 12.6567 13.4809 12.4807 13.4809C12.3047 13.4809 12.1619 13.339 12.1619 13.1642V11.0523C12.1619 10.8774 12.3047 10.7355 12.4807 10.7355C12.6567 10.7355 12.7995 10.8774 12.7995 11.0523V13.1642Z" fill="white"/>
</svg>
