<svg width="166" height="156" viewBox="0 0 166 156" fill="none" xmlns="http://www.w3.org/2000/svg">
<path opacity="0.4" d="M94 141.882C133.764 141.882 166 110.123 166 70.9458C166 31.769 133.764 0.00985718 94 0.00985718C54.2355 0.00985718 22 31.769 22 70.9458C22 110.123 54.2355 141.882 94 141.882Z" fill="#743F87"/>
<g clip-path="url(#clip0_219_5)">
<mask id="mask0_219_5" style="mask-type:alpha" maskUnits="userSpaceOnUse" x="6" y="129" width="126" height="14">
<path d="M6.0718 129.913L131.245 130.1L131.228 142.968L6.05054 142.781L6.0718 129.913Z" fill="url(#paint0_radial_219_5)"/>
</mask>
<g mask="url(#mask0_219_5)">
<path opacity="0.25" d="M4.52393 154.097L129.697 154.288L129.731 134.417L4.55369 134.225L4.52393 154.097Z" fill="url(#paint1_linear_219_5)"/>
</g>
</g>
<path d="M129.306 59.7687L128.928 104.605L4.09863 108.43V59.7687H129.306Z" fill="url(#paint2_linear_219_5)"/>
<path d="M81.2162 18.7111L69.9389 9.07937C68.0806 7.49572 65.3251 7.49572 63.4668 9.07937L52.1894 18.7111L4.09912 59.7813H129.307L81.2162 18.7111Z" fill="url(#paint3_linear_219_5)"/>
<path d="M18.357 135.901C23.3535 136.215 28.3713 136.354 33.3807 136.467C51.4278 136.877 69.4792 136.4 87.5051 135.553C96.0694 135.151 104.646 134.812 113.198 134.23C116.6 133.999 120.002 133.706 123.387 133.299V41.2048L104.2 22.3058H16.9196C13.3732 22.3058 10.4985 25.1379 10.4985 28.632V135.449C13.118 135.528 15.7417 135.738 18.357 135.901Z" fill="white"/>
<path d="M110.625 41.2048H123.387L104.2 22.3058V34.8786C104.2 38.3727 107.075 41.2048 110.625 41.2048Z" fill="#F2F2F2"/>
<path d="M66.7023 113.236L4.09863 59.7687V141.909H129.306V59.7687L66.7023 113.236Z" fill="url(#paint4_linear_219_5)"/>
<path d="M66.7023 113.236L52.1889 100.839L4.09863 141.909H129.306L81.2158 100.839L66.7023 113.236Z" fill="url(#paint5_linear_219_5)"/>
<path d="M81.2158 100.839L69.9384 91.2071C68.0802 89.6234 65.3246 89.6234 63.4663 91.2071L52.189 100.839L66.7024 113.236L81.2158 100.839Z" fill="url(#paint6_linear_219_5)"/>
<path opacity="0.03" d="M81.9132 100.244L81.7218 100.407L81.2158 100.839L129.306 141.909V138.034" fill="black"/>
<path opacity="0.4" d="M81.9133 100.244L81.7219 100.408L81.9133 100.244Z" fill="#F6AF33"/>
<path opacity="0.03" d="M4.09863 138.034V141.909L52.1889 100.839L51.6659 100.395L51.4915 100.244L4.09863 138.034Z" fill="black"/>
<path opacity="0.5" d="M51.4915 100.244L51.6658 100.395L51.4915 100.244Z" fill="#F6AF33"/>
<path d="M66.9405 79.7068C78.7701 79.7068 88.3598 70.2588 88.3598 58.604C88.3598 46.9493 78.7701 37.5013 66.9405 37.5013C55.111 37.5013 45.5212 46.9493 45.5212 58.604C45.5212 70.2588 55.111 79.7068 66.9405 79.7068Z" fill="url(#paint7_linear_219_5)"/>
<path d="M53.2224 60.6611L62.684 70.7914C63.0794 71.2146 63.7598 71.1936 64.1255 70.7453L80.7013 50.6188C81.0415 50.204 80.965 49.5923 80.527 49.2739L76.4574 46.3035C76.0407 45.9977 75.4539 46.0773 75.135 46.4837L64.2446 60.3427C63.8916 60.791 63.224 60.8329 62.8158 60.4307L58.1211 55.8054C57.7469 55.4367 57.1388 55.4409 56.7646 55.8138L53.2309 59.3665C52.8864 59.7268 52.8779 60.2924 53.2224 60.6611Z" fill="white"/>
<defs>
<radialGradient id="paint0_radial_219_5" cx="0" cy="0" r="1" gradientUnits="userSpaceOnUse" gradientTransform="translate(69.0838 135.44) rotate(-179.909) scale(61.7254 40.8831)">
<stop stop-color="white"/>
<stop offset="0.1614" stop-color="#FCFCFC"/>
<stop offset="0.2917" stop-color="#F2F2F2"/>
<stop offset="0.4112" stop-color="#E1E1E1"/>
<stop offset="0.5243" stop-color="#C9C9C9"/>
<stop offset="0.6328" stop-color="#AAAAAA"/>
<stop offset="0.738" stop-color="#848484"/>
<stop offset="0.8405" stop-color="#575757"/>
<stop offset="0.9382" stop-color="#242424"/>
<stop offset="1"/>
</radialGradient>
<linearGradient id="paint1_linear_219_5" x1="67.1275" y1="132.455" x2="67.1275" y2="154.876" gradientUnits="userSpaceOnUse">
<stop stop-color="#71756F"/>
<stop offset="0.0317" stop-color="#828680"/>
<stop offset="0.1035" stop-color="#A3A6A2"/>
<stop offset="0.1833" stop-color="#C0C2BF"/>
<stop offset="0.2716" stop-color="#D7D8D7"/>
<stop offset="0.3722" stop-color="#E9EAE9"/>
<stop offset="0.4921" stop-color="#F6F6F6"/>
<stop offset="0.6505" stop-color="#FDFDFD"/>
<stop offset="1" stop-color="white"/>
</linearGradient>
<linearGradient id="paint2_linear_219_5" x1="66.7022" y1="138.571" x2="66.7022" y2="13.4482" gradientUnits="userSpaceOnUse">
<stop stop-color="#FFD03F"/>
<stop offset="0.1968" stop-color="#FDCA3A"/>
<stop offset="0.4642" stop-color="#F6B82B"/>
<stop offset="0.7709" stop-color="#EB9C12"/>
<stop offset="0.8989" stop-color="#E58E06"/>
<stop offset="1" stop-color="#DF8800"/>
</linearGradient>
<linearGradient id="paint3_linear_219_5" x1="66.7027" y1="64.0183" x2="66.7027" y2="-17.5979" gradientUnits="userSpaceOnUse">
<stop stop-color="#FFD03F"/>
<stop offset="0.1968" stop-color="#FDCA3A"/>
<stop offset="0.4642" stop-color="#F6B82B"/>
<stop offset="0.7709" stop-color="#EB9C12"/>
<stop offset="0.8989" stop-color="#E58E06"/>
<stop offset="1" stop-color="#DF8800"/>
</linearGradient>
<linearGradient id="paint4_linear_219_5" x1="66.7023" y1="56.5518" x2="66.7023" y2="144.781" gradientUnits="userSpaceOnUse">
<stop stop-color="#FFD03F"/>
<stop offset="0.1968" stop-color="#FDCA3A"/>
<stop offset="0.4642" stop-color="#F6B82B"/>
<stop offset="0.7709" stop-color="#EB9C12"/>
<stop offset="0.8989" stop-color="#E58E06"/>
<stop offset="1" stop-color="#DF8800"/>
</linearGradient>
<linearGradient id="paint5_linear_219_5" x1="66.7023" y1="86.3974" x2="66.7023" y2="160.751" gradientUnits="userSpaceOnUse">
<stop stop-color="#FFD03F"/>
<stop offset="0.1968" stop-color="#FDCA3A"/>
<stop offset="0.4642" stop-color="#F6B82B"/>
<stop offset="0.7709" stop-color="#EB9C12"/>
<stop offset="0.8989" stop-color="#E58E06"/>
<stop offset="1" stop-color="#DF8800"/>
</linearGradient>
<linearGradient id="paint6_linear_219_5" x1="66.7023" y1="86.3974" x2="66.7023" y2="160.751" gradientUnits="userSpaceOnUse">
<stop stop-color="#FFD03F"/>
<stop offset="0.1968" stop-color="#FDCA3A"/>
<stop offset="0.4642" stop-color="#F6B82B"/>
<stop offset="0.7709" stop-color="#EB9C12"/>
<stop offset="0.8989" stop-color="#E58E06"/>
<stop offset="1" stop-color="#DF8800"/>
</linearGradient>
<linearGradient id="paint7_linear_219_5" x1="48.2216" y1="40.1623" x2="85.163" y2="77.6578" gradientUnits="userSpaceOnUse">
<stop stop-color="#A7D63F"/>
<stop offset="0.0738" stop-color="#9FD340"/>
<stop offset="1" stop-color="#39B54A"/>
</linearGradient>
<clipPath id="clip0_219_5">
<rect width="125.207" height="20.0628" fill="white" transform="translate(0.696777 135.441)"/>
</clipPath>
</defs>
</svg>
